<svg width="500" height="500" viewBox="0 0 500 500" fill="none" xmlns="http://www.w3.org/2000/svg">
<g clip-path="url(#clip0_604_6524)">
<path d="M67.7212 355.633L24 405.694L35.062 405.877L46.0761 406L54.8395 395.951L63.555 385.841L89.2705 385.78H114.986L116.423 391.723C117.189 395.032 118.242 399.505 118.721 401.711L119.631 405.694L127.437 405.877C134.716 406 135.195 405.939 134.955 404.958C134.811 404.346 129.592 381.92 123.366 355.143C117.141 328.367 111.921 306.247 111.73 306.002C111.586 305.757 91.7607 328.06 67.7212 355.633ZM107.276 352.508C108.904 359.555 110.245 365.621 110.245 365.989C110.245 366.601 106.989 366.785 95.5917 366.785C85.6311 366.785 80.986 366.601 81.1297 366.172C81.3212 365.437 103.589 339.825 104.068 339.825C104.211 339.825 105.648 345.523 107.276 352.508Z" fill="#4465DC"/>
<path d="M222.764 314.182C221.661 319.201 220.749 323.608 220.749 323.976C220.749 324.404 233.653 324.588 259.846 324.588C291.986 324.588 298.942 324.71 298.942 325.384C298.942 326.118 297.599 332.484 295.296 342.768L294.577 346.012L255.192 346.135L215.808 346.318L209.428 375.7C205.878 391.86 203 405.265 203 405.51C203 405.816 206.454 406 210.675 406C214.897 406 218.351 405.878 218.351 405.755C218.351 405.51 226.122 369.579 226.794 366.641C227.033 365.661 229.192 365.6 263.348 365.6H299.662L302.06 364.131C304.651 362.601 306.569 360.152 307.481 357.275C307.769 356.296 310.119 345.89 312.662 334.198C316.068 318.405 317.171 312.345 316.979 310.876C316.595 308.305 314.868 306.285 312.518 305.551C311.51 305.245 291.363 305 267.713 305H224.731L222.764 314.182Z" fill="#4465DC"/>
<path d="M337.908 305.808C335.388 306.727 332.346 310.034 331.205 313.157C330.824 314.198 328.447 324.793 325.88 336.613C321.506 357.006 321.269 358.354 321.839 360.681C322.98 365.58 320.413 365.213 361.393 365.58L397.809 365.886L395.622 376.114L393.435 386.403H354.357H315.279L314.328 390.506C313.805 392.833 312.854 397.242 312.189 400.304L311 406H354.357C383.451 406 398.332 405.755 399.52 405.326C401.564 404.591 404.797 401.162 405.795 398.651C406.746 396.263 415.541 354.985 415.541 352.903C415.541 350.147 413.925 347.391 411.881 346.656C410.692 346.228 398.094 345.983 374.799 345.983C346.37 345.983 339.477 345.799 339.477 345.187C339.477 344.758 340.19 341.145 341.093 337.103C341.996 333.061 342.947 328.59 343.28 327.12L343.803 324.548H382.928H422.054L424.051 315.178C425.097 310.034 426 305.624 426 305.379C426 305.134 406.699 304.951 383.119 305.012C349.555 305.012 339.667 305.196 337.908 305.808Z" fill="#4465DC"/>
<path d="M158.419 306.99C153.444 308.558 151.217 309.895 151.027 311.521C150.79 313.555 152.07 313.671 156.287 312.044C161.878 309.895 162.447 309.778 168.228 309.836C175.904 309.836 183.675 312.741 189.882 317.854C192.678 320.178 193.436 320.468 194.289 319.423C194.668 318.9 195 318.319 195 318.086C195 316.285 186.802 310.476 180.785 308.035C176.71 306.409 175.62 306.234 169.175 306.06C163.3 305.886 161.452 306.06 158.419 306.99Z" fill="#4465DC"/>
<path d="M442.091 306.25C441.946 306.743 437.261 328.352 431.658 354.271C426.055 380.189 421.273 402.168 421.032 403.091C420.694 404.384 423.012 401.86 429.774 393.672C434.798 387.516 439.048 382.59 439.145 382.714C439.29 382.837 438.71 385.853 437.937 389.424C437.164 392.933 436.102 397.92 435.57 400.444L434.556 405L437.116 401.922C440.449 397.797 475.805 355.317 475.998 355.133C476.095 355.071 471.748 343.866 466.29 330.261C460.88 316.655 456.292 305.758 456.147 306.004C455.905 306.558 451.461 326.813 451.413 327.675C451.413 327.921 449.385 322.996 446.873 316.716C444.216 310.006 442.284 305.696 442.091 306.25Z" fill="white"/>
<path d="M163.424 315.83C158.115 317.367 149.362 322.287 146.827 325.239C145.775 326.346 145.727 328.375 146.683 328.805C147.066 328.99 150.031 327.452 153.236 325.423C159.358 321.549 165.385 319.212 169.498 319.212C170.79 319.212 171.842 319.52 171.986 319.95C172.225 320.565 172.32 320.565 172.56 319.95C172.894 318.966 174.76 319.028 177.964 320.135C185.043 322.533 190.065 327.883 193.222 336.43C195.757 343.379 196.283 346.331 196.618 355.432C196.857 361.643 197.049 363.18 197.718 363.672C198.292 364.164 198.723 364.102 199.344 363.488C200.062 362.688 200.11 361.704 199.871 355.186C199.536 346.146 198.292 339.874 195.662 333.294C192.122 324.624 186 318.29 178.682 315.83C175.286 314.723 167.442 314.723 163.424 315.83Z" fill="#4465DC"/>
<path d="M172.458 323.109C172.315 323.413 170.647 323.777 168.741 324.02C160.258 325.052 152.491 330.758 148.297 339.074C147.487 340.652 146.915 342.412 147.01 343.019C147.296 345.144 148.869 344.112 151.347 340.166C154.111 335.796 158.304 331.911 162.498 329.786C164.642 328.694 166.263 328.39 169.789 328.39C175.269 328.329 178.748 329.604 182.894 333.186C186.325 336.099 188.47 339.984 189.852 345.751C190.852 349.939 190.9 353.157 190.137 366.875C190.042 368.757 190.185 369 191.186 369C192.758 369 193.616 365.722 193.95 358.074C194.379 347.633 192.044 338.103 187.564 332.457C185.467 329.726 178.557 324.991 176.747 324.991C176.175 324.991 175.079 324.445 174.221 323.777C173.363 323.17 172.553 322.806 172.458 323.109Z" fill="#4465DC"/>
<path d="M165.966 332.885C162.795 334.02 158.771 337.423 156.878 340.512C153.186 346.436 151.861 352.172 154.085 352.613C154.843 352.739 155.363 352.046 156.405 349.462C158.535 344.104 160.617 341.142 163.836 338.81C166.676 336.73 167.007 336.667 171.788 336.667C175.953 336.667 177.042 336.919 178.651 338.054C182.059 340.512 184.521 344.735 185.751 350.47C186.319 353.181 186.745 354 187.408 354C190.721 354 188.544 344.167 183.811 337.801C181.87 335.217 180.781 334.335 178.178 333.263C174.533 331.751 169.516 331.562 165.966 332.885Z" fill="#4465DC"/>
<path d="M170.458 342.301C166.122 343.286 162.847 346.732 160.679 352.456C158.926 357.072 156.528 373.444 157.081 376.829C158.28 383.846 161.648 386 171.288 386C177.792 386 178.715 385.323 179.96 379.353L180.237 377.999H172.903C166.168 377.999 165.476 377.876 164.323 376.706C163.078 375.414 162.801 373.444 163.4 369.444L163.723 367.536H171.519C180.56 367.536 181.574 367.105 182.728 362.92C185.172 354.426 184.019 346.732 179.914 343.717C177.838 342.239 173.548 341.562 170.458 342.301ZM177.1 351.595C177.515 352.333 177.884 353.934 177.884 355.226C177.884 359.596 178.023 359.534 171.196 359.534H165.061L165.522 357.196C166.399 353.01 167.875 351.164 171.196 350.056C173.087 349.441 176.27 350.241 177.1 351.595Z" fill="#4465DC"/>
<path d="M145.746 345.668C143.605 348.196 142.158 355.205 143.547 356.354C145.283 357.79 146.382 356.871 147.134 353.194C147.539 351.241 148.176 349.115 148.639 348.426C149.97 346.3 147.308 343.772 145.746 345.668Z" fill="#4465DC"/>
<path d="M151.903 354.706C151.664 355.132 150.851 359.026 150.134 363.408C149.178 369.25 148.891 372.475 149.035 375.883C149.513 386.654 154.914 394.322 163.613 396.634C166.911 397.486 168.249 396.878 167.962 394.505C167.867 393.531 167.245 393.105 164.855 392.496C159.311 391.097 155.487 387.628 153.719 382.516C152.046 377.404 151.998 373.875 153.48 364.381C154.245 359.756 154.675 355.497 154.531 354.949C154.149 353.793 152.62 353.671 151.903 354.706Z" fill="#4465DC"/>
<path d="M143.597 361.717C143.405 362.094 142.975 364.169 142.64 366.243C140.298 380.64 144.505 394.471 153.254 400.946C160.665 406.416 168.936 407.484 176.968 403.964C180.315 402.518 185 398.368 185 396.797C185 394.534 183.805 394.722 179.693 397.614C175.199 400.757 172.139 401.826 167.406 401.826C158.896 401.826 150.529 395.477 147.278 386.549C145.127 380.828 144.648 375.359 145.557 368.381C146.131 364.106 146.178 362.471 145.748 361.842C145.079 360.774 144.075 360.711 143.597 361.717Z" fill="#4465DC"/>
<path d="M189.082 371.078C188.342 374.182 186.538 379.124 185.243 381.721C183.578 385.079 183.578 386.726 185.289 386.98C186.168 387.106 186.816 386.663 187.741 385.142C190.192 381.214 192.505 373.232 191.904 371.014C191.534 369.62 189.452 369.684 189.082 371.078Z" fill="#4465DC"/>
<path d="M177.762 390.112C176.899 390.766 175.364 391.337 174.357 391.337C172.679 391.337 171 392.97 171 394.522C171 397.298 175.172 397.87 178.674 395.583C180.256 394.522 180.88 393.623 180.976 392.235C181.071 391.174 180.88 389.949 180.496 389.622C179.681 388.724 179.681 388.724 177.762 390.112Z" fill="#4465DC"/>
<path d="M192.083 103.05C192.083 98.2333 192.428 93.948 192.849 93.527C193.271 93.105 220.204 92.8928 252.699 93.0539L311.784 93.3478L312.122 100.439L312.459 107.53H288.916H265.371L269.397 111.785C274.917 117.62 277.976 123.051 279.833 130.313L281.406 136.462L296.878 136.777L312.351 137.093V143.868V150.644H297.11C283.559 150.644 281.81 150.864 281.325 152.629C281.026 153.721 280.175 157.295 279.434 160.57C277.86 167.528 271.387 178.044 265.511 183.189C256.123 191.407 244.452 196.258 228.794 198.448L219.168 199.795L226.413 207.271C237.333 218.543 248.809 231.659 269.677 256.727L288.567 279.418L275.235 279.741L261.901 280.062L257.91 275.226C247.082 262.105 212.666 222.444 202.968 211.911L192 199.998L192.325 191.489L192.65 182.979L209.669 182.291C226.811 181.596 230.839 180.748 240.414 175.816C248.561 171.619 256.66 160.391 256.73 153.197L256.755 150.644H224.419H192.083V143.836V137.029H223.852C259.276 137.029 257.628 137.469 253.384 129.152C250.485 123.469 244.146 118.307 236.332 115.267C231.112 113.236 226.987 112.755 211.087 112.322L192.083 111.806V103.05Z" fill="#4465DC"/>
<path d="M329.876 187.428C330.91 187.815 332.126 188.975 345.948 202.841C358.352 215.281 360.987 218.009 361.453 218.946C361.939 219.943 362 220.29 362 222.102C362 223.914 361.939 224.24 361.453 225.156C360.703 226.561 331.619 255.758 330.282 256.429C329.613 256.776 328.904 256.918 327.606 256.979C325.174 257.101 324.1 256.714 322.459 255.086C321.161 253.803 320.695 252.826 320.432 250.891C320.29 249.812 320.756 247.735 321.405 246.656C321.648 246.249 325.62 242.096 330.261 237.433L338.672 228.922L307.359 228.882L276.067 228.821L274.81 228.23C273.412 227.599 272.216 226.438 271.466 225.013C271.061 224.26 271 223.853 271 222C271 220.147 271.061 219.74 271.466 218.987C272.216 217.561 273.412 216.401 274.81 215.77L276.067 215.179L307.38 215.118L338.672 215.077L330.14 206.465C320.371 196.651 320.472 196.773 320.452 193.801C320.452 192.355 320.533 192.009 321.121 190.808C322.357 188.283 324.485 186.98 327.302 187C328.255 187 329.147 187.143 329.876 187.428Z" fill="white"/>
</g>
<defs>
<clipPath id="clip0_604_6524">
<rect width="500" height="500" fill="white"/>
</clipPath>
</defs>
</svg>
