<svg width="500" height="500" viewBox="0 0 500 500" fill="none" xmlns="http://www.w3.org/2000/svg">
<g clip-path="url(#clip0_603_6511)">
<path d="M237.9 28.4668C234.9 29.2668 230.3 31.1668 227.7 32.6668C225.1 34.1668 182.7 69.4668 133.5 111.167C47.0001 184.367 44.0001 187.067 41.0001 193.067C35.5001 203.967 37.1001 217.267 45.0001 226.267C47.2001 228.767 51.5001 231.967 54.7001 233.567C60.3001 236.367 60.8001 236.367 81.2001 236.667L101.9 237.067V310.467V383.867H84.5001C68.2001 383.867 67.0001 383.967 63.9001 386.067C54.8001 392.367 54.8001 405.367 63.9001 411.567L67.2001 413.867H249.9H432.6L435.9 411.567C445 405.367 445 392.367 435.9 386.067C432.8 383.967 431.6 383.867 415.3 383.867H397.9V310.467V237.067L418.7 236.667C439 236.367 439.5 236.367 445.1 233.567C456.7 227.867 462.5 217.567 461.7 204.467C460.8 190.467 466.1 195.567 366.1 110.967C317 69.3668 274.7 34.1668 272.1 32.6668C262.5 27.1668 249 25.4668 237.9 28.4668ZM257 59.6668C258.5 60.5668 297.9 93.7668 344.7 133.367L429.8 205.367L339.9 205.667C290.4 205.767 209.4 205.767 160 205.667L70.1001 205.367L154.5 133.867C200.9 94.5668 240.4 61.3668 242.1 60.0668C246.1 57.3668 253.2 57.0668 257 59.6668ZM189.9 310.367V383.867H160.9H131.9V310.367V236.867H160.9H189.9V310.367ZM278.9 310.367V383.867H249.9H220.9V310.367V236.867H249.9H278.9V310.367ZM367.9 310.367V383.867H338.9H309.9V310.367V236.867H338.9H367.9V310.367Z" fill="#4465DC"/>
<path d="M35.4 444.767C30.2 447.967 28.6 450.467 28.1 456.567C27.5 463.267 29.6 467.867 34.4 470.867C37.6 472.867 40.2 472.867 249.9 472.867C459.6 472.867 462.2 472.867 465.4 470.867C470.2 467.867 472.3 463.267 471.7 456.567C471.4 452.367 470.6 450.167 468.8 448.267C463.4 442.467 479.1 442.867 249.7 442.867C45.7 442.867 38.3 442.967 35.4 444.767Z" fill="white"/>
</g>
<defs>
<clipPath id="clip0_603_6511">
<rect width="500" height="500" fill="white"/>
</clipPath>
</defs>
</svg>
