<svg width="500" height="500" viewBox="0 0 500 500" fill="none" xmlns="http://www.w3.org/2000/svg">
<path d="M226.66 19.7885C198.924 24.2275 172.427 36.1428 150.328 54.1326C135.896 65.8143 133.303 69.0851 133.303 75.2764C133.303 82.2854 137.362 86.2572 144.465 86.2572C148.862 86.2572 150.103 85.5563 157.544 78.6641C183.477 54.5999 215.385 41.8669 250 41.8669C284.614 41.8669 316.522 54.5999 342.455 78.6641C349.896 85.5563 351.137 86.2572 355.534 86.2572C362.75 86.2572 366.696 82.4023 366.696 75.1596C366.696 69.786 366.471 69.3188 358.353 61.6089C338.621 42.8014 313.478 29.1338 286.08 22.3585C276.383 20.0221 270.633 19.4381 253.946 19.0876C242.783 18.854 230.494 19.0876 226.66 19.7885Z" fill="white"/>
<path d="M235.906 57.1699C215.047 59.5062 189.453 70.487 172.427 84.505C162.731 92.4485 158.672 97.7053 158.672 102.378C158.672 109.737 166.452 116.396 173.104 114.644C174.795 114.293 179.756 110.789 184.041 106.934C211.665 82.7527 246.617 75.0428 279.54 85.79C294.424 90.6963 305.473 97.238 318.552 108.92C323.739 113.592 325.317 114.293 329.602 114.293C335.69 114.293 339.636 110.789 340.764 104.481C341.891 98.523 339.073 94.3176 327.798 84.7386C310.096 69.9029 285.629 59.623 262.29 57.0531C249.774 55.7681 248.872 55.7681 235.906 57.1699Z" fill="white"/>
<path d="M229.705 103.78C212.679 108.336 192.61 121.886 190.355 130.297C188.438 137.306 192.272 144.082 198.698 145.367C202.983 146.184 205.351 145.016 213.356 138.241C224.18 129.129 235.906 124.807 250 124.807C264.094 124.807 275.82 129.129 286.644 138.241C294.649 145.016 297.017 146.184 301.301 145.367C307.841 144.082 311.562 137.306 309.645 130.18C308.292 125.157 296.679 115.228 285.742 109.621C269.506 101.443 247.294 99.1071 229.705 103.78Z" fill="white"/>
<path d="M243.009 150.039C236.583 153.544 236.47 154.361 236.47 204.125V249.684L152.245 250.034C74.2219 250.385 67.4569 250.618 61.7066 252.604C38.2545 260.665 21.1164 278.421 13.6749 302.368C10.7434 312.064 9.95413 368.369 12.6601 382.037C16.9447 404.466 30.1365 422.689 49.5296 432.735C59.9026 438.109 69.0354 440.212 83.242 440.212H95.1935L97.8995 446.286C101.508 454.347 109.287 462.407 117.518 466.612C123.719 469.766 125.298 470 136.686 470C147.848 470 149.652 469.65 155.29 466.846C163.182 462.874 171.413 454.347 175.134 446.403L178.065 440.212H250H321.935L324.866 446.403C328.587 454.347 336.818 462.874 344.71 466.846C350.348 469.65 352.152 470 363.314 470C374.702 470 376.281 469.766 382.482 466.612C390.713 462.407 398.492 454.347 402.1 446.286L404.806 440.212H416.758C430.965 440.212 440.097 438.109 450.47 432.735C469.864 422.689 483.055 404.466 487.34 382.037C490.046 368.369 489.257 312.064 486.325 302.368C478.884 278.421 461.745 260.665 438.293 252.604C432.543 250.618 425.778 250.385 347.867 250.034L263.53 249.684V204.125C263.53 165.693 263.305 157.983 261.839 155.179C258.682 148.754 249.549 146.301 243.009 150.039ZM436.602 284.495C444.946 288.934 452.162 296.761 456.108 305.639C459.152 312.181 459.152 312.648 459.49 342.086C459.829 367.318 459.603 373.042 457.912 379.233C454.529 392.2 444.044 403.648 431.077 408.321C425.665 410.307 415.631 410.423 249.436 410.423C83.5802 410.423 73.2072 410.307 68.4717 408.321C55.2798 402.947 45.5833 392.2 41.9753 379.233C40.3968 373.626 40.1713 367.435 40.5095 342.436C40.8478 312.648 40.8478 312.181 43.7793 305.756C48.9658 294.425 57.6476 286.014 68.5844 282.042C72.9817 280.523 93.0513 280.29 251.691 280.523L429.837 280.757L436.602 284.495Z" fill="#4465DC"/>
<path d="M314.155 337.296C300.061 346.525 301.753 368.837 317.087 376.079C339.186 386.476 358.353 356.688 340.539 339.633C335.691 334.96 333.097 333.909 325.881 333.909C320.469 333.909 318.214 334.609 314.155 337.296Z" fill="white"/>
<path d="M384.737 335.894C379.551 338.698 377.296 341.151 375.041 346.174C367.937 362.178 380.678 380.285 397.478 377.832C404.356 376.897 409.542 373.276 413.037 367.085C415.631 362.529 415.969 360.893 415.518 354.352C415.18 348.16 414.503 346.058 411.684 342.436C409.768 339.983 406.498 337.063 404.356 336.011C399.507 333.441 389.36 333.325 384.737 335.894Z" fill="white"/>
</svg>
