<svg width="500" height="500" viewBox="0 0 500 500" fill="none" xmlns="http://www.w3.org/2000/svg">
<path d="M166.933 52.164L243.117 124.501M329.593 29.8035L273.652 117.648" stroke="white" stroke-width="34" stroke-linecap="round"/>
<path d="M50.5973 124.85C39.8258 126.875 28.6662 135.531 23.6201 145.659L21 151V278.986V406.973L23.6201 412.221C28.9573 423.178 40.408 431.281 53.0233 433.214C60.9805 434.411 440.019 434.411 447.977 433.214C460.592 431.281 472.043 423.178 477.38 412.221L480 406.973V278.986V151L477.38 145.659C472.14 135.162 461.077 126.875 449.335 124.758C443.028 123.561 56.8078 123.745 50.5973 124.85ZM441.669 278.986V396.384H250.5H59.3309V278.986V161.588H250.5H441.669V278.986Z" fill="#4465DC"/>
<path d="M177.332 452.09C168.695 455.037 164.134 461.206 164.134 469.953C164.134 476.398 166.948 481.371 172.674 485.238L176.944 488H250.5H324.056L328.326 485.238C340.262 477.319 339.486 459.64 326.871 453.287L322.795 451.169L251.956 450.985C192.858 450.801 180.437 450.985 177.332 452.09Z" fill="#4465DC"/>
</svg>
