<svg width="500" height="500" viewBox="0 0 500 500" fill="none" xmlns="http://www.w3.org/2000/svg">
<g clip-path="url(#clip0_605_6903)">
<path d="M58.3186 65.1103C35.0954 84.6751 15.6029 101.173 15.1423 101.798C13.698 103.437 13.4253 108.083 14.5989 110.901C16.5352 115.393 17.8128 115.865 38.4559 119.479L57.2355 122.778L63.0195 143.778L68.8192 164.837L71.0318 167.627C75.2498 172.823 81.2575 175.911 90.6865 177.707C119.169 183.041 166.513 169.917 187.377 150.922C193.993 144.952 197.212 139.392 197.91 132.815C198.283 129.521 198.252 129.404 192.724 108.774L187.164 88.0263L196.918 79.9007C202.269 75.4602 206.784 71.8074 207.028 71.742C207.223 71.6896 210.549 83.5144 214.432 98.0083L221.495 124.366L220.428 127.22C216.711 137.173 223.56 148.868 232.943 148.735C244.713 148.525 248.205 131.679 238.309 122.868L235.637 120.514L226.508 86.4417C217.738 53.7135 217.314 52.3239 215.901 50.7607C215.131 49.8396 213.874 48.8608 213.114 48.5633C210.754 47.5671 104.216 29.0092 102.347 29.2595C100.933 29.4504 91.9997 36.73 58.3186 65.1103ZM149.087 54.6948C171.934 58.7206 190.516 62.2604 190.368 62.488C190.07 63.1318 126.196 116.703 125.577 116.931C124.893 117.114 42.8406 102.644 42.1958 102.191C41.6799 101.828 106.016 47.444 106.991 47.3707C107.348 47.3376 126.29 50.6558 149.087 54.6948ZM101.518 130.644C120.898 134.033 129.017 135.24 130.384 134.873C131.687 134.462 139.065 128.601 153.466 116.537L174.594 98.7232L178.828 113.938C183.594 131.139 183.492 129.976 179.93 134.063C172.97 142.066 158.937 149.648 140.721 155.092C117.328 162.112 95.8108 163.242 84.4189 158.026L82.1565 157.004L77.9441 141.283C75.6264 132.633 73.9093 125.639 74.1848 125.691C74.427 125.814 86.7411 128.026 101.518 130.644Z" fill="white"/>
<ellipse cx="232.188" cy="134.008" rx="14.7258" ry="14.7649" transform="rotate(-15 232.188 134.008)" fill="white"/>
<path fill-rule="evenodd" clip-rule="evenodd" d="M80.7645 192.203C80.742 201.728 80.7292 212.135 80.7267 223.378C80.7063 316.127 80.5678 324.667 83.7662 331.687C84.2323 332.71 84.7693 333.701 85.3878 334.915C87.9377 339.922 95.4537 347.569 100.87 350.667C109.892 355.829 112.293 356.03 165.237 356.044L213.445 356.058V369.063V382.068L186.763 382.075C172.087 382.078 157.457 382.493 154.25 382.996C137.693 385.594 124.211 398.666 121.084 415.155C120.58 417.81 120.168 426.904 120.168 435.365C120.168 449.554 120.325 451.054 122.186 454.684C123.44 457.129 125.388 459.239 127.329 460.255C130.314 461.818 136.566 461.891 266.362 461.891C396.158 461.891 402.41 461.818 405.395 460.255C407.336 459.239 409.284 457.129 410.538 454.684C412.399 451.054 412.556 449.554 412.556 435.365C412.556 426.904 412.144 417.81 411.64 415.155C408.513 398.666 395.031 385.594 378.474 382.996C375.267 382.493 360.637 382.078 345.961 382.075L319.279 382.068V369.063V356.058L367.487 356.044C418.932 356.03 422.223 355.792 430.68 351.478C435.543 348.997 443.53 341.393 446.379 336.531C447.622 334.409 449.4 330.231 450.329 327.245C451.942 322.065 452.018 317.313 451.997 223.462C451.983 160.451 451.649 123.694 451.068 121.175C447.826 107.112 435.485 94.7702 421.421 91.528C418.157 90.7752 332.158 90.4951 251.401 90.6116C249.357 99.722 246.404 108.489 242.643 116.812C250.505 116.823 258.85 116.834 267.707 116.845C414.765 117.035 415.715 117.047 418.803 118.861C420.511 119.865 422.731 122.085 423.735 123.794C425.541 126.867 425.561 127.959 425.561 223.317V319.733L423.528 323.002C422.96 323.915 422.716 324.694 422.292 325.358C419.61 329.557 409.729 329.158 265.314 328.935C116.814 328.705 115.21 328.684 112.844 326.909C111.53 325.922 109.713 323.904 108.808 322.424C107.244 319.866 107.152 315.074 106.92 225.281C106.893 214.969 106.876 205.506 106.87 196.875C97.8959 196.156 89.1662 194.571 80.7645 192.203ZM293.269 382.068V369.063V356.058H266.362H239.455V369.063V382.068H266.362H293.269ZM385.506 426.527C385.163 416.012 384.001 413.396 378.41 410.546C375.532 409.078 368.338 408.977 266.362 408.977C164.386 408.977 157.192 409.078 154.314 410.546C148.723 413.396 147.561 416.012 147.218 426.527L146.912 435.881H266.362H385.812L385.506 426.527Z" fill="#4465DC"/>
</g>
<defs>
<clipPath id="clip0_605_6903">
<rect width="500" height="500" fill="white"/>
</clipPath>
</defs>
</svg>
