<svg width="500" height="500" viewBox="0 0 500 500" fill="none" xmlns="http://www.w3.org/2000/svg">
<g clip-path="url(#clip0_604_6530)">
<path d="M115.168 75.7164C115.168 66.2673 115.87 57.8598 116.726 57.034C117.585 56.206 172.364 55.7897 238.455 56.1058L358.627 56.6823L359.315 70.5945L360 84.5067H312.116H264.23L272.417 92.854C283.644 104.302 289.865 114.958 293.643 129.206L296.842 141.268L328.311 141.887L359.781 142.506V155.799V169.093H328.782C301.221 169.093 297.663 169.525 296.678 172.988C296.068 175.129 294.338 182.141 292.831 188.568C289.63 202.217 276.465 222.849 264.514 232.944C245.42 249.067 221.681 258.585 189.835 262.881L170.257 265.523L184.991 280.19C207.203 302.305 230.542 328.039 272.987 377.219L311.407 421.738L284.29 422.37L257.171 423L249.054 413.513C227.03 387.77 157.032 309.96 137.308 289.294L115 265.922L115.66 249.227L116.322 232.532L150.937 231.181C185.801 229.819 193.994 228.154 213.468 218.478C230.039 210.244 246.511 188.216 246.654 174.101L246.705 169.093H180.937H115.168V155.737V142.381H179.783C251.833 142.381 248.48 143.245 239.849 126.927C233.953 115.777 221.06 105.651 205.167 99.6854C194.55 95.701 186.159 94.7572 153.822 93.9091L115.168 92.8963V75.7164Z" fill="#4465DC"/>
<path d="M377.189 227.697C378.476 228.178 379.99 229.623 397.2 246.886C412.643 262.375 415.923 265.772 416.504 266.938C417.109 268.18 417.185 268.611 417.185 270.867C417.185 273.123 417.109 273.529 416.504 274.67C415.57 276.419 379.36 312.771 377.694 313.607C376.861 314.038 375.978 314.216 374.363 314.292C371.335 314.444 369.998 313.962 367.954 311.934C366.339 310.337 365.759 309.12 365.431 306.712C365.254 305.368 365.834 302.783 366.642 301.439C366.945 300.932 371.89 295.761 377.669 289.956L388.141 279.36L349.155 279.309L310.194 279.233L308.629 278.498C306.888 277.712 305.399 276.267 304.466 274.492C303.961 273.554 303.885 273.047 303.885 270.741C303.885 268.434 303.961 267.927 304.466 266.989C305.399 265.214 306.888 263.769 308.629 262.984L310.194 262.248L349.18 262.172L388.141 262.122L377.518 251.399C365.355 239.18 365.481 239.332 365.456 235.631C365.456 233.831 365.557 233.4 366.288 231.905C367.828 228.761 370.477 227.139 373.985 227.164C375.171 227.164 376.281 227.342 377.189 227.697Z" fill="white"/>
<path d="M324.618 390.837C323.331 390.356 321.817 388.911 304.607 371.647C289.164 356.159 285.884 352.762 285.303 351.596C284.698 350.354 284.622 349.923 284.622 347.666C284.622 345.41 284.698 345.005 285.303 343.864C286.237 342.115 322.448 305.763 324.113 304.927C324.946 304.496 325.829 304.318 327.444 304.242C330.472 304.09 331.809 304.572 333.853 306.6C335.468 308.197 336.049 309.414 336.377 311.822C336.553 313.165 335.973 315.751 335.165 317.095C334.863 317.602 329.917 322.773 324.138 328.578L313.666 339.174L352.652 339.225L391.613 339.301L393.178 340.036C394.919 340.822 396.408 342.267 397.341 344.041C397.846 344.979 397.922 345.486 397.922 347.793C397.922 350.1 397.846 350.607 397.341 351.545C396.408 353.319 394.919 354.764 393.178 355.55L391.613 356.285L352.627 356.361L313.666 356.412L324.29 367.135C336.452 379.354 336.326 379.202 336.351 382.903C336.351 384.703 336.25 385.134 335.519 386.629C333.979 389.773 331.33 391.395 327.822 391.37C326.636 391.37 325.526 391.192 324.618 390.837Z" fill="white"/>
</g>
<defs>
<clipPath id="clip0_604_6530">
<rect width="500" height="500" fill="white"/>
</clipPath>
</defs>
</svg>
