<svg width="500" height="500" viewBox="0 0 500 500" fill="none" xmlns="http://www.w3.org/2000/svg">
<g clip-path="url(#clip0_601_6227)">
<path fill-rule="evenodd" clip-rule="evenodd" d="M270.511 116.279L270.468 116.301L226.992 72.8873C203.079 49.0092 182.346 29.0352 180.916 28.5007C177.287 27.1418 172.337 27.2885 169.391 28.8423C163.233 32.09 147.129 51.7058 138.259 66.7638C111.753 111.762 106.004 164.795 122.224 214.669C129.938 238.386 141.819 259.184 158.274 277.777L163.646 283.845L140.364 346.785L117.082 409.725H106.804C101.152 409.725 94.2906 410.149 91.558 410.668C74.9776 413.812 61.5878 427.202 58.4434 443.782C57.9246 446.515 57.5009 456.282 57.5009 465.487C57.5009 484.62 58.1877 487.089 64.5207 490.719L68.1175 492.781L209.632 492.797C349.655 492.811 351.184 492.792 354.789 490.953C361.253 487.655 362.151 484.523 362.151 465.278C362.151 456.188 361.727 446.515 361.208 443.782C358.064 427.202 344.674 413.812 328.094 410.668C325.361 410.149 318.497 409.725 312.841 409.725L302.556 409.725L289.741 374.875C282.693 355.707 276.776 339.6 276.592 339.081C276.374 338.465 282.084 338.104 293.126 338.037C333.989 337.792 367.997 326.57 400.521 302.6C410.582 295.185 420.861 285.726 422.679 282.21C424.242 279.187 424.393 274.252 423.031 270.615C422.497 269.186 402.524 248.454 378.65 224.546L335.241 181.074L335.263 181.031L314.73 160.497L314.708 160.541L302.88 148.74L291.053 136.939L291.132 136.899L270.511 116.279ZM389.808 276.125C390.039 275.939 342.058 227.615 283.181 168.737C224.304 109.859 175.925 61.7048 175.67 61.7279C174.868 61.8008 166.815 72.951 162.698 79.6874C153.763 94.3097 146.935 112.318 143.212 131.077C140.242 146.049 140.263 171.107 143.261 186.293C149.473 217.766 163.375 244.105 185.401 266.131C208.243 288.973 234.675 302.606 267.986 308.729C280.063 310.949 305.761 310.949 317.838 308.729C345.716 303.605 367.934 293.54 389.808 276.125ZM235.633 328.924C219.901 323.708 207.76 317.843 194.593 309.1C191.039 306.739 187.644 304.523 187.047 304.173C186.339 303.758 185.272 305.379 183.964 308.856C176.731 328.095 147.646 406.79 147.281 408.109C146.858 409.636 150.274 409.725 209.718 409.725C244.305 409.725 272.595 409.414 272.585 409.033C272.575 408.651 266.221 391.123 258.465 370.08L244.36 331.819L235.633 328.924ZM334.455 456.77C334.455 446.487 332.605 442.091 327.094 439.279C323.501 437.445 321.898 437.42 209.632 437.435L95.8129 437.451L92.2162 439.512C86.7389 442.653 85.1963 446.399 85.1963 456.562L85.1963 465.116H209.826L334.456 465.116L334.455 456.77Z" fill="#4465DC"/>
<path fill-rule="evenodd" clip-rule="evenodd" d="M363.326 31.8243C368.627 27.0321 377.18 22.5906 383.49 21.3517C411.296 15.8911 437.278 40.5299 432.587 67.9106C428.593 91.2283 407.58 106.467 384.718 102.626C380.854 101.977 377.564 101.583 377.408 101.75C377.252 101.918 367.91 119.881 356.647 141.67L336.193 181.242L315.66 160.708L322.415 147.558C326.142 140.303 331.658 129.693 334.674 123.98C337.688 118.268 339.808 113.616 339.385 113.644C338.963 113.671 328.124 118.971 315.3 125.421L292.061 137.11L271.441 116.49L312.142 96.1359C351.972 76.2164 352.867 75.7096 352.039 73.53C350.47 69.4043 349.966 60.5528 350.982 54.9722C352.51 46.5804 357.638 36.9664 363.326 31.8243ZM353.454 491.937C354.58 491.724 355.121 491.469 355.719 491.164C359.234 489.371 361.103 487.626 362.077 483.314L353.454 491.937ZM405.547 61.896C405.547 57.2773 402.721 52.5451 398.527 50.1402C391.531 46.1299 383.189 48.6853 379.691 55.911C377.376 60.6913 377.378 63.1045 379.698 67.8967C381.847 72.3363 387.135 75.7511 391.825 75.729C398.827 75.6939 405.547 68.9205 405.547 61.896Z" fill="white"/>
</g>
<defs>
<clipPath id="clip0_601_6227">
<rect width="500" height="500" fill="white"/>
</clipPath>
</defs>
</svg>
