<svg width="500" height="500" viewBox="0 0 500 500" fill="none" xmlns="http://www.w3.org/2000/svg">
<g clip-path="url(#clip0_605_6848)">
<path d="M134.992 122.792C77.1094 149.85 28.484 172.716 27.2072 173.732C23.3768 176.273 20.2911 185.546 21.1424 191.898C22.632 202.061 24.9728 203.712 64.9796 222.259L101.369 239.155L101.688 284.887L102.007 330.746L104.986 337.606C110.732 350.437 121.266 359.964 139.46 368.73C194.47 395.026 297.892 394.136 350.667 366.951C367.372 358.44 376.948 348.912 381.949 335.955C384.502 329.476 384.502 329.222 384.502 284.379V239.282L408.762 228.103C422.062 222.005 433.234 217.051 433.766 217.051C434.192 217.051 434.511 242.839 434.511 274.343V331.636L430.787 336.844C417.806 355.01 425.36 382.449 444.513 387.276C468.559 393.247 484.839 360.98 469.517 337.733L465.367 331.509V257.448C465.367 186.309 465.261 183.26 463.239 179.322C462.175 177.035 460.153 174.367 458.77 173.351C454.514 170.048 247.99 74.5186 244.053 74.0105C241.074 73.6294 218.942 83.538 134.992 122.792ZM325.237 150.993C369.5 171.573 405.357 188.849 404.931 189.23C403.974 190.374 244.904 264.308 243.521 264.435C242.031 264.435 83.0678 190.501 82.0038 189.23C81.1526 188.214 241.606 112.883 243.627 113.264C244.372 113.391 281.08 130.414 325.237 150.993ZM187.128 279.171C224.688 296.574 240.542 303.434 243.521 303.434C246.394 303.307 264.588 295.431 300.445 278.789L353.114 254.145L353.433 287.301C353.752 324.776 354.178 322.362 344.708 328.714C326.194 341.163 293.529 348.912 253.522 350.056C202.131 351.58 157.761 342.179 137.439 325.411L133.396 322.108V287.936C133.396 269.135 133.715 254.018 134.247 254.272C134.672 254.653 158.506 265.832 187.128 279.171Z" fill="#4465DC"/>
<circle cx="451" cy="357" r="31" fill="white"/>
</g>
<defs>
<clipPath id="clip0_605_6848">
<rect width="500" height="500" fill="white"/>
</clipPath>
</defs>
</svg>
