<svg width="500" height="500" viewBox="0 0 500 500" fill="none" xmlns="http://www.w3.org/2000/svg">
<path fill-rule="evenodd" clip-rule="evenodd" d="M232.082 101.092C169.811 111.408 122.019 156.898 108.543 218.678C106.08 229.968 105.181 256.316 106.856 268.138C110.934 296.934 121.932 322.026 140.195 344.206C144.593 349.548 151.516 356.84 155.58 360.409C161.258 365.396 163.923 368.831 167.087 375.235C170.995 383.15 171.244 384.328 171.993 398.507C172.607 410.123 173.318 414.65 175.192 418.868C180.375 430.53 189.464 438.265 201.746 441.466C211.593 444.032 298.584 444.032 308.432 441.466C320.714 438.265 329.802 430.53 334.985 418.868C336.855 414.66 337.571 410.128 338.177 398.66C339.262 378.123 341.391 373.713 359.138 355.255C366.415 347.686 374.892 337.719 377.975 333.105C419.788 270.537 410.44 189.592 355.525 138.703C336.794 121.347 311.292 108.221 284.83 102.317C273.955 99.8896 243.592 99.1854 232.082 101.092ZM283.343 137.523C296.49 141.044 308.368 146.406 319.45 153.825C367.128 185.738 384.364 246.643 360.178 297.737C353.164 312.554 347.181 320.854 334.07 333.952C321.394 346.615 317.16 352.196 312.299 362.645C307.682 372.573 305.656 381.361 304.858 394.912C304.475 401.398 303.665 407.337 303.057 408.109C301.488 410.099 209.041 410.153 207.054 408.165C206.314 407.424 205.708 404.176 205.708 400.946C205.708 385.188 201.287 367.724 194.284 355.814C192.233 352.328 184.461 343.147 177.012 335.412C163.344 321.222 156.862 312.756 151.424 301.998C121.864 243.508 146.73 172.251 206.48 144.231C211.679 141.793 220.578 138.565 226.252 137.059C235.706 134.55 238.171 134.358 255.65 134.769C270.255 135.112 276.749 135.757 283.343 137.523ZM203.445 279.067C198.991 281.439 194.531 288.401 194.503 293.025C194.467 299.176 197.904 303.658 217.938 323.583L238.254 343.787L238.257 353.346C238.258 360.203 238.812 364.007 240.221 366.812C246.256 378.835 263.921 378.835 269.957 366.812C271.365 364.007 271.92 360.203 271.921 353.346L271.923 343.787L292.239 323.583C303.413 312.47 313.261 301.752 314.124 299.764C316.331 294.679 316.052 290.593 313.15 285.525C309.036 278.346 299.46 274.897 292.892 278.228C291.544 278.912 282.487 287.372 272.765 297.028L255.089 314.584L237.413 297.028C227.69 287.372 218.633 278.912 217.285 278.228C213.627 276.373 207.849 276.722 203.445 279.067ZM190.042 457.379C180.526 465.392 181.172 478.534 191.388 484.767C194.918 486.921 197.151 487 255.089 487C313.026 487 315.26 486.921 318.789 484.767C329.005 478.534 329.652 465.392 320.136 457.379L316.643 454.437H255.089H193.534L190.042 457.379Z" fill="#4465DC"/>
<path d="M240.704 20.0272C242.273 16.965 244.712 14.3217 247.142 13.049C249.294 11.9223 252.838 11 255.019 11C261.066 11 266.446 14.3936 269.333 20.0272C271.727 24.6981 271.859 26.2517 271.859 49.6387C271.859 72.0259 271.651 74.7534 269.614 78.9626C267.031 84.3029 260.597 88.511 255.019 88.511C249.44 88.511 243.007 84.3029 240.423 78.9626C238.387 74.7534 238.178 72.0259 238.178 49.6387C238.178 26.2517 238.31 24.6981 240.704 20.0272Z" fill="white"/>
<path d="M82.0585 87.6146C83.3844 82.6853 88.2133 77.601 92.9017 76.1969C101.573 73.6019 104.077 75.1308 124.564 95.5297C134.648 105.571 143.622 115.151 144.507 116.819C148.231 123.846 145.246 133.515 137.985 137.944C133.951 140.405 127.109 140.87 123.305 138.941C121.957 138.257 112.379 129.285 102.022 119.002C81.4859 98.6133 79.8085 95.9757 82.0585 87.6146Z" fill="white"/>
<path d="M383.67 97.3169C394.113 86.8091 403.667 77.755 404.902 77.1933C406.137 76.6327 409.837 76.3407 413.123 76.544C418.267 76.863 419.671 77.4876 423.227 81.0464C427.134 84.9556 427.357 85.5701 427.357 92.4484V99.7187L408.832 118.343C398.643 128.586 388.943 137.691 387.275 138.576C380.264 142.297 370.67 139.341 366.095 132.051C364.319 129.22 363.898 127.033 364.24 122.405L364.683 116.419L383.67 97.3169Z" fill="white"/>
<path d="M26.0233 263.472C13.9922 257.3 13.9922 241 26.0233 234.827C30.6916 232.432 32.2443 232.3 55.6183 232.3C77.9931 232.3 80.7191 232.509 84.9259 234.546C90.2633 237.131 94.4691 243.568 94.4691 249.15C94.4691 254.732 90.2633 261.168 84.9259 263.753C80.7191 265.791 77.9931 266 55.6183 266C32.2443 266 30.6916 265.867 26.0233 263.472Z" fill="white"/>
<path d="M415.568 249.15C415.568 243.633 419.755 237.178 425.026 234.568C429.197 232.502 431.791 232.302 454.345 232.301C477.796 232.3 479.344 232.431 484.014 234.827C492.383 239.121 495.375 248.647 490.988 257.031C489.716 259.462 487.074 261.902 484.014 263.472C479.345 265.867 477.793 266 454.419 266C432.044 266 429.318 265.791 425.111 263.753C419.774 261.168 415.568 254.732 415.568 249.15Z" fill="white"/>
</svg>
