<svg width="500" height="500" viewBox="0 0 500 500" fill="none" xmlns="http://www.w3.org/2000/svg">
<g clip-path="url(#clip0_604_6535)">
<path d="M211.595 25.9327C207.532 28.4106 205.351 32.6725 205.351 38.2229C205.351 42.5839 208.82 47.9361 288.111 166.873L370.872 291.063V373.13C370.872 464.117 370.574 459.855 377.314 464.018C380.387 465.901 382.171 466 429.746 466C484.06 466 482.97 466.099 486.835 459.756C488.719 456.683 488.818 454.106 488.818 369.364C488.818 284.621 488.719 282.044 486.835 278.971C482.673 272.033 484.259 272.232 436.089 271.934L392.578 271.637L311.304 149.726C251.34 59.6316 229.238 27.3203 226.859 25.9327C222.696 23.3557 215.758 23.3557 211.595 25.9327ZM460.075 308.805V317.13L455.416 318.716C452.74 319.509 440.45 323.375 427.863 327.24C415.374 331.105 403.877 334.674 402.39 335.169L399.615 336.061V318.221V300.479H429.845H460.075V308.805ZM460.075 359.749V372.535L430.539 381.555C414.383 386.609 400.705 390.673 400.309 390.673C399.912 390.673 399.615 385.123 399.615 378.284V365.994L408.337 363.417C415.87 361.137 459.183 347.459 459.876 347.162C459.976 347.162 460.075 352.811 460.075 359.749ZM460.075 420.407V438.248H429.845H399.516L399.813 429.625L400.111 421.101L429.845 411.884C446.199 406.829 459.678 402.666 459.876 402.666C459.976 402.567 460.075 410.595 460.075 420.407Z" fill="#4465DC"/>
<path d="M26.45 142.788C20.7014 146.257 19.512 148.537 19.512 155.277C19.512 160.629 19.9084 162.017 21.9898 164.197C27.1438 169.747 25.2606 169.648 98.3078 169.648C163.921 169.648 165.904 169.747 171.851 171.73C182.357 175.199 191.872 183.524 196.233 192.742C198.017 196.707 219.227 256.076 219.227 257.265C219.227 257.563 176.311 257.959 123.879 258.058L28.4323 258.356L25.1615 260.635C23.3774 261.924 21.296 264.203 20.5031 265.789C17.2324 272.033 19.6111 281.647 25.1615 284.819C26.9456 285.81 48.9489 286.207 136.467 286.603L245.492 287.099L250.25 289.874C257.188 293.938 259.269 298.001 263.333 314.553L266.802 329.024V355.884V382.744L223.588 382.546L180.374 382.248L167.985 354.496C161.245 339.332 155.001 325.952 154.01 324.861C149.946 320.302 149.253 320.302 88.3964 320.302C26.1526 320.302 27.0447 320.203 21.9898 325.753C19.9084 327.934 19.512 329.321 19.512 334.674C19.512 340.026 19.9084 341.314 21.9898 343.594C23.3774 345.081 25.3597 346.765 26.45 347.36C27.8376 348.252 43.8941 348.649 81.3593 349.045L134.286 349.541L141.621 365.795C145.585 374.815 148.856 382.248 148.856 382.447C148.856 382.645 122.095 382.744 89.2884 382.744C35.6676 382.744 29.3243 382.942 26.2518 384.429C16.8359 388.79 16.5386 403.261 25.6571 409.207C28.1349 410.892 32.5951 410.992 92.5592 411.289L156.785 411.586V427.345C156.785 446.078 158.173 451.133 164.913 457.773C173.238 465.901 173.535 466 211.893 466C249.061 466 251.142 465.703 258.179 459.954C260.161 458.269 263.036 454.8 264.621 452.322C267.198 447.763 267.298 447.267 267.595 429.625L267.991 411.586L273.244 410.496C279.489 409.207 286.427 405.045 289.896 400.386C295.248 393.448 295.545 391.169 295.545 356.578V324.663L291.581 308.408C289.4 299.488 286.724 290.27 285.634 287.892C284.643 285.612 284.048 283.531 284.444 283.332C284.841 283.035 288.508 282.143 292.572 281.152C302.186 278.872 304.763 277.485 307.34 273.421C311.403 266.879 309.421 257.662 303.177 253.895C298.816 251.219 293.464 251.418 279.687 254.887C270.965 257.067 265.613 257.86 259.071 257.86H250.151L244.501 241.704C221.011 175.199 221.309 175.893 213.082 166.08C202.675 153.691 189.394 145.762 173.436 142.491C166.895 141.103 155.992 140.905 97.614 140.905C32.9915 140.905 29.2252 141.004 26.45 142.788ZM240.041 424.868V438.248H212.785H185.528V424.868V411.487H212.785H240.041V424.868Z" fill="#4465DC"/>
<path d="M218.83 307.814C204.261 313.265 200.692 333.385 212.586 343.792C226.066 355.587 247.078 346.072 247.078 328.033C247.078 319.311 243.113 312.571 235.779 308.706C231.616 306.624 223.39 306.129 218.83 307.814Z" fill="white"/>
</g>
<defs>
<clipPath id="clip0_604_6535">
<rect width="500" height="500" fill="white"/>
</clipPath>
</defs>
</svg>
