<svg width="500" height="500" viewBox="0 0 500 500" fill="none" xmlns="http://www.w3.org/2000/svg">
<path fill-rule="evenodd" clip-rule="evenodd" d="M172.888 99.5294L170.481 99.7741C157.934 100.905 143.742 110.778 137.263 122.708C131.401 133.506 131.298 135.049 131.298 195.829V251.672H129.035C125.024 251.672 119.985 255.58 117.928 260.208C115.357 265.761 115.357 268.538 117.928 273.783C119.985 277.999 126.053 282.524 129.652 282.524C131.195 282.524 131.298 287.564 131.298 337.442C131.298 370.146 131.709 394.519 132.326 397.81C132.943 400.896 134.589 405.935 136.131 409.02C139.628 416.219 150.838 427.532 157.317 430.206L162.048 432.16L162.356 459.618L162.665 486.974L165.236 489.751C166.033 490.607 166.629 491.334 167.322 491.951C171.46 495.634 179.076 495.407 253.68 495.407C328.283 495.407 335.899 495.634 340.037 491.951C340.731 491.334 341.327 490.607 342.124 489.751L344.695 486.974L345.003 459.618L345.312 432.16L349.734 430.308C355.699 427.84 365.469 418.79 369.583 412.003C375.959 401.307 376.062 400.073 376.062 338.368C376.062 287.667 376.165 282.524 377.707 282.524C380.484 282.524 386.963 278.411 388.608 275.531C389.534 273.989 390.562 271.109 390.974 269.052C392.414 261.442 385.318 251.672 378.427 251.672H376.062V195.829C376.062 135.049 375.959 133.506 370.097 122.708C363.618 110.778 349.426 100.905 336.879 99.7741L334.472 99.5294H172.888ZM341.095 135.975C339.656 134.432 337.085 132.478 335.233 131.758C332.457 130.524 317.648 130.318 253.474 130.318C179.927 130.407 172.303 130.264 168.143 133.99C167.51 134.557 166.957 135.214 166.264 135.975L163.693 138.751L163.384 194.697L163.179 250.643H253.68H344.181L343.975 194.697L343.667 138.751L341.095 135.975ZM342.124 396.371C344.078 393.182 344.181 390.817 344.181 337.751V282.524H253.68H163.179V337.751C163.179 390.817 163.282 393.182 165.236 396.371C166.264 398.222 168.732 400.484 170.583 401.513C173.772 403.261 178.914 403.364 253.68 403.364C328.446 403.364 333.588 403.261 336.776 401.513C338.627 400.484 341.095 398.222 342.124 396.371ZM314.357 464.555V449.643V434.731H253.68H193.003V449.643V464.555H253.68H314.357Z" fill="#4465DC"/>
<path fill-rule="evenodd" clip-rule="evenodd" d="M165.364 13.0784C167.112 11.2272 169.375 9.37604 170.506 8.96466C171.637 8.45047 208.763 8.03906 253.088 8.03906C327.971 7.95076 335.523 7.71082 339.612 11.3557C340.285 11.9558 340.865 12.6611 341.635 13.4897C345.235 17.2949 345.852 26.5507 342.869 31.3842C340.607 34.9837 335.156 38.7888 332.277 38.7888C330.528 38.7888 330.426 40.9485 330.426 69.0244V99.1571L334.086 99.5294H172.502L176.162 99.1571V69.1272V38.9945L173.077 38.4803C171.432 38.0689 168.244 36.2178 166.187 34.2638C162.382 30.7672 162.279 30.5615 162.279 23.4654C162.279 16.8835 162.587 16.0608 165.364 13.0784ZM298.544 99.4656V69.1272V38.7888H253.294H208.044V69.1272V99.4656H222.956H237.868V89.3871C237.868 81.2626 238.279 78.7944 239.925 76.0177C244.244 68.9216 254.22 66.3505 261.316 70.6699C267.178 74.2693 268.72 78.0745 268.72 89.3871V99.4656H283.632H298.544Z" fill="white"/>
</svg>
