<svg width="500" height="500" viewBox="0 0 500 500" fill="none" xmlns="http://www.w3.org/2000/svg">
<g clip-path="url(#clip0_605_6936)">
<path d="M221 208V229H200.5H180V250.5V272H200.5H221V292.5V313H242.5H264V292.5V272H283.5H303V250.5V229H283.5H264V208V187H242.5H221V208Z" fill="white"/>
<path fill-rule="evenodd" clip-rule="evenodd" d="M64 98.4851L152.8 64.4625C201.6 45.8535 242.3 30.7219 243.1 31.0039C243.9 31.2858 284.1 46.5114 332.4 64.9325L420.1 98.3911V107.79V199.519V208.917C420.1 292.282 419.8 311.643 418.6 318.974C413.5 350.835 398 375.083 372.6 391.06C369.3 393.128 338.6 411.361 304.4 431.662L242.1 468.504L179.9 431.662C145.6 411.455 114.9 393.128 111.6 391.06C88.4 376.493 74.1 356.004 66.8 326.963C64.7058 318.715 64.7 316.729 64.4025 213.998L64.4 213.147L64 107.884L64.0357 107.87L64 98.4851ZM93.1 126.775V205.252C93.1 263.523 93.5 295.948 94.2 301.587C97.3 324.989 108.6 345.478 124.4 356.004C127.8 358.26 155.7 374.989 186.4 393.128L242.1 426.117L299.4 392.188C330.8 373.579 359 356.568 361.9 354.5C376.5 343.974 387.1 323.955 390 301.587C390.7 295.948 391.1 263.523 391.1 205.252V126.775L317.9 98.861C277.6 83.4475 243.9 70.6655 243.1 70.4776C242.3 70.1956 208.2 82.7896 167.4 98.3911L93.1 126.775Z" fill="#4465DC"/>
</g>
<defs>
<clipPath id="clip0_605_6936">
<rect width="500" height="500" fill="white"/>
</clipPath>
</defs>
</svg>
