<svg width="500" height="500" viewBox="0 0 500 500" fill="none" xmlns="http://www.w3.org/2000/svg">
<g clip-path="url(#clip0_605_6919)">
<path fill-rule="evenodd" clip-rule="evenodd" d="M154.88 42.2264C156.08 40.2264 158.08 38.6264 160.08 38.0264C164.78 36.7264 335.28 36.6264 340.08 37.9264C342.08 38.5264 344.68 40.1264 345.88 41.6264C347.78 44.0264 347.88 45.5264 347.88 68.0264V75.0264V91.9264H365.88C380.08 91.9264 384.58 92.2264 386.88 93.4264C392.78 96.5264 392.88 96.9264 392.88 140.926V147.926V180.926H427.38C456.38 180.926 462.48 181.126 464.88 182.426C465.706 182.852 466.419 183.065 467.034 183.439C470.703 185.668 470.891 193.625 470.885 286.739C470.886 299.763 470.881 314.575 470.88 331.426C470.881 348.277 470.886 363.09 470.885 376.114C470.891 469.228 470.703 477.185 467.034 479.414C466.419 479.788 465.706 480 464.88 480.426C462.28 481.726 437.58 481.926 250.18 481.926C84.0803 481.926 37.8803 481.626 35.9803 480.626C34.6803 480.026 32.5803 478.126 31.4803 476.626L29.3803 473.826L29.0803 338.626C29.0208 316.492 28.9967 295.393 29.0001 276.61C28.9916 228.597 29.1587 193.9 29.3803 192.126C29.7803 189.426 31.0803 186.626 32.8803 184.626L35.6803 181.426L71.7803 181.126L107.88 180.826V148.326V141.326C107.88 107.326 108.08 101.226 109.48 98.4264C112.18 92.7264 115.38 91.9264 135.28 91.9264H152.88V75.6264V68.6264C152.88 47.3264 153.08 45.1264 154.88 42.2264ZM250.88 91.9264H325.88V82.9264V75.9264V66.9264H250.88H175.88V75.9264V82.9264V91.9264H250.88ZM369.18 443.626C369.58 439.126 369.88 363.326 369.88 275.126V121.926H250.38H130.88V283.426V290.426V451.926H160.38H189.88V425.426V418.426C189.88 382.826 190.08 381.426 194.78 378.226C197.18 376.526 201.58 376.426 246.88 376.126C274.08 375.926 298.38 376.126 300.78 376.426C303.68 376.926 306.18 378.026 308.08 379.926L310.88 382.726V389.726V417.326V424.326V451.926H339.78H368.58L369.18 443.626ZM79.8803 451.926H107.88V334.926V327.926V210.926H79.8803H51.8803V327.926V334.926V451.926H79.8803ZM420.38 451.926H447.88V334.926V327.926V210.926H420.38H392.88V327.926V334.926V451.926H420.38ZM250.88 449.926H288.88V431.426V424.426V405.926H250.88H212.88V424.426V431.426V449.926H250.88Z" fill="#4465DC"/>
<path d="M221 208V229H200.5H180V250.5V272H200.5H221V292.5V313H242.5H264V292.5V272H283.5H303V250.5V229H283.5H264V208V187H242.5H221V208Z" fill="white"/>
</g>
<defs>
<clipPath id="clip0_605_6919">
<rect width="500" height="500" fill="white"/>
</clipPath>
</defs>
</svg>
