<svg width="500" height="500" viewBox="0 0 500 500" fill="none" xmlns="http://www.w3.org/2000/svg">
<g clip-path="url(#clip0_605_6919)">
<path fill-rule="evenodd" clip-rule="evenodd" d="M154.88 42.2264C156.08 40.2264 158.08 38.6264 160.08 38.0264C164.781 36.7264 335.281 36.6264 340.081 37.9264C342.081 38.5264 344.681 40.1264 345.881 41.6264C347.781 44.0264 347.881 45.5264 347.881 68.0264V75.0264V91.9264H365.881C380.081 91.9264 384.581 92.2264 386.881 93.4264C392.781 96.5264 392.881 96.9264 392.881 140.926V147.926V180.926H427.38C456.38 180.926 462.48 181.126 464.88 182.426C465.707 182.852 466.42 183.065 467.035 183.439C470.703 185.668 470.891 193.625 470.885 286.736C470.886 299.761 470.881 314.574 470.881 331.426C470.881 348.279 470.886 363.092 470.885 376.117C470.891 469.228 470.703 477.185 467.035 479.414C466.42 479.788 465.707 480 464.88 480.426C462.281 481.726 437.581 481.926 250.18 481.926C84.0805 481.926 37.8805 481.626 35.9805 480.626C34.6805 480.026 32.5805 478.126 31.4805 476.626L29.3805 473.826L29.0805 338.626C29.021 316.492 28.9969 295.394 29.0003 276.61C28.9918 228.597 29.1588 193.9 29.3805 192.126C29.7805 189.426 31.0805 186.626 32.8805 184.626L35.6805 181.426L71.7805 181.126L107.881 180.826V148.326V141.326C107.881 107.326 108.08 101.226 109.48 98.4264C112.18 92.7264 115.381 91.9264 135.28 91.9264H152.88V75.6264V68.6264C152.88 47.3264 153.08 45.1264 154.88 42.2264ZM250.881 91.9264H325.881V82.9264V75.9264V66.9264H250.881H175.88V75.9264V82.9264V91.9264H250.881ZM369.181 443.626C369.581 439.126 369.881 363.326 369.881 275.126V121.926H250.381H130.881V283.426V290.426V451.926H160.38H189.88V425.426V418.426C189.88 382.826 190.08 381.426 194.78 378.226C197.18 376.526 201.581 376.426 246.881 376.126C274.081 375.926 298.381 376.126 300.781 376.426C303.681 376.926 306.181 378.026 308.081 379.926L310.881 382.726V389.726V417.326V424.326V451.926H339.781H368.581L369.181 443.626ZM79.8805 451.926H107.881V334.926V327.926V210.926H79.8805H51.8805V327.926V334.926V451.926H79.8805ZM420.38 451.926H447.88V334.926V327.926V210.926H420.38H392.881V327.926V334.926V451.926H420.38ZM250.881 449.926H288.881V431.426V424.426V405.926H250.881H212.88V424.426V431.426V449.926H250.881Z" fill="#4465DC"/>
<path d="M221 208V229H200.5H180V250.5V272H200.5H221V292.5V313H242.5H264V292.5V272H283.5H303V250.5V229H283.5H264V208V187H242.5H221V208Z" fill="white"/>
</g>
<defs>
<clipPath id="clip0_605_6919">
<rect width="500" height="500" fill="white"/>
</clipPath>
</defs>
</svg>
