<svg width="500" height="500" viewBox="0 0 500 500" fill="none" xmlns="http://www.w3.org/2000/svg">
<g clip-path="url(#clip0_605_6810)">
<path d="M166.163 95.2566C162.163 98.0147 159.063 104.408 159.063 110.301C159.063 115.692 161.363 122.336 163.963 124.593C166.063 126.473 166.063 126.849 165.863 175.617L165.563 224.636L144.663 207.21C122.363 188.53 118.963 186.65 112.863 189.909C106.663 193.169 44.863 245.572 42.963 249.333C41.163 252.593 41.063 256.73 41.063 325.056V397.267L31.663 397.894C24.063 398.396 21.663 399.022 19.163 401.279C10.863 408.676 10.963 425.099 19.363 431.493C22.463 434 26.163 434 250.063 434C473.963 434 477.663 434 480.763 431.493C489.163 425.099 489.263 408.676 480.963 401.279C478.463 399.022 476.063 398.396 468.463 397.894L459.063 397.267V349.628V301.988L462.563 297.224C465.563 292.961 466.063 291.457 466.063 285.941C466.063 278.043 463.463 272.15 458.663 269.267C455.663 267.512 447.663 267.261 387.663 267.261H320.063V196.554C320.063 134.998 320.263 125.721 321.563 125.094C324.063 123.966 327.063 116.444 327.063 111.429C327.063 104.785 324.563 98.5162 320.563 95.5074C317.363 93 315.763 93 243.463 93C173.763 93 169.363 93.1254 166.163 95.2566ZM297.063 263.5V330.572V397.643H243.063H185.063V263.5V119.357H243.063H297.063V191.428V263.5ZM144.363 250.713L166.063 268.891V333.33V397.643H117.563H69.063V333.33L69.163 269.142L93.363 248.957C117.163 229.024 117.563 218.648 120.063 220.654C121.463 221.657 132.363 240.808 144.363 250.713ZM431.063 350.631V397.643H375.563H320.063V350.631V303.618H375.563H431.063V350.631Z" fill="#4465DC"/>
<path d="M225.263 154.305C213.463 158.066 211.263 180.632 221.963 187.653C224.363 189.157 228.663 189.533 243.063 189.533C257.463 189.533 261.763 189.157 264.163 187.653C273.163 181.76 273.363 163.457 264.363 156.06C262.063 154.179 259.163 153.803 245.063 153.553C235.963 153.427 227.063 153.803 225.263 154.305Z" fill="#4465DC"/>
<path d="M223.563 216.362C218.263 219.371 215.763 223.884 215.263 231.406C214.963 236.922 215.263 239.179 216.963 242.564C220.563 249.96 223.663 250.963 243.063 250.963C262.363 250.963 265.563 249.96 269.063 242.814C272.163 236.671 271.763 227.143 268.363 222.003C263.963 215.484 260.963 214.607 242.863 214.607C231.563 214.732 225.663 215.233 223.563 216.362Z" fill="#4465DC"/>
<path d="M222.363 278.043C220.563 279.171 218.163 282.054 216.963 284.436C214.063 290.329 214.663 300.86 218.163 305.624C222.463 311.516 225.663 312.393 243.063 312.393C260.963 312.393 263.963 311.516 268.363 304.997C273.763 296.973 271.163 282.556 263.663 278.043C258.763 275.159 227.063 275.159 222.363 278.043Z" fill="#4465DC"/>
<path d="M221.363 339.974C217.363 342.983 215.063 348.374 215.063 355.018C215.063 361.538 217.163 366.552 221.263 370.313C224.463 373.071 225.263 373.197 243.063 373.197C259.263 373.197 261.963 372.946 264.363 370.94C273.363 363.543 273.163 345.24 264.163 339.347C261.763 337.843 257.463 337.467 242.863 337.467C226.463 337.467 224.263 337.718 221.363 339.974Z" fill="#4465DC"/>
<path d="M97.4629 277.792C87.0629 283.559 87.0629 304.119 97.3629 310.011C100.963 312.017 104.063 312.393 118.063 312.393C136.163 312.393 139.463 311.39 143.363 304.621C146.263 299.606 146.663 290.203 144.163 285.063C139.963 276.914 137.663 276.037 118.063 276.037C105.663 276.162 99.6629 276.664 97.4629 277.792Z" fill="#4465DC"/>
<path d="M96.3631 339.974C91.6631 343.485 89.6631 348.123 89.6631 355.144C89.6631 361.788 91.5631 366.051 96.4631 370.564C98.9631 372.946 100.563 373.197 117.363 373.197C133.863 373.197 135.863 372.946 139.063 370.689C148.463 363.794 148.063 345.24 138.363 339.347C135.963 337.843 131.463 337.467 117.363 337.467C101.463 337.467 99.2631 337.718 96.3631 339.974Z" fill="#4465DC"/>
<path d="M349.063 320.793C346.763 321.921 343.063 326.435 341.463 330.196C339.363 335.336 339.463 366.301 341.763 372.194C343.963 378.211 348.363 381.346 354.363 381.346C360.463 381.346 364.663 378.337 367.163 372.319C369.863 365.8 369.963 336.589 367.263 329.945C364.163 322.047 355.663 317.784 349.063 320.793Z" fill="#4465DC"/>
<path d="M389.163 322.172C383.163 326.184 382.063 330.572 382.063 351.007C382.063 364.797 382.463 369.812 383.563 372.695C385.863 378.211 390.663 381.346 396.763 381.346C401.163 381.346 402.563 380.719 405.563 377.459C410.263 372.194 411.363 366.552 410.863 347.496C410.663 334.96 410.163 331.073 408.763 328.315C404.663 320.292 395.863 317.659 389.163 322.172Z" fill="#4465DC"/>
<path d="M366.762 144.454C360.744 145.569 355.745 148.18 351.065 152.701C339.857 163.495 336.928 180.179 343.36 196.258C349.186 210.809 363.132 224.851 383.224 236.377C388.063 239.147 395.832 243 396.597 243C397.456 243 407.104 238.033 412.135 234.976C423.565 228.131 432.863 220.489 439.836 212.242C449.42 200.971 454.164 187.662 452.89 175.403C451.967 166.169 448.369 158.496 442.287 152.669C438.084 148.657 434.009 146.333 428.66 144.868C424.871 143.849 418.471 143.849 414.905 144.868C411.657 145.792 408.982 147.033 406.085 148.944C403.761 150.44 399.016 154.866 397.456 156.936L396.692 157.955L394.845 155.726C393.826 154.516 391.948 152.637 390.674 151.523C383.415 145.378 375.104 142.894 366.762 144.454ZM376.187 159.26C378.702 160.247 381.886 162.762 384.402 165.755C385.612 167.156 388.063 169.863 389.878 171.71C392.903 174.83 393.317 175.148 394.909 175.499C396.246 175.817 396.979 175.817 398.411 175.499C400.099 175.148 400.386 174.925 403.506 171.741C405.321 169.863 407.804 167.125 409.014 165.66C412.644 161.361 416.592 158.846 420.477 158.4C426.208 157.732 433.117 162.157 436.27 168.494C438.244 172.569 438.721 174.607 438.689 179.479C438.689 184.064 438.116 186.897 436.333 191.068C431.302 202.881 418.535 214.981 400.545 224.947L396.724 227.08L393.699 225.424C379.084 217.591 366.316 206.702 360.012 196.672C358.325 193.998 356.191 189.19 355.427 186.324C354.472 182.79 354.376 176.422 355.236 173.27C356.605 168.08 360.267 162.922 364.247 160.534C367.972 158.305 372.493 157.795 376.187 159.26Z" fill="white"/>
</g>
<defs>
<clipPath id="clip0_605_6810">
<rect width="500" height="500" fill="white"/>
</clipPath>
</defs>
</svg>
