<svg width="500" height="500" viewBox="0 0 500 500" fill="none" xmlns="http://www.w3.org/2000/svg">
<path d="M228.806 41.505C177.356 44.2429 134.691 54.8523 96.2461 74.4739C36.6968 104.933 12.6261 141.324 17.6455 193.116C19.1286 208.631 23.9199 232.588 27 241.03C29.7379 248.217 36.9249 256.658 43.3134 260.081C47.192 262.134 49.8159 262.59 58.2577 262.59C67.27 262.476 70.236 261.906 82.2144 257.799C89.7436 255.175 95.9039 253.122 96.0179 253.236C96.0179 253.35 87.6902 280.615 77.5371 313.926C67.27 347.123 58.6 377.012 58.1437 380.206C55.748 400.056 70.0079 421.845 89.2873 427.435C92.9378 428.576 94.1927 429.602 94.7631 431.884C95.7898 436.219 101.836 445.117 106.285 449.11C112.103 454.129 120.317 457.894 128.645 459.377C147.354 462.685 167.203 452.532 175.075 435.649L177.813 429.717H250.481H323.15L325.888 435.649C333.759 452.532 353.609 462.685 372.318 459.377C380.646 457.894 388.859 454.129 394.677 449.11C399.126 445.117 405.173 436.219 406.199 431.884C406.77 429.602 408.025 428.576 411.675 427.435C431.981 421.389 446.127 398.573 442.248 377.925C441.336 373.019 407.568 260.537 404.83 253.464C404.602 252.78 411.219 254.491 419.547 257.343C432.78 261.906 435.974 262.59 444.416 262.59C452.173 262.59 455.253 262.02 459.817 259.967C472.365 254.149 475.445 248.559 479.21 224.944C488.222 167.562 484.344 140.868 463.467 115.086C445.443 92.8406 401.294 67.6291 358.856 55.4227C321.667 44.8133 270.331 39.2234 228.806 41.505ZM297.71 71.9641C328.511 75.7288 355.89 82.8017 379.847 93.0688C403.119 103.108 428.331 118.965 438.027 129.802C455.71 149.196 458.904 168.361 452.401 212.966C448.979 235.782 449.435 234.641 444.986 234.641C441.564 234.641 412.816 225.287 389.772 216.731C376.311 211.597 376.653 212.966 378.25 179.199C379.847 147.142 379.163 141.096 372.432 130.715C365.359 119.535 357.716 115.885 329.424 110.181C266.795 97.2897 239.644 97.0616 180.322 108.698C148.951 114.744 140.281 118.28 133.094 127.521C124.538 138.244 123.397 145.659 124.88 180.339C125.564 195.626 125.564 207.49 124.994 209.087C124.424 210.456 122.256 212.624 120.203 213.651C114.385 216.731 70.8064 232.245 63.2772 234.071C56.6606 235.554 56.4325 235.554 54.8354 233.044C53.8086 231.561 51.8693 224.944 50.2722 218.214C40.2332 173.495 44.9105 150.222 68.5249 127.521C100.467 96.8334 157.849 75.0443 220.25 69.9107C232.685 68.884 283.564 70.253 297.71 71.9641ZM283.564 130.373C298.394 132.312 341.174 140.64 344.14 142.351C345.281 142.921 347.22 144.747 348.475 146.344C350.529 148.968 350.871 151.021 350.871 160.604V171.898H251.622H152.373V161.06C152.373 148.968 153.628 145.089 158.305 142.693C165.036 139.271 219.109 129.688 240.214 128.205C249.454 127.521 268.62 128.547 283.564 130.373ZM349.502 206.806C349.73 219.012 357.259 232.131 367.184 237.493L371.063 239.546L393.08 311.416C416.466 387.964 416.352 387.393 411.333 394.352C406.085 401.653 417.151 401.197 250.139 401.197H97.9573L94.1927 398.687C89.8577 395.721 86.2071 389.447 86.2071 385.112C86.2071 382.716 104.916 319.972 125.679 253.236L129.557 240.573L135.718 237.151C146.669 230.876 153.514 219.012 153.514 206.121V199.277H251.508H349.388L349.502 206.806Z" fill="#4465DC"/>
<path d="M176.698 237.867C169.397 241.518 165.861 247.564 165.861 256.006C165.861 261.367 166.431 263.649 168.827 267.185C175.786 277.909 191.529 279.506 200.085 270.608C213.204 256.918 203.963 235.471 185.026 235.471C183.201 235.471 179.436 236.612 176.698 237.867Z" fill="white"/>
<path d="M240.354 237.981C225.296 245.624 225.296 266.387 240.354 273.916C243.092 275.399 247.199 276.54 249.481 276.54C251.762 276.54 255.869 275.399 258.607 273.916C273.666 266.387 273.666 245.624 258.607 237.981C255.869 236.612 251.762 235.471 249.481 235.471C247.199 235.471 243.092 236.612 240.354 237.981Z" fill="white"/>
<path d="M306.065 236.612C298.65 238.894 292.832 247.45 292.832 256.006C292.832 274.258 314.621 283.271 327.512 270.38C334.47 263.421 335.155 251.671 329.223 243.229C324.774 237.068 314.507 234.102 306.065 236.612Z" fill="white"/>
<path d="M176.699 300.154C164.378 306.2 161.754 323.084 171.565 332.781C178.98 340.196 191.187 340.766 199.058 334.15C209.896 325.024 207.956 306.657 195.522 300.611C189.59 297.759 181.946 297.53 176.699 300.154Z" fill="white"/>
<path d="M240.925 299.812C228.148 305.402 225.182 323.655 235.449 333.237C250.964 347.953 274.692 332.781 268.874 311.904C267.62 307.227 261.916 301.181 257.124 299.47C252.789 297.759 245.146 297.987 240.925 299.812Z" fill="white"/>
<path d="M303.327 300.611C291.12 306.771 289.067 325.024 299.562 333.922C309.829 342.478 325.002 339.512 331.276 327.533C333.786 322.856 333.786 313.502 331.276 308.824C326.257 299.242 313.366 295.477 303.327 300.611Z" fill="white"/>
</svg>
