<svg width="500" height="500" viewBox="0 0 500 500" fill="none" xmlns="http://www.w3.org/2000/svg">
<g clip-path="url(#clip0_631_6215)">
<path d="M254.698 30.3233C255.092 30.3961 255.447 30.4575 255.762 30.508C256.039 29.8122 256.377 28.9309 256.765 27.8942C257.777 25.1934 259.091 21.5386 260.482 17.6032C263.092 10.1075 264.66 5.72818 266.004 3.10464C266.703 1.74078 267.446 0.634186 268.405 -0.240173C269.382 -1.13025 270.4 -1.6095 271.328 -1.9762C278.066 -4.7312 286.164 -1.73831 288.299 5.41058C288.596 6.3584 288.85 7.3562 288.902 8.54808C288.954 9.73347 288.799 10.9513 288.476 12.3747C287.852 15.1171 286.456 19.184 284.033 26.1211C284.032 26.1224 284.032 26.1238 284.031 26.1251L279.677 38.7115L282.029 39.6613C292.045 43.6873 312.611 54.6526 322.187 61.0042L322.196 61.0103C357.413 84.5531 387.902 119.097 404.121 153.977C416.623 180.836 422.096 206.371 421.999 236.893C421.999 246.555 421.851 252.518 420.847 256.44C420.313 258.526 419.501 260.211 418.242 261.632C417.026 263.005 415.544 263.954 414.011 264.798C414.008 264.799 414.005 264.801 414.002 264.803L409.883 267.102L408.238 268.02L406.696 266.937L403.138 264.437L403.1 264.41L403.063 264.382C401.112 262.918 395.126 258.284 389.841 254.152L389.828 254.142L389.815 254.131C376.741 243.672 364.855 238.084 346.79 233.943C342.211 232.912 332.561 232.19 322.389 231.974C312.245 231.758 302.06 232.054 296.472 232.924C296.471 232.924 296.47 232.924 296.47 232.924L287.341 234.366L285.858 234.6L284.782 233.554L274.596 223.656C274.595 223.655 274.594 223.655 274.593 223.654C269.108 218.358 260.41 211.182 255.323 207.853L255.31 207.844L255.296 207.835C250.763 204.797 244.215 201.082 238.434 198.12C235.548 196.642 232.897 195.373 230.82 194.482C230.027 194.142 229.341 193.867 228.771 193.658C228.534 194.154 228.254 194.783 227.929 195.56C226.815 198.23 225.326 202.289 223.456 207.756L223.451 207.77C221.863 212.342 220.296 216.801 219.041 220.29C217.829 223.656 216.815 226.386 216.377 227.263C213.764 232.489 207.669 234.414 201.956 232.638C199.768 231.991 197.587 231.145 195.966 229.592C194.182 227.882 193.419 225.673 193.35 223.081C193.283 220.619 193.833 217.628 194.804 213.996C195.787 210.321 197.27 205.749 199.219 200.045L199.223 200.036L204.473 184.843L201.306 184.134L201.303 184.133C173.473 177.864 153.466 177.521 131.119 182.873C131.118 182.873 131.117 182.873 131.116 182.874L121.988 185.084L120.33 185.485L119.138 184.266L114.81 179.842L114.801 179.833L114.792 179.824C112.638 177.583 105.575 172.16 99.048 167.841L99.0409 167.837L99.0338 167.832C70.6119 148.789 48.2228 142.353 21.9698 145.052C15.3078 145.761 10.6495 146.044 7.19496 145.184C5.33951 144.722 3.79134 143.93 2.43658 142.739C1.13465 141.595 0.120402 140.176 -0.8093 138.628C-2.01333 136.674 -2.81225 134.583 -2.97099 132.196C-3.12839 129.829 -2.64147 127.394 -1.61981 124.766C0.377164 119.629 4.66501 113.169 11.4704 104.111C40.255 65.7637 81.5278 38.6374 128.071 27.4142C149.132 22.2466 157.941 21.3665 185.422 21.3665L185.432 21.3665C213.324 21.4634 223.289 22.5421 247.215 28.6689C250.11 29.3806 252.76 29.9657 254.698 30.3233ZM217.707 47.5323L217.701 47.5315C204.155 45.6369 179.302 44.9765 167.459 46.1983L167.449 46.1994L167.438 46.2004C162.548 46.6707 152.746 48.0971 145.726 49.5201L145.709 49.5236L145.691 49.5269C100.388 58.1516 57.6996 83.7502 32.1283 117.531L32.1281 117.531L30.4852 119.701L38.1356 120.031L38.1391 120.031C58.125 120.917 73.3413 125.082 93.0007 134.863L93.0061 134.865C102.57 139.647 118.704 149.65 125.826 155.286C125.83 155.289 125.833 155.292 125.837 155.294L128.208 157.138L134.953 155.853L134.963 155.852C140.394 154.836 150.752 154.286 160.945 154.19C171.146 154.094 181.633 154.448 187.336 155.357L187.346 155.359C228.536 162.062 264.623 178.024 288.439 200.265L288.448 200.273L295.6 207.005L301.402 206.309C301.405 206.309 301.408 206.308 301.411 206.308C306.626 205.651 316.112 205.59 325.465 205.915C334.835 206.24 344.443 206.965 349.915 207.969C366.806 211.014 384.616 217.98 397.03 226.422L397.037 226.426L397.824 226.965V226.691C397.824 213.201 393.215 190.973 386.87 174.495L386.869 174.494C375.083 143.849 349.99 112.067 319.495 89.0769C290.773 67.5604 254.137 52.5603 217.707 47.5323Z" fill="#4465DC" stroke="#4465DC" stroke-width="6"/>
<path d="M118.11 246.824L118.114 246.823C136.4 244.736 153.734 248.543 172.848 258.737L172.855 258.741L180.608 262.909L188.267 258.746L188.279 258.74L188.292 258.733C195.789 254.767 201.443 252.14 207.034 250.331C212.645 248.514 218.098 247.552 225.168 246.821C251.882 244.041 275.878 254.586 290.376 275.682L290.38 275.688L290.384 275.694C297.735 286.522 301.108 295.227 304.327 311.909C308.968 335.606 303.95 362.33 291.084 382.123L291.082 382.126C279.054 400.563 264.745 412.912 232.422 433.078L232.419 433.08C224.557 437.97 211.599 446.32 203.739 451.592L203.73 451.598C195.899 456.803 191.138 459.855 187.727 461.465C185.981 462.289 184.47 462.795 182.986 463C181.482 463.208 180.152 463.086 178.816 462.841L178.784 462.835L178.753 462.829C178.262 462.725 177.721 462.512 177.254 462.311C176.743 462.09 176.142 461.803 175.477 461.467C174.144 460.792 172.468 459.876 170.571 458.788C166.776 456.611 162.024 453.702 157.228 450.553C153.173 447.931 148.204 444.706 143.189 441.451C136.41 437.051 129.546 432.596 124.737 429.501L124.728 429.495C90.5753 407.305 75.9846 393.546 65.5847 372.944L65.5841 372.943C53.4345 348.841 51.8841 322.473 61.0203 295.062C69.957 268.056 91.2995 249.925 118.11 246.824ZM160.928 280.625L160.917 280.619L160.906 280.612C155.791 277.676 149.056 274.509 146.015 273.521C142.211 272.361 136.589 271.585 130.927 271.35C125.234 271.113 119.822 271.436 116.422 272.308C103.347 275.667 92.6829 284.746 86.7283 297.846L86.7249 297.853L86.7213 297.861C83.7763 304.226 82.0631 308.809 81.061 313.763C80.0541 318.74 79.7403 324.211 79.7403 332.391C79.7403 339.118 79.7921 342.704 80.1307 345.492C80.4575 348.183 81.0555 350.162 82.2915 353.679L82.2928 353.683C86.2848 365.102 91.4426 373.059 101.505 383.122C110.794 392.318 113.512 394.278 165.049 427.704C165.049 427.705 165.05 427.705 165.05 427.705L180.47 437.662L186.588 433.426C186.589 433.425 186.59 433.424 186.592 433.424C190.778 430.503 203.118 422.406 214.187 415.476C241.122 398.353 249.365 392.425 257.8 384.084C274.004 367.878 281.013 351.665 281.199 330.446L281.2 330.441C281.387 312.733 276.444 298.031 267.975 287.804C259.535 277.613 247.479 271.713 233.022 271.713C221.88 271.713 212.669 274.261 200.648 280.741L200.646 280.742C192.428 285.164 186.541 287.655 180.543 287.628C174.533 287.6 168.812 285.048 160.928 280.625Z" fill="white" stroke="white" stroke-width="5"/>
</g>
<defs>
<clipPath id="clip0_631_6215">
<rect width="500" height="500" fill="white"/>
</clipPath>
</defs>
</svg>
