<svg width="500" height="500" viewBox="0 0 500 500" fill="none" xmlns="http://www.w3.org/2000/svg">
<g clip-path="url(#clip0_628_6215)">
<rect width="500" height="500" fill="#0A184E"/>
<path d="M294.698 54.3233C295.092 54.3961 295.447 54.4575 295.762 54.508C296.039 53.8122 296.377 52.9309 296.765 51.8942C297.777 49.1934 299.091 45.5386 300.482 41.6032C303.092 34.1075 304.66 29.7282 306.004 27.1046C306.703 25.7408 307.446 24.6342 308.405 23.7598C309.382 22.8698 310.4 22.3905 311.328 22.0238C318.066 19.2688 326.164 22.2617 328.299 29.4106C328.596 30.3584 328.85 31.3562 328.902 32.5481C328.954 33.7335 328.799 34.9513 328.476 36.3747C327.852 39.1171 326.456 43.184 324.033 50.1211C324.032 50.1224 324.032 50.1238 324.031 50.1251L319.677 62.7115L322.029 63.6613C332.045 67.6873 352.611 78.6526 362.187 85.0042L362.196 85.0103C397.413 108.553 427.902 143.097 444.121 177.977C456.623 204.836 462.096 230.371 461.999 260.893C461.999 270.555 461.851 276.518 460.847 280.44C460.313 282.526 459.501 284.211 458.242 285.632C457.026 287.005 455.544 287.954 454.011 288.798C454.008 288.799 454.005 288.801 454.002 288.803L449.883 291.102L448.238 292.02L446.696 290.937L443.138 288.437L443.1 288.41L443.063 288.382C441.112 286.918 435.126 282.284 429.841 278.152L429.828 278.142L429.815 278.131C416.741 267.672 404.855 262.084 386.79 257.943C382.211 256.912 372.561 256.19 362.389 255.974C352.245 255.758 342.06 256.054 336.472 256.924C336.471 256.924 336.47 256.924 336.47 256.924L327.341 258.366L325.858 258.6L324.782 257.554L314.596 247.656C314.595 247.655 314.594 247.655 314.593 247.654C309.108 242.358 300.41 235.182 295.323 231.853L295.31 231.844L295.296 231.835C290.763 228.797 284.215 225.082 278.434 222.12C275.548 220.642 272.897 219.373 270.82 218.482C270.027 218.142 269.341 217.867 268.771 217.658C268.534 218.154 268.254 218.783 267.929 219.56C266.815 222.23 265.326 226.289 263.456 231.756L263.451 231.77C261.863 236.342 260.296 240.801 259.041 244.29C257.829 247.656 256.815 250.386 256.377 251.263C253.764 256.489 247.669 258.414 241.956 256.638C239.768 255.991 237.587 255.145 235.966 253.592C234.182 251.882 233.419 249.673 233.35 247.081C233.283 244.619 233.833 241.628 234.804 237.996C235.787 234.321 237.27 229.749 239.219 224.045L239.223 224.036L244.473 208.843L241.306 208.134L241.303 208.133C213.473 201.864 193.466 201.521 171.119 206.873C171.118 206.873 171.117 206.873 171.116 206.874L161.988 209.084L160.33 209.485L159.138 208.266L154.81 203.842L154.801 203.833L154.792 203.824C152.638 201.583 145.575 196.16 139.048 191.841L139.041 191.837L139.034 191.832C110.612 172.789 88.2228 166.353 61.9698 169.052C55.3078 169.761 50.6495 170.044 47.195 169.184C45.3395 168.722 43.7913 167.93 42.4366 166.739C41.1347 165.595 40.1204 164.176 39.1907 162.628C37.9867 160.674 37.1877 158.583 37.029 156.196C36.8716 153.829 37.3585 151.394 38.3802 148.766C40.3772 143.629 44.665 137.169 51.4704 128.111C80.255 89.7637 121.528 62.6374 168.071 51.4142C189.132 46.2466 197.941 45.3665 225.422 45.3665L225.432 45.3665C253.324 45.4634 263.289 46.5421 287.215 52.6689C290.11 53.3806 292.76 53.9657 294.698 54.3233ZM257.707 71.5323L257.701 71.5315C244.155 69.6369 219.302 68.9765 207.459 70.1983L207.449 70.1994L207.438 70.2004C202.548 70.6707 192.746 72.0971 185.726 73.5201L185.709 73.5236L185.691 73.5269C140.388 82.1516 97.6996 107.75 72.1283 141.531L72.1281 141.531L70.4852 143.701L78.1356 144.031L78.1391 144.031C98.125 144.917 113.341 149.082 133.001 158.863L133.006 158.865C142.57 163.647 158.704 173.65 165.826 179.286C165.83 179.289 165.833 179.292 165.837 179.294L168.208 181.138L174.953 179.853L174.963 179.852C180.394 178.836 190.752 178.286 200.945 178.19C211.146 178.094 221.633 178.448 227.336 179.357L227.346 179.359C268.536 186.062 304.623 202.024 328.439 224.265L328.448 224.273L335.6 231.005L341.402 230.309C341.405 230.309 341.408 230.308 341.411 230.308C346.626 229.651 356.112 229.59 365.465 229.915C374.835 230.24 384.443 230.965 389.915 231.969C406.806 235.014 424.616 241.98 437.03 250.422L437.037 250.426L437.824 250.965V250.691C437.824 237.201 433.215 214.973 426.87 198.495L426.869 198.494C415.083 167.849 389.99 136.067 359.495 113.077C330.773 91.5604 294.137 76.5603 257.707 71.5323Z" fill="#4465DC" stroke="#4465DC" stroke-width="6"/>
<path d="M158.11 270.824L158.114 270.823C176.4 268.736 193.734 272.543 212.848 282.737L212.855 282.741L220.608 286.909L228.267 282.746L228.279 282.74L228.292 282.733C235.789 278.767 241.443 276.14 247.034 274.331C252.645 272.514 258.098 271.552 265.168 270.821C291.882 268.041 315.878 278.586 330.376 299.682L330.38 299.688L330.384 299.694C337.735 310.522 341.108 319.227 344.327 335.909C348.968 359.606 343.95 386.33 331.084 406.123L331.082 406.126C319.054 424.563 304.745 436.912 272.422 457.078L272.419 457.08C264.557 461.97 251.599 470.32 243.739 475.592L243.73 475.598C235.899 480.803 231.138 483.855 227.727 485.465C225.981 486.289 224.47 486.795 222.986 487C221.482 487.208 220.152 487.086 218.816 486.841L218.784 486.835L218.753 486.829C218.262 486.725 217.721 486.512 217.254 486.311C216.743 486.09 216.142 485.803 215.477 485.467C214.144 484.792 212.468 483.876 210.571 482.788C206.776 480.611 202.024 477.702 197.228 474.553C193.173 471.931 188.204 468.706 183.189 465.451C176.41 461.051 169.546 456.596 164.737 453.501L164.728 453.495C130.575 431.305 115.985 417.546 105.585 396.944L105.584 396.943C93.4345 372.841 91.8841 346.473 101.02 319.062C109.957 292.056 131.3 273.925 158.11 270.824ZM200.928 304.625L200.917 304.619L200.906 304.612C195.791 301.676 189.056 298.509 186.015 297.521C182.211 296.361 176.589 295.585 170.927 295.35C165.234 295.113 159.822 295.436 156.422 296.308C143.347 299.667 132.683 308.746 126.728 321.846L126.725 321.853L126.721 321.861C123.776 328.226 122.063 332.809 121.061 337.763C120.054 342.74 119.74 348.211 119.74 356.391C119.74 363.118 119.792 366.704 120.131 369.492C120.458 372.183 121.056 374.162 122.291 377.679L122.293 377.683C126.285 389.102 131.443 397.059 141.505 407.122C150.794 416.318 153.512 418.278 205.049 451.704C205.049 451.705 205.05 451.705 205.05 451.705L220.47 461.662L226.588 457.426C226.589 457.425 226.59 457.424 226.592 457.424C230.778 454.503 243.118 446.406 254.187 439.476C281.122 422.353 289.365 416.425 297.8 408.084C314.004 391.878 321.013 375.665 321.199 354.446L321.2 354.441C321.387 336.733 316.444 322.031 307.975 311.804C299.535 301.613 287.479 295.713 273.022 295.713C261.88 295.713 252.669 298.261 240.648 304.741L240.646 304.742C232.428 309.164 226.541 311.655 220.543 311.628C214.533 311.6 208.812 309.048 200.928 304.625Z" fill="white" stroke="white" stroke-width="5"/>
</g>
<defs>
<clipPath id="clip0_628_6215">
<rect width="500" height="500" fill="white"/>
</clipPath>
</defs>
</svg>
