<svg width="349" height="483" viewBox="0 0 349 483" fill="none" xmlns="http://www.w3.org/2000/svg">
<path d="M158.61 1.09689C151.88 2.85724 146.453 6.2744 141.352 11.7625C135.924 17.6649 133.645 24.085 133.645 33.4045C133.645 44.5879 135.816 49.2476 145.693 59.3955C150.469 64.2624 154.268 68.6114 154.268 69.1292C154.268 69.6469 154.594 70.6824 154.92 71.5108C155.354 72.5463 153.834 73.4783 149.709 74.8244C139.398 78.0345 130.823 84.2475 125.07 92.8421C123.008 95.8451 115.192 115.52 105.206 143.167C95.546 169.366 87.9479 188.833 86.971 189.247C86.1026 189.765 83.1719 190.904 80.4583 191.939C69.6039 196.185 68.4099 198.049 45.7242 243.921C34.2185 267.117 23.7983 288.655 22.6043 291.762C18.2625 303.566 17.6113 311.332 17.5027 350.578V388.063L13.0524 391.894C7.29959 396.865 4.04327 401.835 1.87239 408.773C-0.624129 416.953 -0.624129 470.489 1.87239 475.563C5.45434 482.811 15.766 484.054 22.0616 478.151L25.1008 475.252V446.362C25.1008 413.95 25.535 411.983 32.6989 408.566C36.1723 406.909 40.8397 406.702 81.001 406.702C121.162 406.702 125.83 406.909 129.303 408.566C136.467 411.983 136.901 413.95 136.901 446.154C136.901 473.285 137.01 474.941 139.072 477.427C141.786 480.637 147.756 482.708 151.989 481.776C153.617 481.465 156.439 479.705 158.176 478.048L161.324 474.941V442.634V410.326L158.284 404.113C156.656 400.696 153.291 395.933 150.795 393.551C146.562 389.409 146.453 389.098 147.756 385.992C149.601 381.85 156.439 376.258 161.541 374.809C163.82 374.187 171.31 373.152 178.148 372.53C211.58 369.32 225.582 366.317 241.863 359.069C264.983 348.714 278.117 336.495 301.888 302.634C311.115 289.483 324.683 271.155 332.064 261.732C339.445 252.309 346.283 242.989 347.151 241.022C348.128 238.848 348.888 234.188 348.996 229.632C349.105 220.623 346.717 214.824 340.313 208.507C333.909 202.191 328.699 200.223 318.279 200.016L309.052 199.809L291.034 150.209C281.048 122.975 271.605 98.1232 269.868 95.1202C268.131 92.1173 264.115 87.354 260.967 84.6617C255.323 79.7948 245.12 74.3067 241.646 74.3067C240.344 74.3067 240.018 73.6854 240.669 71.925C241.972 67.9902 245.445 64.0552 251.307 59.8097C272.799 44.795 270.302 14.7655 246.748 3.68564L239.475 0.268494L201.485 0.0614014C173.698 -0.145698 162.192 0.164944 158.61 1.09689ZM235.025 25.0169C242.515 28.0199 242.515 36.8216 235.025 41.1707C226.667 46.1411 216.898 59.7061 215.379 68.4043L214.727 72.2357L197.903 72.0286L181.079 71.7179L179.559 66.1263C177.388 57.9458 173.155 51.2151 165.448 43.7595C159.696 38.2713 158.61 36.511 158.61 33.6116C158.61 29.4696 161.975 24.9134 165.448 24.2921C166.751 24.085 182.164 23.7743 199.64 23.6708C224.388 23.5672 232.203 23.8779 235.025 25.0169ZM234.7 97.1912C239.584 98.6409 245.988 103.404 248.05 107.339C249.353 109.617 269.976 165.534 282.893 201.88L286.475 211.821L277.14 217.309C271.93 220.312 262.378 226.214 255.866 230.46C249.353 234.706 240.561 239.676 236.328 241.54C223.628 247.132 188.568 256.865 165.665 261.111C155.137 263.078 133.645 265.874 129.303 265.874H126.155L125.83 239.158C125.504 213.788 125.396 212.339 123.008 207.783C121.597 205.09 118.883 201.155 116.821 198.877L113.239 194.839L128.76 152.176C137.335 128.774 145.151 108.064 146.236 106.304C148.733 102.265 152.532 99.4693 158.176 97.6054C163.712 95.7415 228.295 95.4309 234.7 97.1912ZM96.7399 214.099C100.648 216.067 101.19 221.14 100.973 247.96C100.756 272.605 100.756 273.847 103.144 278.093C106.075 283.478 112.479 288.034 119.317 289.587C127.024 291.347 157.199 287.827 185.095 281.821C201.485 278.404 228.947 270.637 240.561 266.185C252.175 261.836 256.408 259.557 271.496 249.72C288.212 238.951 313.503 224.454 316.976 223.833C319.364 223.315 320.449 223.833 322.295 226.007C323.597 227.561 324.248 229.424 323.923 230.46C323.489 231.392 317.627 239.469 310.68 248.271C303.734 257.072 290.708 274.883 281.591 287.723C263.789 312.989 257.711 320.134 247.291 327.59C229.924 340.016 211.688 345.4 178.148 348.196C154.92 350.164 145.151 353.374 135.273 362.279C129.737 367.249 122.791 377.811 122.791 381.229C122.791 382.678 118.774 382.885 82.5207 382.885H42.2508L42.685 346.332C43.1192 310.297 43.1192 309.779 45.9413 302.117C49.9574 290.933 86.7539 216.998 89.3589 214.824C91.8555 212.856 93.8093 212.649 96.7399 214.099Z" fill="#4465DC"/>
<path d="M103.036 426.259C96.957 429.459 95.1118 436.759 98.9108 442.559C101.299 446.159 104.772 447.759 110.525 447.759C113.456 447.759 115.192 446.959 118.015 444.359C121.162 441.459 121.705 440.259 121.705 436.359C121.705 429.959 117.58 425.759 110.851 425.159C107.703 424.859 104.881 425.259 103.036 426.259Z" fill="#4465DC"/>
<path d="M105.749 459.459C104.447 459.659 101.842 461.459 99.9963 463.359C89.2504 474.759 106.943 489.459 118.666 478.759C124.744 473.159 121.597 461.959 113.347 459.859C111.068 459.259 109.005 458.859 108.68 458.859C108.354 458.959 107.052 459.259 105.749 459.459Z" fill="#4465DC"/>
<path fill-rule="evenodd" clip-rule="evenodd" d="M168.409 118.301C168.206 118.542 168.04 120.993 168.04 123.748V128.757L177.19 129.053C184.846 129.3 186.832 129.575 189.346 130.737C193.108 132.476 196.16 135.428 197.556 138.679C198.27 140.341 198.831 141.391 198.532 142.055C198.091 143.036 195.771 143.171 189.29 143.186C188.666 143.185 188.016 143.185 187.336 143.185H183.336H172.04H168.04V147.079V150.973H172.04H183.61H187.61H199.179L199.167 152.433C199.133 156.548 195.234 162.97 191.311 165.371C186.701 168.192 184.761 168.677 176.508 169.075L168.313 169.469L168.156 174.336L168 179.203L173.281 186.018C177.95 192.043 194.521 214.729 199.735 222.234L201.657 225L205.579 224.888L205.657 225L212.077 224.816L218.496 224.632L209.401 211.652C199.353 197.314 193.828 189.811 188.569 183.363L185.081 179.087L189.716 178.317C197.255 177.064 202.875 174.289 207.395 169.589C210.224 166.645 213.341 160.63 214.099 156.65C214.455 154.777 214.865 152.733 215.009 152.108C215.243 151.098 216.085 150.973 222.61 150.973H225.948H229.948V147.097V143.221L222.498 143.041L215.048 142.86L214.291 139.343C213.397 135.189 211.924 132.083 209.266 128.745L207.328 126.311H214.664H218.664H226H230L229.838 122.255L229.675 118.199L201.226 118.031C196.92 118.005 192.816 117.996 189.126 118.001C177.34 117.986 168.575 118.103 168.409 118.301Z" fill="white"/>
</svg>
