<svg width="500" height="500" viewBox="0 0 500 500" fill="none" xmlns="http://www.w3.org/2000/svg">
<path fill-rule="evenodd" clip-rule="evenodd" d="M257.618 13.0004C261.303 13.0001 264.815 12.9998 268.16 13.0001C334.416 12.9962 341.648 13.0562 345.039 16.6952C345.452 17.1381 345.808 17.6339 346.206 18.1891C346.358 18.4005 346.516 18.6206 346.685 18.8497C348.62 21.4716 348.722 23.5893 349.231 68.6661L349.74 115.76L358.905 120.298C375.809 128.668 388.437 141.273 396.685 157.71C404.933 174.349 405.544 177.98 406.054 217.409L406.461 251.998H408.905C412.469 251.998 418.273 257.545 419.495 262.184C421.634 269.948 416.746 278.419 409.21 279.932L406.461 280.436L406.054 314.924C405.646 346.287 405.341 350.018 403.406 357.379C396.685 381.783 380.086 401.75 357.785 412.439L349.333 416.473L349.028 449.449C348.722 480.609 348.62 482.626 346.685 485.147C346.516 485.377 346.357 485.597 346.205 485.809C345.806 486.365 345.45 486.862 345.037 487.305C341.647 490.941 334.421 491.001 268.325 490.997C264.93 490.997 261.364 490.997 257.618 490.996L253.666 490.996C249.976 490.996 246.449 490.997 243.078 490.998C238.044 490.999 233.357 491.001 228.991 491C171.487 491.008 163.831 490.866 160.785 487.047C160.322 486.467 159.966 485.803 159.558 485.041C159.388 484.724 159.209 484.39 159.009 484.038C156.871 480.307 156.769 479.097 156.769 448.34V416.574L147.4 411.935C124.997 400.943 109.417 381.884 102.594 357.278C100.659 350.018 100.354 346.287 99.9466 314.924L99.5393 280.436L96.7898 279.932C89.2542 278.419 84.3663 269.948 86.5048 262.184C87.7268 257.545 93.5312 251.998 97.0953 251.998H99.5393L99.9466 217.409C100.456 177.98 101.067 174.249 109.315 157.71C117.665 141.172 130.293 128.668 147.095 120.298L156.26 115.76L156.769 68.6661C157.278 23.5893 157.38 21.4716 159.315 18.8497C160.435 17.337 162.777 15.421 164.406 14.6143C167.054 13.2025 178.255 13.0008 249.232 13.0008C252.124 13.0008 254.917 13.0006 257.618 13.0004ZM256.564 42.2452H312.572V51.7245V61.2037L296.381 61.5062C278.764 61.9096 277.338 62.4138 272.552 68.6661C270.006 71.9939 269.904 80.4647 272.246 84.095C276.014 89.8431 279.069 90.6498 296.584 90.6498H303.712H312.572V100.734V110.818H256.564H249.436H193.428V100.734V90.6498H202.39H209.518C226.931 90.6498 229.986 89.8431 233.754 84.095C236.198 80.3638 236.096 72.1956 233.55 68.7669C228.662 62.4138 227.236 61.9096 209.619 61.5062L193.428 61.2037V51.7245V42.2452H249.436H256.564ZM136.916 251.998H136.402V221.947C136.402 205.006 136.911 189.274 137.522 185.845C139.253 175.963 145.567 164.366 153.306 156.803C160.638 149.441 172.553 142.886 181.717 141.273C185.391 140.566 220.808 140.187 256.201 140.164C288.938 140.186 319.812 140.515 323.366 141.172C332.837 142.786 344.955 149.139 352.083 156.097C358.906 162.752 362.673 168.501 366.441 178.282C368.981 184.821 368.987 185.339 369.391 218.169L369.394 218.418L369.7 251.998H369.093V280.234H369.7L369.394 313.21C369.303 322.44 369.221 329.143 369.093 334.174V343.765H368.647C368.283 348.038 367.712 350.12 366.747 352.942C360.942 370.085 346.686 384.002 329.374 389.447C322.365 391.629 321.756 391.665 253 391.666C184.244 391.665 183.635 391.629 176.626 389.447C159.314 384.002 145.058 370.085 139.253 352.942C138.288 350.12 137.717 348.038 137.353 343.765H136.916V334.512C136.783 329.445 136.699 322.648 136.606 313.21L136.3 280.234H136.916V251.998ZM256.564 421.414H312.572V441.583V461.752H256.564H249.436H193.428V441.583V421.414H249.436H256.564Z" fill="#4465DC"/>
<path d="M151 301.749V210.251H172.628V281.734H204.838V301.749H151Z" fill="white"/>
<path d="M213.58 301.749V210.251H247.968C253.881 210.251 259.054 211.591 263.489 214.272C267.924 216.952 271.373 220.72 273.836 225.575C276.3 230.43 277.532 236.104 277.532 242.597C277.532 249.15 276.261 254.824 273.72 259.619C271.204 264.414 267.664 268.107 263.1 270.699C258.562 273.29 253.258 274.586 247.19 274.586H226.651V255.285H242.833C245.375 255.285 247.54 254.779 249.329 253.766C251.145 252.724 252.532 251.249 253.492 249.343C254.477 247.437 254.97 245.188 254.97 242.597C254.97 239.976 254.477 237.742 253.492 235.895C252.532 234.019 251.145 232.589 249.329 231.606C247.54 230.594 245.375 230.087 242.833 230.087H235.209V301.749H213.58Z" fill="white"/>
<path d="M337.205 240.452C336.867 238.874 336.336 237.489 335.61 236.298C334.884 235.076 333.976 234.049 332.887 233.215C331.823 232.351 330.579 231.711 329.152 231.294C327.752 230.847 326.209 230.624 324.523 230.624C320.893 230.624 317.793 231.621 315.226 233.617C312.685 235.612 310.74 238.487 309.391 242.24C308.068 245.992 307.407 250.52 307.407 255.821C307.407 261.183 308.043 265.769 309.313 269.582C310.584 273.394 312.477 276.313 314.993 278.338C317.508 280.364 320.633 281.376 324.368 281.376C327.661 281.376 330.397 280.825 332.576 279.723C334.78 278.621 336.427 277.058 337.516 275.032C338.605 273.007 339.15 270.624 339.15 267.884L342.884 268.331H324.679V250.639H360V263.327C360 271.667 358.457 278.8 355.371 284.727C352.311 290.625 348.084 295.152 342.689 298.309C337.321 301.436 331.162 303 324.212 303C316.458 303 309.65 301.109 303.789 297.326C297.929 293.543 293.351 288.152 290.058 281.153C286.79 274.154 285.156 265.829 285.156 256.179C285.156 248.613 286.155 241.912 288.152 236.074C290.174 230.236 292.975 225.307 296.554 221.286C300.133 217.235 304.269 214.183 308.963 212.127C313.657 210.042 318.688 209 324.056 209C328.776 209 333.159 209.774 337.205 211.323C341.276 212.842 344.868 215.016 347.98 217.846C351.118 220.646 353.646 223.967 355.565 227.809C357.484 231.651 358.651 235.866 359.066 240.452H337.205Z" fill="white"/>
</svg>
