<svg width="500" height="500" viewBox="0 0 500 500" fill="none" xmlns="http://www.w3.org/2000/svg">
<path fill-rule="evenodd" clip-rule="evenodd" d="M88.4075 10.9464C81.5207 13.3726 70.8708 20.6404 63.6929 27.8076C41.1741 50.2927 42.004 41.7562 42.004 250.774C42.004 460.073 41.1333 451.214 63.9378 473.984C86.0158 496.032 81.3629 495.57 273.782 494.698L441.03 493.937L452.058 486.648C458.123 482.64 465.992 474.693 469.543 468.988L476 458.617V359.45V260.283L469.543 249.912C461.807 237.488 447.114 227.367 433.144 224.843C424.135 223.216 422.941 222.08 422.941 215.152C422.941 202.16 414.617 196.435 395.731 196.435C376.706 196.435 368.521 202.157 368.521 215.454V223.604H314.102H259.682V215.454C259.682 202.157 251.497 196.435 232.472 196.435C213.586 196.435 205.263 202.16 205.263 215.152C205.263 222.075 204.057 223.221 195.059 224.89C180.61 227.563 167.98 236.083 159.504 248.869L152.203 259.881V356.532C152.203 409.691 153.145 456.547 154.296 460.655L156.388 468.126H131.064C98.5785 468.126 84.5328 461.989 75.3359 443.777L69.2137 431.655V250.774V69.8925L75.3359 57.8322C81.3928 45.8968 91.3353 38.0992 104.668 34.8226C110.687 33.3446 111.993 34.3472 115.057 42.8104C120.817 58.7152 127.72 60.5898 180.51 60.5898C233.068 60.5898 239.169 59.0194 246.028 43.7205L250.597 33.5348L262.621 39.5908C271.371 43.9976 276.315 48.9506 280.77 57.7697C286.617 69.3464 286.892 72.8594 286.892 135.685C286.892 191.876 287.515 202.106 291.166 205.752C296.627 211.204 304.366 211.204 309.827 205.752C316.129 199.457 316.121 76.5136 309.816 55.3163C304.257 36.6267 285.373 17.1736 266.585 10.7807C247.574 4.31445 106.85 4.44486 88.4075 10.9464ZM205.263 253.49C205.263 254.985 207.711 258.653 210.704 261.641C214.938 265.869 219.773 267.075 232.472 267.075C245.171 267.075 250.006 265.869 254.24 261.641C257.233 258.653 259.682 254.985 259.682 253.49C259.682 251.771 279.635 250.774 314.102 250.774C348.568 250.774 368.521 251.771 368.521 253.49C368.521 254.985 370.97 258.653 373.963 261.641C381.538 269.205 409.7 269.428 417.159 261.981C419.964 259.18 422.799 255.27 423.46 253.292C425.389 247.516 441.498 255.531 446.197 264.605C451.96 275.731 452.025 443.041 446.273 454.148C439.174 467.857 436.627 468.126 314.102 468.126C191.576 468.126 189.029 467.857 181.93 454.148C176.466 443.598 176.396 274.484 181.851 264.657C187.282 254.868 205.263 246.293 205.263 253.49Z" fill="#4465DC"/>
<path d="M229.751 328.205C229.751 324.334 232.758 318.166 236.431 314.499C240.105 310.831 246.281 307.829 250.159 307.829C254.036 307.829 260.213 310.831 263.886 314.499C267.559 318.166 270.566 324.334 270.566 328.205C270.566 337.264 259.23 348.582 250.159 348.582C241.087 348.582 229.751 337.264 229.751 328.205Z" fill="white"/>
<path d="M295.055 328.205C295.055 321.595 297.025 317.544 302.224 313.461C306.167 310.364 311.511 307.829 314.102 307.829C323.228 307.829 333.148 318.441 333.148 328.205C333.148 337.97 323.228 348.582 314.102 348.582C304.975 348.582 295.055 337.97 295.055 328.205Z" fill="white"/>
<path d="M357.637 328.205C357.637 324.334 360.644 318.166 364.317 314.499C367.99 310.831 374.167 307.829 378.044 307.829C387.116 307.829 398.452 319.147 398.452 328.205C398.452 332.077 395.445 338.244 391.772 341.912C388.098 345.58 381.922 348.582 378.044 348.582C374.167 348.582 367.99 345.58 364.317 341.912C360.644 338.244 357.637 332.077 357.637 328.205Z" fill="white"/>
<path d="M229.751 390.694C229.751 386.823 232.758 380.655 236.431 376.988C240.105 373.32 246.281 370.318 250.159 370.318C254.036 370.318 260.213 373.32 263.886 376.988C267.559 380.655 270.566 386.823 270.566 390.694C270.566 399.753 259.23 411.071 250.159 411.071C241.087 411.071 229.751 399.753 229.751 390.694Z" fill="white"/>
<path d="M295.055 390.694C295.055 384.084 297.025 380.033 302.224 375.95C306.167 372.852 311.511 370.318 314.102 370.318C323.228 370.318 333.148 380.93 333.148 390.694C333.148 400.459 323.228 411.071 314.102 411.071C304.975 411.071 295.055 400.459 295.055 390.694Z" fill="white"/>
</svg>
