<svg width="500" height="500" viewBox="0 0 500 500" fill="none" xmlns="http://www.w3.org/2000/svg">
<g clip-path="url(#clip0_601_6220)">
<path fill-rule="evenodd" clip-rule="evenodd" d="M112.55 10.4858C99.7507 13.6184 89.4712 19.5386 79.4379 29.5569C69.669 39.312 64.1139 48.4873 60.094 61.5134C58.1142 67.9294 58.0143 76.981 58.0143 250.352C58.0143 454.305 57.287 436.207 66.2005 453.941C72.0017 465.482 85.7191 478.941 97.3681 484.523C112.218 491.638 115.578 491.975 171.815 491.998C226.963 492.019 226.952 492.02 230.455 485.247C233.987 478.418 231.675 470.588 224.996 466.766C223.171 465.72 208.868 465.208 169.773 464.787L117.014 464.22L110.636 461.087C100.68 456.199 94.3954 449.949 89.5246 440.095L85.2448 431.435L84.9476 252.735C84.6174 54.6186 84.1465 67.6821 92.0445 55.634C98.9463 45.1063 110.535 37.6453 122.121 36.2725C127.047 35.6893 127.792 35.8663 127.792 37.6135C127.792 46.3157 136.824 58.0461 145.51 60.6261C152.101 62.5833 237.367 62.5833 243.958 60.6261C252.576 58.0665 261.676 46.3169 261.676 37.7497C261.676 35.2967 265.541 36.1159 274.843 40.543C283.266 44.5515 291.316 52.818 295.51 61.7652L298.55 68.2528L298.877 120.017L299.204 171.779L288.666 174.293C258.83 181.407 231.815 197.088 209.987 219.964C188.654 242.318 175.253 267.745 168.385 298.896C165.127 313.679 164.853 345.727 167.859 360.713C174.483 393.737 188.75 420.311 212.829 444.467C236.667 468.382 263.331 482.697 296.542 489.408C311.787 492.489 343.443 492.163 359.203 488.764C391.082 481.889 416.513 467.952 439.955 444.511C463.389 421.077 477.308 395.685 484.218 363.761C487.927 346.627 487.927 315.188 484.218 298.053C477.289 266.04 461.929 238.431 438.291 215.498C410.264 188.308 375.967 172.95 337.181 170.224L326.473 169.472L326.095 117.727C325.731 67.977 325.621 65.7 323.226 58.6089C315.817 36.6718 298.462 19.3071 276.426 11.7815C269.128 9.28996 268.271 9.2616 194.167 9.05057C132.005 8.87358 118.139 9.11751 112.55 10.4858ZM349.669 198.771C401.336 207.782 442.503 245.876 456.541 297.671C459.317 307.915 459.553 310.512 459.553 330.907C459.553 351.302 459.317 353.899 456.541 364.144C443.508 412.234 407.677 448.064 359.585 461.096C349.341 463.873 346.744 464.109 326.348 464.109C305.953 464.109 303.356 463.873 293.111 461.096C254.975 450.762 223.673 425.609 206.785 391.728C196.742 371.583 192.465 353.416 192.465 330.907C192.465 294.13 205.728 261.999 231.584 236.145C251.191 216.538 275.595 203.633 302.13 198.839C314.217 196.655 337.345 196.622 349.669 198.771Z" fill="#4465DC"/>
<path d="M266.214 247.006C266.214 242.19 266.559 237.905 266.98 237.484C267.402 237.062 294.335 236.85 326.83 237.011L385.915 237.305L386.253 244.396L386.59 251.487H363.047H339.503L343.528 255.742C349.048 261.577 352.107 267.008 353.964 274.27L355.537 280.419L371.01 280.734L386.482 281.049V287.825V294.601H371.241C357.69 294.601 355.941 294.821 355.456 296.586C355.157 297.678 354.306 301.252 353.565 304.527C351.991 311.484 345.519 322.001 339.642 327.146C330.255 335.364 318.583 340.215 302.925 342.405L293.299 343.752L300.544 351.227C311.464 362.499 322.94 375.616 343.809 400.684L362.699 423.375L349.366 423.697L336.032 424.019L332.042 419.183C321.213 406.062 286.797 366.401 277.1 355.868L266.131 343.955L266.456 335.446L266.781 326.936L283.801 326.248C300.942 325.553 304.97 324.704 314.545 319.772C322.692 315.576 330.791 304.348 330.862 297.154L330.887 294.601H298.55H266.214V287.793V280.986H297.983C333.408 280.986 331.759 281.426 327.516 273.108C324.617 267.425 318.278 262.264 310.464 259.224C305.243 257.193 301.118 256.712 285.219 256.279L266.214 255.763V247.006Z" fill="white"/>
</g>
<defs>
<clipPath id="clip0_601_6220">
<rect width="500" height="500" fill="white"/>
</clipPath>
</defs>
</svg>
