<svg width="500" height="500" viewBox="0 0 500 500" fill="none" xmlns="http://www.w3.org/2000/svg">
<g clip-path="url(#clip0_605_6822)">
<path d="M246.4 216.5C244.7 217.2 243 218.5 242.6 219.5C242.3 220.4 242 226 242 231.9C242 244.3 241.4 243.3 253 250.4C260.9 255.3 264.2 256 267.8 253.4C274 249.1 272.6 242 264.6 237.1L259.2 233.9L258.8 226.9C258.5 221.7 258 219.5 256.5 218.1C253.7 215.5 250 214.9 246.4 216.5Z" fill="white"/>
<path fill-rule="evenodd" clip-rule="evenodd" d="M240.671 32.8L243.744 30.4C245.39 29.1 248.244 28 249.89 28C253.402 28 258.341 31.1 259.329 34C259.988 35.9 261.195 36 295.329 36C330.012 36 330.561 36 333.085 38.2C335.61 40.3 335.61 40.7 335.61 61.4C335.606 62.1684 335.602 62.9118 335.598 63.6311C335.61 66.057 335.61 68.9459 335.61 72.4C335.5 95.1 335.28 96 329.683 98C327.817 98.6 313.768 99 293.244 99H259.878V103.6L302.134 140.6C325.293 160.9 344.719 178.2 345.159 179C345.707 179.8 346.256 197.8 346.585 218.9L347.134 257.2L406.293 273.1C438.78 281.9 466.439 289 467.536 289C468.634 289 470.829 290.1 472.256 291.5L475 293.9V304.9V369.5V380.5V445.1V456.1L472.256 458.5L469.622 461H377.866H286.11L283.476 458.5L280.732 456.1V445.1V414.5C280.732 375.5 280.622 372.7 278.646 369.2C268.439 351.2 234.085 350.4 222.781 367.9L219.817 372.5V403.3V414.3V445.2V456.2L216.744 458.6L213.671 461H122.573H31.366L28.183 458.1L25.0001 455.2V444.2V381L25.0001 377.007C25 374.461 24.9999 372 25.0001 369.623C24.9998 301.635 24.9295 292.182 28.7565 290.18C29.4786 289.803 30.3396 289.69 31.366 289.5C33.8904 289 125.098 265 147.268 258.9L154.512 256.9V229V218V190.1V179.1L197.207 141.5L240.012 103.9L240.341 68.4L240.671 32.8ZM259.878 64V70H288.415H316.951V64H288.415H259.878ZM200.61 433V408.2V397.2C200.61 358.6 201.049 355.1 206.646 347.1C210.927 340.8 220.695 333.5 228.817 330.5C238.695 326.8 255.159 325.9 264.817 328.5C280.073 332.5 289.622 339.3 295.659 350.6L299.72 358L299.656 368.884L299.72 369L299.5 406.5L299.345 433H313H326.829V320.7V309.7V197.5L288.854 164.2C268 146 250.549 131 250.22 131C249.781 131 232.329 146 211.366 164.3L173.39 197.5L173.281 320.7L173.181 433H186.89H200.61ZM44.7562 315.5L99.4147 300.8C129.378 292.7 154.073 286.1 154.293 286.1C154.403 286 154.512 321.5 154.512 365V433H142.439H130.366V396.5V385.5V348.9V337.9L127.622 335.5C125.866 333.8 123.781 333 121.037 333C118.293 333 116.207 333.8 114.451 335.5L111.707 337.9V348.9V385.5V396.5V433H99.6342H87.6708L87.3416 384.9L87.0123 336.8L84.3781 334.9C80.7562 332.2 74.9391 332.4 71.6464 335.5L68.9025 337.9V348.9V385.5V396.5V433H56.8294H44.7562V379.7V368.7V315.5ZM346.585 286.2V354.1V365.1V433H358.11H369.634V397.4V386.4C369.634 338.7 369.744 337.2 373.915 334.3C377.098 332.1 383.244 332.7 386.207 335.6L388.841 338.2L389.171 385.6L389.5 433H400.915H412.329L412.658 385.6L412.988 338.2L415.622 335.6C417.598 333.7 419.463 333 422.317 333C425.171 333 427.037 333.7 429.012 335.6L431.646 338.2L431.976 385.6L432.305 433H444.268H456.304L456.122 379.8L455.793 315.5L421.219 306.2C402.232 301.1 377.646 294.5 366.671 291.6L346.585 286.2ZM238.256 191.5C224.098 194.3 209.939 204.2 203.464 215.8C183.708 251.4 214.769 291.5 257.793 286C278.427 283.3 296.976 268 301.476 249.9C303.122 243.4 302.903 232.2 301.037 225.5C296.208 208.8 280.293 195.1 261.305 191.5C252.305 189.7 247.147 189.7 238.256 191.5ZM263.829 210.5C270.854 213.3 277.329 219.1 280.842 225.6C284.573 232.5 284.573 244.4 280.842 251.2C275.134 261.9 265.256 268 252.634 268.8C241.988 269.4 235.293 267.3 227.61 260.9C219.817 254.4 216.634 247.9 216.634 238.5C216.634 229.9 219.488 223.4 226.183 217.2C231.89 211.8 235.622 209.9 243.415 208.5C250.988 207 256.695 207.6 263.829 210.5Z" fill="#4465DC"/>
</g>
<defs>
<clipPath id="clip0_605_6822">
<rect width="500" height="500" fill="white"/>
</clipPath>
</defs>
</svg>
