<svg width="500" height="500" viewBox="0 0 500 500" fill="none" xmlns="http://www.w3.org/2000/svg">
<g clip-path="url(#clip0_605_6683)">
<path d="M51.4983 89.6553C38.5909 91.5597 29.0691 99.7061 25.8952 111.555C24.0966 118.221 23.2503 334.683 24.8372 352.88C26.001 365.364 28.3286 372.559 32.6663 377.214C36.1576 381.022 44.0924 384.62 51.4983 385.889C60.8085 387.37 439.67 387.37 449.192 385.889C458.185 384.408 467.072 379.964 470.14 375.415C471.41 373.405 473.314 369.067 474.372 365.893C476.065 360.392 476.171 350.447 476.171 236.714C476.171 119.808 476.065 113.142 474.16 107.112C471.727 98.9655 466.649 93.993 458.079 91.1365C452.049 89.2321 445.912 89.1263 254.524 89.0205C145.976 88.9147 54.6722 89.2321 51.4983 89.6553ZM451.52 113.777L453.953 116.211L454.27 219.787L454.482 323.468H250.292H46.1026L46.3142 221.056C46.5258 138.322 46.949 118.326 48.0069 116.316C51.2867 110.603 40.6011 110.815 252.62 111.132L449.086 111.344L451.52 113.777ZM454.27 351.505C453.953 355.314 453.001 359.228 452.26 360.18C448.346 364.835 454.905 364.73 251.139 364.73C120.373 364.73 56.9998 364.412 54.249 363.566C49.1707 362.19 47.0548 358.911 46.42 350.976L45.7852 344.628H250.292H454.799L454.27 351.505Z" fill="#4465DC"/>
<path d="M105.895 129.035C95.4866 132.807 89.0754 141.631 89 152.342C89 159.658 90.8102 164.636 95.4112 169.614C111.552 187.339 140.591 174.97 138.932 151.135C138.253 141.858 132.521 133.636 124.148 129.865C119.397 127.753 110.496 127.376 105.895 129.035Z" fill="#4465DC"/>
<path d="M97.1935 181.473C81.8712 183.818 72.162 190.476 69.1278 200.539C67.8383 204.927 67.6108 217.713 68.6727 223.539C69.9622 230.122 72.5412 235.947 75.6512 239.049C78.3819 241.773 78.9129 242 82.7814 242H86.9534V231.786C86.9534 222.858 87.1051 221.572 88.3187 220.967C89.0014 220.513 90.3668 220.513 91.3528 220.891C92.9458 221.496 93.0216 221.875 93.0216 231.786V242H113.881H134.741V232.24C134.741 224.371 134.968 222.177 135.955 221.269C137.32 219.832 137.472 219.832 139.368 220.816C140.657 221.572 140.809 222.48 140.809 231.786V242H144.981C148.546 242 149.456 241.697 151.808 239.579C157.497 234.661 160 226.263 160 212.493C160 204.624 159.772 202.355 158.407 198.874C155.373 191.006 148.546 185.937 137.168 182.835C132.389 181.549 128.597 181.246 116.536 181.019C108.42 180.943 99.6967 181.095 97.1935 181.473Z" fill="#4465DC"/>
<line x1="224.5" y1="166.5" x2="367.5" y2="166.5" stroke="white" stroke-width="19" stroke-linecap="round"/>
<path d="M224.5 203.5H329" stroke="white" stroke-width="19" stroke-linecap="round"/>
<path d="M193.763 291.481V284.067L208.345 272.352C209.312 271.573 210.139 270.844 210.826 270.164C211.526 269.472 212.06 268.762 212.429 268.033C212.811 267.304 213.002 266.494 213.002 265.605C213.002 264.628 212.786 263.794 212.353 263.102C211.933 262.41 211.348 261.879 210.597 261.508C209.846 261.125 208.981 260.933 208.001 260.933C207.022 260.933 206.156 261.125 205.406 261.508C204.668 261.891 204.095 262.453 203.688 263.195C203.281 263.936 203.077 264.838 203.077 265.901H193C193 263.232 193.617 260.933 194.851 259.006C196.086 257.078 197.829 255.595 200.081 254.557C202.333 253.519 204.973 253 208.001 253C211.131 253 213.842 253.488 216.132 254.464C218.435 255.428 220.21 256.788 221.457 258.542C222.716 260.297 223.346 262.355 223.346 264.715C223.346 266.173 223.035 267.625 222.411 269.071C221.788 270.504 220.668 272.092 219.052 273.835C217.436 275.577 215.139 277.653 212.162 280.063L208.498 283.029V283.251H223.766V291.481H193.763Z" fill="white"/>
<path d="M247.671 253.519V291.481H237.059V263.01H236.83L228.28 267.977V259.228L237.899 253.519H247.671Z" fill="white"/>
<path d="M270.965 292C267.886 292 265.15 291.487 262.758 290.462C260.379 289.423 258.509 287.996 257.147 286.18C255.786 284.363 255.099 282.275 255.086 279.914H265.774C265.787 280.644 266.016 281.298 266.461 281.879C266.919 282.448 267.542 282.893 268.331 283.214C269.12 283.535 270.024 283.696 271.041 283.696C272.021 283.696 272.886 283.529 273.637 283.195C274.388 282.849 274.973 282.374 275.393 281.768C275.813 281.163 276.016 280.471 276.004 279.692C276.016 278.926 275.775 278.246 275.278 277.653C274.795 277.06 274.114 276.596 273.236 276.263C272.358 275.929 271.347 275.762 270.202 275.762H266.232V268.644H270.202C271.258 268.644 272.187 268.478 272.988 268.144C273.803 267.81 274.432 267.347 274.878 266.754C275.336 266.161 275.558 265.481 275.546 264.715C275.558 263.973 275.374 263.318 274.992 262.75C274.61 262.182 274.076 261.737 273.389 261.415C272.715 261.094 271.932 260.933 271.041 260.933C270.074 260.933 269.209 261.1 268.446 261.434C267.695 261.768 267.103 262.231 266.671 262.824C266.238 263.417 266.016 264.097 266.003 264.863H255.849C255.862 262.54 256.517 260.489 257.815 258.709C259.126 256.93 260.92 255.533 263.197 254.52C265.475 253.507 268.09 253 271.041 253C273.93 253 276.481 253.476 278.695 254.427C280.921 255.379 282.658 256.689 283.905 258.357C285.165 260.013 285.788 261.91 285.776 264.048C285.801 266.173 285.05 267.915 283.524 269.275C282.009 270.634 280.088 271.437 277.76 271.684V271.981C280.915 272.315 283.288 273.254 284.879 274.798C286.469 276.331 287.252 278.259 287.226 280.582C287.239 282.806 286.552 284.777 285.165 286.495C283.791 288.212 281.876 289.559 279.42 290.536C276.977 291.512 274.159 292 270.965 292Z" fill="white"/>
<path d="M291.582 285.549V277.542L307.309 253.519H314.791V264.196H310.515L302.041 277.245V277.542H325.25V285.549H291.582ZM310.592 291.481V283.103L310.821 279.618V253.519H320.745V291.481H310.592Z" fill="white"/>
<path d="M329.701 291.481V284.067L344.283 272.352C345.25 271.573 346.077 270.844 346.764 270.164C347.464 269.472 347.998 268.762 348.367 268.033C348.749 267.304 348.94 266.494 348.94 265.605C348.94 264.628 348.723 263.794 348.291 263.102C347.871 262.41 347.286 261.879 346.535 261.508C345.784 261.125 344.919 260.933 343.939 260.933C342.96 260.933 342.094 261.125 341.344 261.508C340.606 261.891 340.033 262.453 339.626 263.195C339.219 263.936 339.015 264.838 339.015 265.901H328.938C328.938 263.232 329.555 260.933 330.789 259.006C332.023 257.078 333.767 255.595 336.019 254.557C338.271 253.519 340.911 253 343.939 253C347.069 253 349.78 253.488 352.07 254.464C354.373 255.428 356.148 256.788 357.395 258.542C358.654 260.297 359.284 262.355 359.284 264.715C359.284 266.173 358.972 267.625 358.349 269.071C357.726 270.504 356.606 272.092 354.99 273.835C353.374 275.577 351.077 277.653 348.1 280.063L344.436 283.029V283.251H359.704V291.481H329.701Z" fill="white"/>
<path d="M379.715 292C376.636 292 373.901 291.487 371.509 290.462C369.129 289.423 367.259 287.996 365.897 286.18C364.536 284.363 363.849 282.275 363.836 279.914H374.524C374.537 280.644 374.766 281.298 375.211 281.879C375.669 282.448 376.293 282.893 377.082 283.214C377.871 283.535 378.774 283.696 379.792 283.696C380.772 283.696 381.637 283.529 382.387 283.195C383.138 282.849 383.723 282.374 384.143 281.768C384.563 281.163 384.767 280.471 384.754 279.692C384.767 278.926 384.525 278.246 384.029 277.653C383.545 277.06 382.865 276.596 381.987 276.263C381.109 275.929 380.097 275.762 378.952 275.762H374.982V268.644H378.952C380.008 268.644 380.937 268.478 381.739 268.144C382.553 267.81 383.183 267.347 383.628 266.754C384.086 266.161 384.309 265.481 384.296 264.715C384.309 263.973 384.124 263.318 383.743 262.75C383.361 262.182 382.826 261.737 382.139 261.415C381.465 261.094 380.682 260.933 379.792 260.933C378.825 260.933 377.96 261.1 377.196 261.434C376.445 261.768 375.854 262.231 375.421 262.824C374.989 263.417 374.766 264.097 374.753 264.863H364.6C364.612 262.54 365.268 260.489 366.565 258.709C367.876 256.93 369.67 255.533 371.948 254.52C374.225 253.507 376.84 253 379.792 253C382.68 253 385.231 253.476 387.445 254.427C389.672 255.379 391.409 256.689 392.656 258.357C393.915 260.013 394.539 261.91 394.526 264.048C394.551 266.173 393.801 267.915 392.274 269.275C390.76 270.634 388.838 271.437 386.51 271.684V271.981C389.665 272.315 392.038 273.254 393.629 274.798C395.219 276.331 396.002 278.259 395.976 280.582C395.989 282.806 395.302 284.777 393.915 286.495C392.541 288.212 390.626 289.559 388.17 290.536C385.727 291.512 382.909 292 379.715 292Z" fill="white"/>
<path d="M400.333 285.549V277.542L416.059 253.519H423.541V264.196H419.266L410.792 277.245V277.542H434V285.549H400.333ZM419.342 291.481V283.103L419.571 279.618V253.519H429.496V291.481H419.342Z" fill="white"/>
</g>
<defs>
<clipPath id="clip0_605_6683">
<rect width="500" height="500" fill="white"/>
</clipPath>
</defs>
</svg>
