<svg width="500" height="500" viewBox="0 0 500 500" fill="none" xmlns="http://www.w3.org/2000/svg">
<g clip-path="url(#clip0_607_6545)">
<path d="M51.4983 91.6553C38.5909 93.5597 29.0691 101.706 25.8952 113.555C24.0966 120.221 23.2503 336.683 24.8372 354.88C26.001 367.364 28.3286 374.559 32.6663 379.214C36.1576 383.022 44.0924 386.62 51.4983 387.889C60.8085 389.37 439.67 389.37 449.192 387.889C458.185 386.408 467.072 381.964 470.14 377.415C471.41 375.405 473.314 371.067 474.372 367.893C476.065 362.392 476.171 352.447 476.171 238.714C476.171 121.808 476.065 115.142 474.16 109.112C471.727 100.965 466.649 95.993 458.079 93.1365C452.049 91.2321 445.912 91.1263 254.524 91.0205C145.976 90.9147 54.6722 91.2321 51.4983 91.6553ZM451.52 115.777L453.953 118.211L454.27 221.787L454.482 325.468H250.292H46.1026L46.3142 223.056C46.5258 140.322 46.949 120.326 48.0069 118.316C51.2867 112.603 40.6011 112.815 252.62 113.132L449.086 113.344L451.52 115.777ZM454.27 353.505C453.953 357.314 453.001 361.228 452.26 362.18C448.346 366.835 454.905 366.73 251.139 366.73C120.373 366.73 56.9998 366.412 54.249 365.566C49.1707 364.19 47.0548 360.911 46.42 352.976L45.7852 346.628H250.292H454.799L454.27 353.505Z" fill="#4465DC"/>
<line x1="283.5" y1="271.5" x2="426.5" y2="271.5" stroke="white" stroke-width="19" stroke-linecap="round"/>
<path d="M308.052 137.393C308.052 134.329 308.27 131.603 308.535 131.335C308.802 131.067 325.795 130.932 346.296 131.034L383.574 131.221L383.787 135.732L384 140.243H369.146H354.292L356.831 142.95C360.314 146.662 362.244 150.117 363.416 154.737L364.408 158.648L374.17 158.849L383.932 159.05V163.36V167.67H374.316C365.767 167.67 364.663 167.81 364.357 168.933C364.168 169.628 363.631 171.901 363.164 173.985C362.171 178.411 358.087 185.101 354.38 188.374C348.457 193.602 341.093 196.688 331.214 198.081L325.141 198.938L329.712 203.694C336.602 210.864 343.842 219.209 357.008 235.155L368.926 249.591L360.514 249.796L352.102 250L349.584 246.924C342.752 238.577 321.038 213.347 314.92 206.646L308 199.067L308.205 193.654L308.41 188.241L319.148 187.803C329.963 187.361 332.504 186.821 338.545 183.683C343.686 181.014 348.795 173.871 348.84 169.294L348.856 167.67H328.454H308.052V163.34V159.009H328.096C350.446 159.009 349.406 159.289 346.729 153.998C344.9 150.383 340.9 147.099 335.97 145.165C332.677 143.873 330.074 143.567 320.043 143.292L308.052 142.964V137.393Z" fill="#4465DC"/>
<path d="M131.895 157.035C121.487 160.807 115.075 169.631 115 180.342C115 187.658 116.81 192.636 121.411 197.614C137.552 215.339 166.591 202.97 164.932 179.135C164.253 169.858 158.521 161.636 150.148 157.865C145.397 155.753 136.496 155.376 131.895 157.035Z" fill="#4465DC"/>
<path d="M123.194 209.473C107.871 211.818 98.162 218.476 95.1278 228.539C93.8383 232.927 93.6108 245.713 94.6727 251.539C95.9622 258.122 98.5412 263.947 101.651 267.049C104.382 269.773 104.913 270 108.781 270H112.953V259.786C112.953 250.858 113.105 249.572 114.319 248.967C115.001 248.513 116.367 248.513 117.353 248.891C118.946 249.496 119.022 249.875 119.022 259.786V270H139.881H160.741V260.24C160.741 252.371 160.968 250.177 161.955 249.269C163.32 247.832 163.472 247.832 165.368 248.816C166.657 249.572 166.809 250.48 166.809 259.786V270H170.981C174.546 270 175.456 269.697 177.808 267.579C183.497 262.661 186 254.263 186 240.493C186 232.624 185.772 230.355 184.407 226.874C181.373 219.006 174.546 213.937 163.168 210.835C158.389 209.549 154.597 209.246 142.536 209.019C134.42 208.943 125.697 209.095 123.194 209.473Z" fill="#4465DC"/>
</g>
<defs>
<clipPath id="clip0_607_6545">
<rect width="500" height="500" fill="white"/>
</clipPath>
</defs>
</svg>
