<svg xmlns="http://www.w3.org/2000/svg" xmlns:xlink="http://www.w3.org/1999/xlink" width="500" zoomAndPan="magnify" viewBox="0 0 375 374.999991" height="500" preserveAspectRatio="xMidYMid meet" version="1.0"><defs><clipPath id="866be3aedd"><path d="M 172 9.007812 L 177 9.007812 L 177 108 L 172 108 Z M 172 9.007812 " clip-rule="nonzero"/></clipPath><clipPath id="c953593a40"><path d="M 157 9.007812 L 162 9.007812 L 162 96 L 157 96 Z M 157 9.007812 " clip-rule="nonzero"/></clipPath><clipPath id="bcc57687ca"><path d="M 199 9.007812 L 204 9.007812 L 204 108 L 199 108 Z M 199 9.007812 " clip-rule="nonzero"/></clipPath><clipPath id="6acd32a34d"><path d="M 212 9.007812 L 217 9.007812 L 217 96 L 212 96 Z M 212 9.007812 " clip-rule="nonzero"/></clipPath><clipPath id="e62f93a95f"><path d="M 176 9.007812 L 198 9.007812 L 198 137 L 176 137 Z M 176 9.007812 " clip-rule="nonzero"/></clipPath><clipPath id="9195a86898"><path d="M 86 9.007812 L 368.523438 9.007812 L 368.523438 366.757812 L 86 366.757812 Z M 86 9.007812 " clip-rule="nonzero"/></clipPath><clipPath id="1d8e041b54"><path d="M 8.523438 9.007812 L 289 9.007812 L 289 366.757812 L 8.523438 366.757812 Z M 8.523438 9.007812 " clip-rule="nonzero"/></clipPath></defs><g clip-path="url(#866be3aedd)"><path fill="#f6f6f6" d="M 173.988281 107.550781 C 172.921875 107.550781 172.0625 106.671875 172.0625 105.582031 L 172.25 11.304688 C 172.25 10.214844 173.109375 9.335938 174.171875 9.335938 C 175.238281 9.335938 176.097656 10.214844 176.097656 11.304688 L 175.914062 105.582031 C 175.914062 106.671875 175.054688 107.550781 173.988281 107.550781 " fill-opacity="1" fill-rule="evenodd"/></g><g clip-path="url(#c953593a40)"><path fill="#f6f6f6" d="M 159.058594 95.75 C 157.992188 95.75 157.136719 94.871094 157.136719 93.78125 L 157.320312 11.304688 C 157.320312 10.214844 158.179688 9.335938 159.246094 9.335938 C 160.3125 9.335938 161.167969 10.214844 161.167969 11.304688 L 160.984375 93.78125 C 160.984375 94.871094 160.125 95.75 159.058594 95.75 " fill-opacity="1" fill-rule="evenodd"/></g><g clip-path="url(#bcc57687ca)"><path fill="#f6f6f6" d="M 201.734375 107.550781 C 200.667969 107.550781 199.8125 106.671875 199.8125 105.582031 L 199.996094 11.304688 C 199.996094 10.214844 200.855469 9.335938 201.921875 9.335938 C 202.988281 9.335938 203.84375 10.214844 203.84375 11.304688 L 203.660156 105.582031 C 203.660156 106.671875 202.800781 107.550781 201.734375 107.550781 " fill-opacity="1" fill-rule="evenodd"/></g><g clip-path="url(#6acd32a34d)"><path fill="#f6f6f6" d="M 214.554688 95.75 C 213.488281 95.75 212.632812 94.871094 212.632812 93.78125 L 212.816406 11.304688 C 212.816406 10.214844 213.675781 9.335938 214.742188 9.335938 C 215.808594 9.335938 216.664062 10.214844 216.664062 11.304688 L 216.480469 93.78125 C 216.480469 94.871094 215.621094 95.75 214.554688 95.75 " fill-opacity="1" fill-rule="evenodd"/></g><path fill="#f6f6f6" d="M 166.105469 109.640625 C 162.375 106.832031 158.597656 104.027344 154.726562 101.453125 C 152.753906 100.132812 151.339844 98.601562 150.390625 96.792969 L 150.574219 15.757812 C 150.574219 14.785156 149.878906 14.019531 148.976562 13.855469 C 148.976562 13.855469 148.976562 13.789062 148.976562 13.789062 L 148.746094 13.789062 C 148.746094 13.789062 148.675781 13.789062 148.652344 13.789062 C 148.652344 13.789062 148.488281 13.832031 148.417969 13.832031 L 146.65625 13.972656 C 146.542969 39.292969 146.265625 84.367188 146.65625 107.414062 C 146.773438 114.183594 149.441406 120.003906 155.445312 123.597656 C 161.167969 127.027344 166.964844 130.296875 173.246094 133.914062 C 172.851562 128.929688 172.597656 124.015625 171.996094 119.167969 C 171.507812 115.15625 169.257812 112.003906 166.105469 109.640625 " fill-opacity="1" fill-rule="evenodd"/><path fill="#f6f6f6" d="M 162.144531 137.554688 C 156.902344 134.261719 151.964844 130.460938 146.519531 126.613281 C 146.519531 129.71875 146.589844 132.546875 146.472656 136.375 C 146.265625 143.121094 148.882812 148.082031 154.074219 151.699219 C 160.242188 156.011719 166.617188 160.023438 172.945312 164.21875 C 172.78125 161.578125 172.390625 158.121094 172.433594 155.339844 C 172.597656 144.765625 168.957031 141.84375 162.121094 137.554688 " fill-opacity="1" fill-rule="evenodd"/><path fill="#f6f6f6" d="M 162.144531 168.507812 C 156.902344 165.21875 151.964844 161.414062 146.519531 157.566406 C 146.519531 160.671875 146.589844 163.5 146.472656 167.328125 C 146.265625 174.074219 148.882812 179.035156 154.074219 182.652344 C 160.242188 186.964844 166.617188 190.976562 172.945312 195.171875 C 172.78125 192.53125 172.390625 189.074219 172.433594 186.292969 C 172.597656 175.71875 168.957031 172.800781 162.121094 168.507812 " fill-opacity="1" fill-rule="evenodd"/><path fill="#f6f6f6" d="M 162.144531 197.285156 C 156.902344 193.992188 151.964844 190.1875 146.519531 186.339844 C 146.519531 189.445312 146.589844 192.273438 146.472656 196.101562 C 146.265625 202.847656 148.882812 207.808594 154.074219 211.425781 C 160.242188 215.738281 166.617188 219.75 172.945312 223.949219 C 172.78125 221.304688 172.390625 217.851562 172.433594 215.066406 C 172.597656 204.496094 168.957031 201.574219 162.121094 197.285156 " fill-opacity="1" fill-rule="evenodd"/><path fill="#f6f6f6" d="M 162.144531 228.238281 C 156.902344 224.945312 151.964844 221.140625 146.519531 217.292969 C 146.519531 220.398438 146.589844 223.230469 146.472656 227.054688 C 146.265625 233.800781 148.882812 238.765625 154.074219 242.382812 C 160.242188 246.695312 166.617188 250.703125 172.945312 254.902344 C 172.78125 252.257812 172.390625 248.804688 172.433594 246.019531 C 172.597656 235.449219 168.957031 232.527344 162.121094 228.238281 " fill-opacity="1" fill-rule="evenodd"/><path fill="#f6f6f6" d="M 228.554688 107.460938 C 228.859375 88.632812 228.765625 54.941406 228.625 29.4375 L 228.625 15.78125 C 228.648438 15.597656 228.625 15.433594 228.554688 15.269531 C 228.554688 14.785156 228.554688 14.25 228.554688 13.789062 L 226.816406 13.832031 C 226.816406 13.832031 226.769531 13.832031 226.75 13.832031 C 226.75 13.832031 226.703125 13.832031 226.65625 13.832031 L 226.285156 13.832031 L 226.285156 13.902344 C 225.449219 14.113281 224.824219 14.855469 224.800781 15.78125 L 224.617188 97.210938 C 223.664062 98.859375 222.296875 100.273438 220.464844 101.476562 C 216.570312 104.074219 212.816406 106.855469 209.085938 109.664062 C 205.929688 112.027344 203.683594 115.15625 203.195312 119.191406 C 202.59375 124.0625 202.363281 128.976562 201.945312 133.9375 C 208.203125 130.320312 214.023438 127.050781 219.746094 123.621094 C 225.75 120.027344 228.417969 114.183594 228.53125 107.4375 " fill-opacity="1" fill-rule="evenodd"/><path fill="#f6f6f6" d="M 228.394531 126.613281 C 222.945312 130.460938 218.007812 134.261719 212.769531 137.554688 C 205.953125 141.84375 202.316406 144.765625 202.453125 155.339844 C 202.5 158.121094 202.128906 161.578125 201.945312 164.21875 C 208.273438 160.046875 214.648438 156.035156 220.8125 151.722656 C 226.007812 148.105469 228.625 143.144531 228.417969 136.375 C 228.300781 132.546875 228.371094 129.71875 228.371094 126.613281 " fill-opacity="1" fill-rule="evenodd"/><path fill="#f6f6f6" d="M 228.394531 157.589844 C 222.945312 161.4375 218.007812 165.238281 212.769531 168.53125 C 205.953125 172.820312 202.316406 175.742188 202.453125 186.316406 C 202.5 189.097656 202.128906 192.554688 201.945312 195.195312 C 208.273438 191.023438 214.648438 187.011719 220.8125 182.699219 C 226.007812 179.082031 228.625 174.121094 228.417969 167.351562 C 228.300781 163.523438 228.371094 160.695312 228.371094 157.589844 " fill-opacity="1" fill-rule="evenodd"/><path fill="#f6f6f6" d="M 228.394531 186.339844 C 222.945312 190.1875 218.007812 193.992188 212.769531 197.285156 C 205.953125 201.574219 202.316406 204.496094 202.453125 215.066406 C 202.5 217.851562 202.128906 221.304688 201.945312 223.949219 C 208.273438 219.773438 214.648438 215.761719 220.8125 211.449219 C 226.007812 207.832031 228.625 202.871094 228.417969 196.101562 C 228.300781 192.273438 228.371094 189.445312 228.371094 186.339844 " fill-opacity="1" fill-rule="evenodd"/><path fill="#f6f6f6" d="M 228.394531 217.316406 C 222.945312 221.164062 218.007812 224.96875 212.769531 228.261719 C 205.953125 232.550781 202.316406 235.472656 202.453125 246.042969 C 202.5 248.828125 202.128906 252.28125 201.945312 254.925781 C 208.273438 250.75 214.648438 246.738281 220.8125 242.425781 C 226.007812 238.808594 228.625 233.847656 228.417969 227.101562 C 228.300781 223.277344 228.371094 220.445312 228.371094 217.339844 " fill-opacity="1" fill-rule="evenodd"/><g clip-path="url(#e62f93a95f)"><path fill="#f6f6f6" d="M 188.917969 95.984375 L 189.078125 9.359375 L 185.160156 9.359375 L 185.070312 95.984375 C 184.8125 102.265625 183.214844 107.738281 179.945312 113.070312 C 175.609375 120.074219 175.125 127.515625 178.808594 135.074219 C 180.015625 137.507812 181.105469 137.183594 182.84375 135.074219 C 184.257812 133.359375 185.484375 132.015625 186.945312 129.949219 C 188.382812 132.015625 189.636719 133.359375 191.050781 135.074219 C 192.789062 137.183594 193.878906 137.507812 195.082031 135.074219 C 198.792969 127.515625 198.28125 120.074219 193.945312 113.070312 C 191.464844 109.058594 189.402344 102.960938 188.941406 95.984375 " fill-opacity="1" fill-rule="evenodd"/></g><path fill="#f6f6f6" d="M 186.550781 135.46875 C 186.296875 135.515625 186.066406 135.5625 185.949219 135.699219 C 183.957031 137.972656 181.984375 140.316406 180.269531 142.796875 C 175.472656 149.730469 175.125 157.054688 178.855469 164.589844 C 180.175781 167.257812 181.523438 167.351562 183.351562 164.914062 C 184.441406 163.453125 185.347656 161.855469 186.34375 160.300781 C 186.414062 160.207031 186.484375 160.207031 186.550781 160.164062 C 186.621094 160.207031 186.691406 160.207031 186.761719 160.300781 C 187.757812 161.855469 188.636719 163.453125 189.75 164.914062 C 191.582031 167.351562 192.925781 167.257812 194.25 164.589844 C 197.980469 157.054688 197.632812 149.730469 192.835938 142.796875 C 191.117188 140.316406 189.148438 137.972656 187.15625 135.699219 C 187.039062 135.5625 186.808594 135.515625 186.550781 135.46875 " fill-opacity="1" fill-rule="evenodd"/><path fill="#f6f6f6" d="M 178.855469 195.542969 C 180.175781 198.210938 181.523438 198.304688 183.351562 195.871094 C 184.441406 194.410156 185.347656 192.808594 186.34375 191.253906 C 186.414062 191.164062 186.484375 191.164062 186.550781 191.140625 C 186.621094 191.1875 186.691406 191.1875 186.761719 191.253906 C 187.757812 192.808594 188.636719 194.410156 189.75 195.871094 C 191.558594 198.304688 192.925781 198.210938 194.25 195.542969 C 197.980469 188.007812 197.632812 180.683594 192.835938 173.75 C 191.117188 171.269531 189.148438 168.925781 187.15625 166.65625 C 187.039062 166.539062 186.808594 166.46875 186.550781 166.421875 C 186.296875 166.46875 186.066406 166.539062 185.949219 166.65625 C 183.957031 168.925781 181.984375 171.269531 180.269531 173.75 C 175.472656 180.683594 175.125 188.007812 178.855469 195.542969 " fill-opacity="1" fill-rule="evenodd"/><path fill="#f6f6f6" d="M 178.855469 226.523438 C 180.175781 229.1875 181.523438 229.28125 183.351562 226.847656 C 184.441406 225.386719 185.347656 223.785156 186.34375 222.230469 C 186.414062 222.140625 186.484375 222.140625 186.550781 222.117188 C 186.621094 222.164062 186.691406 222.164062 186.761719 222.230469 C 187.757812 223.785156 188.636719 225.386719 189.75 226.847656 C 191.558594 229.28125 192.925781 229.1875 194.25 226.523438 C 197.980469 218.984375 197.632812 211.660156 192.835938 204.726562 C 191.117188 202.246094 189.148438 199.902344 187.15625 197.632812 C 187.039062 197.515625 186.808594 197.445312 186.550781 197.398438 C 186.296875 197.445312 186.066406 197.515625 185.949219 197.632812 C 183.957031 199.902344 181.984375 202.246094 180.269531 204.726562 C 175.472656 211.660156 175.125 218.984375 178.855469 226.523438 " fill-opacity="1" fill-rule="evenodd"/><path fill="#f6f6f6" d="M 186.714844 228.375 C 186.714844 228.375 176.351562 238.089844 176.351562 247.273438 C 176.351562 253.996094 182.03125 261.441406 185.09375 264.964844 L 185.09375 332.808594 L 188.941406 332.808594 L 188.941406 264.753906 C 191.835938 261.160156 196.9375 253.882812 196.9375 247.296875 C 196.9375 238.113281 186.714844 228.398438 186.714844 228.398438 " fill-opacity="1" fill-rule="evenodd"/><path fill="#4465dc" d="M 192.625 354.925781 C 202.894531 356.0625 233.214844 352.097656 266.292969 334.128906 C 296.824219 317.550781 336.417969 285.066406 351.808594 224.503906 C 377.863281 121.90625 304.636719 60.320312 281.570312 43.882812 L 280.714844 43.257812 C 277.839844 41.101562 275.359375 41.472656 274.964844 41.867188 C 274.964844 42.027344 275.171875 43.441406 277.28125 45.761719 C 284.886719 54.132812 300.71875 71.566406 311.984375 115.945312 C 328.375 180.542969 280.410156 249.265625 278.347656 252.164062 L 261.636719 275.722656 L 271.601562 248.480469 C 289.453125 199.648438 267.339844 167.835938 264.277344 165.75 C 264.070312 165.609375 263.90625 165.519531 263.746094 165.425781 C 263.398438 166.65625 262.933594 169.832031 263.90625 177.367188 C 266.203125 194.988281 254.195312 219.101562 223.6875 257.984375 C 195.59375 293.808594 192.835938 342.3125 192.601562 354.882812 M 196.496094 362.925781 C 192.511719 362.925781 189.449219 362.53125 187.480469 361.835938 L 184.976562 360.933594 L 184.90625 358.242188 C 184.835938 355.738281 183.515625 296.707031 217.707031 253.117188 C 245.988281 217.0625 258.226562 193.34375 256.28125 178.457031 C 254.796875 167.027344 255.839844 160.835938 259.6875 158.355469 C 261.425781 157.242188 264.347656 156.476562 268.472656 159.1875 C 274.617188 163.246094 290.21875 187.847656 285.417969 224.78125 C 298.308594 199.578125 314.511719 157.308594 304.519531 117.941406 C 293.742188 75.484375 278.8125 59.046875 271.625 51.117188 C 265.96875 44.878906 266.664062 39.546875 269.191406 36.625 C 272.714844 32.589844 279.601562 32.683594 285.234375 36.878906 L 285.953125 37.414062 C 310.039062 54.570312 386.535156 118.9375 359.226562 226.453125 C 343.140625 289.773438 301.761719 323.71875 269.886719 341.0625 C 240.378906 357.105469 211.796875 362.925781 196.496094 362.925781 " fill-opacity="1" fill-rule="evenodd"/><g clip-path="url(#9195a86898)"><path stroke-linecap="butt" transform="matrix(2.318094, 0, 0, 2.31863, 8.522738, 9.358677)" fill="none" stroke-linejoin="miter" d="M 79.419662 149.039358 C 83.849823 149.529613 96.929668 147.819619 111.199202 140.069891 C 124.370042 132.919925 141.450344 118.909765 148.089688 92.789813 C 159.32939 48.540552 127.740268 21.979203 117.789677 14.889886 L 117.420638 14.620331 C 116.180395 13.690363 115.110348 13.850412 114.940152 14.020569 C 114.940152 14.089643 115.029463 14.699513 115.939424 15.700238 C 119.220338 19.310601 126.0501 26.829521 130.909965 45.969664 C 137.980697 73.829935 117.289199 103.469275 116.39946 104.719339 L 109.190548 114.879906 L 113.48927 103.130645 C 121.190235 82.069918 111.650812 68.34953 110.329684 67.449888 C 110.240373 67.389238 110.169598 67.350489 110.100508 67.310056 C 109.950533 67.840744 109.750005 69.210424 110.169598 72.460255 C 111.160444 80.060043 105.980408 90.45984 92.819678 107.229577 C 80.700348 122.680176 79.510658 143.599387 79.409551 149.020826 M 81.089609 152.489672 C 79.370794 152.489672 78.049665 152.319515 77.200369 152.019634 L 76.120211 151.630463 L 76.089879 150.469689 C 76.059547 149.389781 75.489979 123.930241 90.23977 105.130412 C 102.439986 89.580415 107.719444 79.350774 106.880258 72.930293 C 106.239915 68.000792 106.68984 65.330506 108.349676 64.260706 C 109.099551 63.78056 110.360016 63.450354 112.139495 64.619552 C 114.790177 66.36998 121.520517 76.980368 119.449513 92.909428 C 125.010385 82.039593 132.000233 63.8092 127.689714 46.830558 C 123.040489 28.519299 116.599988 21.429983 113.499381 18.009994 C 111.059337 15.319491 111.359288 13.019843 112.449555 11.75967 C 113.969527 10.019351 116.940381 10.059784 119.370313 11.869177 L 119.680374 12.099984 C 130.070779 19.49929 163.07034 47.260162 151.289717 93.63049 C 144.350423 120.939856 126.500025 135.580103 112.749505 143.060275 C 100.020164 149.979434 87.690195 152.489672 81.089609 152.489672 " stroke="#4465dc" stroke-width="3" stroke-opacity="1" stroke-miterlimit="10"/></g><path fill="#4465dc" d="M 100.109375 41.5625 C 99.066406 41.5625 97.445312 41.914062 95.660156 43.257812 L 94.800781 43.882812 C 71.945312 60.300781 -0.609375 121.882812 25.214844 224.503906 C 40.535156 285.414062 80.128906 317.945312 110.636719 334.5 C 143.089844 352.144531 172.78125 356.015625 182.890625 354.925781 C 182.65625 342.335938 179.921875 293.855469 152.058594 258.007812 C 121.855469 219.125 109.9375 195.011719 112.210938 177.390625 C 113.183594 169.921875 112.746094 166.722656 112.375 165.472656 C 112.234375 165.542969 112.09375 165.632812 111.910156 165.75 C 106.648438 169.34375 87.917969 202.382812 104.652344 248.503906 L 114.597656 275.910156 L 97.910156 252.140625 C 95.867188 249.242188 48.324219 180.542969 64.574219 115.945312 C 75.746094 71.589844 91.417969 54.132812 98.953125 45.761719 C 101.0625 43.417969 101.269531 42.003906 101.199219 41.75 C 101.085938 41.632812 100.667969 41.519531 100.085938 41.519531 M 107.019531 341.457031 C 75.144531 324.136719 33.789062 290.144531 17.773438 226.476562 C -9.304688 118.960938 66.5 54.59375 90.375 37.4375 L 91.09375 36.902344 C 96.65625 32.730469 103.496094 32.589844 107.019531 36.601562 C 109.570312 39.5 110.285156 44.855469 104.652344 51.117188 C 97.539062 59.023438 82.75 75.484375 72.0625 117.941406 C 62.164062 157.265625 78.136719 199.441406 90.882812 224.644531 C 86.179688 187.777344 101.617188 163.246094 107.691406 159.1875 C 111.769531 156.453125 114.691406 157.21875 116.429688 158.308594 C 120.277344 160.765625 121.320312 166.980469 119.835938 178.433594 C 117.914062 193.320312 130.058594 217.0625 158.085938 253.117188 C 191.953125 296.707031 190.65625 355.738281 190.585938 358.21875 L 190.515625 360.910156 L 188.035156 361.8125 C 186.089844 362.507812 183.050781 362.902344 179.109375 362.902344 C 164.066406 362.902344 136.019531 357.199219 107.019531 341.433594 Z M 107.019531 341.457031 " fill-opacity="1" fill-rule="evenodd"/><g clip-path="url(#1d8e041b54)"><path stroke-linecap="butt" transform="matrix(2.318094, 0, 0, 2.31863, 8.522738, 9.358677)" fill="none" stroke-linejoin="miter" d="M 39.509454 13.889161 C 39.059528 13.889161 38.360207 14.040786 37.59011 14.620331 L 37.219385 14.889886 C 27.359791 21.970779 -3.939492 48.530444 7.200788 92.789813 C 13.8098 119.059705 30.890102 133.090082 44.050832 140.22994 C 58.050748 147.839835 70.85929 149.509396 75.220361 149.039358 C 75.119254 143.609495 73.939676 122.700392 61.919767 107.239686 C 48.890476 90.469949 43.749197 80.070151 44.729933 72.470364 C 45.149526 69.249172 44.960793 67.869384 44.800707 67.330272 C 44.740043 67.360597 44.679379 67.399346 44.600179 67.449888 C 42.330332 68.999833 34.250217 83.249224 41.46924 103.140754 L 45.759536 114.960773 L 38.560735 104.709231 C 37.679421 103.459166 17.169915 73.829935 24.179984 45.969664 C 28.999406 26.83963 35.760078 19.310601 39.01066 15.700238 C 39.920621 14.689404 40.009932 14.079534 39.9796 13.970027 C 39.930732 13.919486 39.750425 13.870629 39.499343 13.870629 M 42.490418 143.230432 C 28.739898 135.760368 10.899611 121.099905 3.990649 93.640598 C -7.690552 47.270271 25.010744 19.509398 35.310153 12.110093 L 35.620213 11.879286 C 38.019814 10.080001 40.970446 10.019351 42.490418 11.749562 C 43.590796 12.999627 43.899172 15.309383 41.46924 18.009994 C 38.400649 21.419874 32.020813 28.519299 27.410345 46.830558 C 23.140269 63.790669 30.030695 81.980627 35.529217 92.850463 C 33.500342 76.950043 40.159907 66.36998 42.780257 64.619552 C 44.539515 63.440246 45.799979 63.770452 46.549854 64.24049 C 48.20969 65.300181 48.659615 67.980576 48.019272 72.920185 C 47.190197 79.340666 52.429212 89.580415 64.519896 105.130412 C 79.129823 123.930241 78.570365 149.389781 78.540033 150.45958 L 78.509701 151.620355 L 77.439655 152.009526 C 76.600468 152.309407 75.289451 152.479564 73.589172 152.479564 C 67.099803 152.479564 55.000694 150.019867 42.490418 143.220324 Z M 42.490418 143.230432 " stroke="#4465dc" stroke-width="3" stroke-opacity="1" stroke-miterlimit="10"/></g></svg>