<svg width="500" height="500" viewBox="0 0 500 500" fill="none" xmlns="http://www.w3.org/2000/svg">
<g clip-path="url(#clip0_605_6754)">
<path d="M117.186 22.7321C103.707 25.0959 92.9483 33.4874 86.9185 46.2519C83.9627 52.6342 83.8445 53.8161 83.4898 76.745L83.1351 100.738H66.5828C53.2228 100.738 49.0847 101.21 44.2373 102.983C35.0153 106.529 28.3944 112.557 23.9016 121.775L20 129.694V242.566V355.438L23.9016 363.356C28.3944 372.575 35.0153 378.603 44.2373 382.149C49.0847 383.921 53.2228 384.394 66.5828 384.394H83.1351L83.4898 412.996C83.8445 445.262 84.3174 447.271 93.4212 455.308C102.88 463.582 91.8842 462.991 240.5 462.991C389.116 462.991 378.12 463.582 387.579 455.308C396.683 447.271 397.156 445.262 397.51 412.996L397.865 384.394H414.299C428.014 384.394 431.797 384.04 437.236 381.912C445.512 378.839 453.67 371.039 457.808 362.174L461 355.438V242.566V129.694L457.098 121.775C452.606 112.557 445.985 106.529 436.763 102.983C431.915 101.21 427.777 100.738 414.417 100.738H397.865L397.51 76.745L397.156 52.7524L393.254 44.9518C388.643 35.4966 381.313 28.6416 371.854 24.8595L365.233 22.1411L244.047 22.0229C177.365 21.9047 120.26 22.2593 117.186 22.7321ZM364.879 54.5252L368.78 57.9527L369.135 79.3452L369.49 100.738H240.5H111.51L111.865 79.3452L112.22 57.9527L116.121 54.5252L119.905 51.0977H240.5H361.095L364.879 54.5252ZM429.078 132.058L432.034 134.895V242.566V350.237L429.078 353.074C426.358 355.91 425.531 356.029 411.934 356.029H397.747V321.99C397.747 302.252 397.274 286.178 396.564 283.696C394.554 276.723 388.406 269.513 381.313 265.849L374.81 262.658H240.5H106.19L99.6874 265.849C92.5936 269.513 86.4456 276.723 84.4357 283.696C83.7263 286.178 83.2534 302.252 83.2534 321.99V356.029H69.0657C55.4692 356.029 54.6416 355.91 51.9223 353.074L48.9665 350.237V242.566V134.895L51.9223 132.058L54.7598 129.103H240.5H426.24L429.078 132.058ZM368.78 362.529V433.443H240.5H112.22L111.865 363.711C111.747 325.299 111.865 293.27 112.22 292.442C112.575 291.26 138.94 291.024 240.736 291.26L368.78 291.615V362.529Z" fill="#4465DC"/>
<path d="M150.448 312.518C145.243 314.403 142.038 318.816 142 324.171C142 327.829 142.905 330.318 145.206 332.807C153.276 341.67 167.796 335.485 166.966 323.568C166.627 318.929 163.76 314.818 159.574 312.933C157.198 311.877 152.748 311.688 150.448 312.518Z" fill="#4465DC"/>
<path d="M145.597 343.233C137.936 344.386 133.081 347.66 131.564 352.609C130.919 354.767 130.805 361.056 131.336 363.921C131.981 367.158 133.271 370.023 134.826 371.549C136.191 372.888 136.456 373 138.391 373H140.477V367.977C140.477 363.586 140.553 362.953 141.159 362.656C141.501 362.433 142.183 362.433 142.676 362.619C143.473 362.916 143.511 363.102 143.511 367.977V373H153.941H164.37V368.2C164.37 364.33 164.484 363.251 164.977 362.805C165.66 362.098 165.736 362.098 166.684 362.581C167.329 362.953 167.405 363.4 167.405 367.977V373H169.491C171.273 373 171.728 372.851 172.904 371.809C175.748 369.391 177 365.26 177 358.488C177 354.619 176.886 353.502 176.204 351.791C174.686 347.921 171.273 345.428 165.584 343.902C163.195 343.27 161.298 343.121 155.268 343.009C151.21 342.972 146.848 343.047 145.597 343.233Z" fill="#4465DC"/>
<line x1="203.5" y1="338.5" x2="346.5" y2="338.5" stroke="white" stroke-width="19" stroke-linecap="round"/>
<path d="M207 373H311.5" stroke="white" stroke-width="19" stroke-linecap="round"/>
</g>
<defs>
<clipPath id="clip0_605_6754">
<rect width="500" height="500" fill="white"/>
</clipPath>
</defs>
</svg>
