<svg width="500" height="500" viewBox="0 0 500 500" fill="none" xmlns="http://www.w3.org/2000/svg">
<g clip-path="url(#clip0_607_6619)">
<path d="M46.1442 74.6707C32.9337 76.6198 23.1882 84.9576 19.9397 97.0853C18.0989 103.907 17.2327 325.454 18.8569 344.079C20.048 356.856 22.4302 364.219 26.8698 368.984C30.4432 372.882 38.5644 376.564 46.1442 377.863C55.6731 379.379 443.434 379.379 453.18 377.863C462.384 376.347 471.48 371.799 474.62 367.143C475.919 365.086 477.868 360.646 478.951 357.398C480.684 351.767 480.792 341.588 480.792 225.184C480.792 105.531 480.684 98.7095 478.735 92.5374C476.244 84.1996 471.047 79.1103 462.276 76.1867C456.104 74.2376 449.823 74.1293 253.939 74.021C142.841 73.9127 49.3927 74.2376 46.1442 74.6707ZM455.562 99.3592L458.053 101.85L458.378 207.859L458.594 313.976H249.608H40.6218L40.8383 209.158C41.0549 124.481 41.488 104.015 42.5709 101.958C45.9276 96.1107 34.9911 96.3273 251.99 96.6521L453.072 96.8687L455.562 99.3592ZM458.378 342.671C458.053 346.569 457.078 350.576 456.32 351.55C452.314 356.315 459.027 356.206 250.474 356.206C116.636 356.206 51.7749 355.882 48.9596 355.015C43.762 353.608 41.5963 350.251 40.9466 342.13L40.2969 335.633H249.608H458.919L458.378 342.671Z" fill="#4465DC"/>
<line x1="266.508" y1="285.141" x2="429.313" y2="285.141" stroke="#4465DC" stroke-width="3" stroke-linecap="round"/>
<path d="M145.571 132.953C134.746 136.422 128.078 144.541 128 154.395C128 161.126 129.883 165.705 134.668 170.285C151.454 186.592 181.655 175.212 179.929 153.284C179.223 144.749 173.261 137.185 164.554 133.716C159.612 131.773 150.356 131.426 145.571 132.953Z" fill="#4465DC"/>
<path d="M141.972 178.504C127.816 181.003 118.845 188.098 116.042 198.82C114.851 203.496 114.64 217.121 115.622 223.329C116.813 230.343 119.196 236.55 122.069 239.856C124.592 242.758 125.083 243 128.657 243H132.511V232.116C132.511 222.603 132.651 221.233 133.773 220.588C134.403 220.104 135.665 220.104 136.576 220.507C138.048 221.152 138.118 221.555 138.118 232.116V243H157.39H176.663V232.6C176.663 224.216 176.873 221.878 177.784 220.91C179.046 219.378 179.186 219.378 180.938 220.426C182.129 221.233 182.269 222.2 182.269 232.116V243H186.124C189.418 243 190.259 242.678 192.431 240.42C197.687 235.18 200 226.231 200 211.558C200 203.174 199.79 200.755 198.528 197.047C195.725 188.662 189.418 183.26 178.905 179.955C174.49 178.584 170.986 178.262 159.843 178.02C152.344 177.94 144.285 178.101 141.972 178.504Z" fill="#4465DC"/>
<path d="M333.383 119.466C327.32 120.76 321.192 124.704 317.363 129.785C316.31 131.173 297.45 163.14 297.003 164.308C296.908 164.528 298.918 164.024 301.694 163.077C304.343 162.225 306.577 161.562 306.673 161.657C306.768 161.752 307.119 163.55 307.47 165.696C307.789 167.842 308.172 169.956 308.268 170.398C308.428 171.155 308.46 171.187 308.906 170.556C309.162 170.209 313.502 162.856 318.544 154.178C324.639 143.701 328.213 137.863 329.266 136.727C334.755 130.731 344.105 130.763 349.53 136.822C350.296 137.674 353.232 142.344 356.072 147.204C358.912 152.064 361.338 156.198 361.433 156.387C361.593 156.608 360.157 157.554 357.7 158.911C355.53 160.111 353.838 161.183 353.966 161.31C354.445 161.72 376.783 170.714 376.974 170.524C377.166 170.335 381.155 146.32 380.995 146.163C380.963 146.131 379.304 146.983 377.294 148.119C375.283 149.224 373.56 150.044 373.432 149.918C373.336 149.823 371.039 145.973 368.358 141.366C365.678 136.759 362.837 131.994 362.008 130.795C358.019 124.957 351.987 120.917 344.999 119.434C342.286 118.835 336.095 118.866 333.383 119.466Z" fill="white"/>
<path d="M337.225 165.085C334.37 165.7 333.263 166.264 331.976 167.726C330.488 169.392 329.623 171.904 329.302 175.493L329.181 176.724H332.358H335.516L335.757 175.467C336.22 172.981 337.145 172.007 339.055 172.032C341.267 172.058 342.474 173.596 342.474 176.339C342.474 178.185 341.991 179.441 341.026 180.056C340.423 180.466 339.84 180.569 338.231 180.569H336.22V184.158V187.747H338.291C340.664 187.747 341.469 188.106 342.213 189.541C342.635 190.336 342.675 190.669 342.615 192.412C342.555 194.514 342.273 195.284 341.207 196.283C340.021 197.411 337.607 197.257 336.582 196.027C336.26 195.642 335.858 194.771 335.657 194.104L335.315 192.874H332.157H329L329.121 193.822C329.905 200.872 332.942 203.974 339.035 204C342.575 204.025 344.767 202.974 346.697 200.385C347.924 198.744 348.608 196.924 348.889 194.54C349.372 190.515 348.246 186.542 346.094 184.619L345.611 184.183L346.617 182.953C347.844 181.44 348.407 179.954 348.688 177.544C349.372 171.93 347.2 167.315 343.057 165.675C341.79 165.188 338.372 164.829 337.225 165.085Z" fill="white"/>
<path d="M385.68 171.228C385.624 171.443 385.343 173.171 385.091 175.114C384.838 177.031 384.585 178.785 384.529 178.947C384.445 179.19 383.152 178.866 380.203 177.895C377.872 177.139 375.905 176.572 375.821 176.626C375.737 176.707 379.557 183.212 384.276 191.067C394.416 207.937 394.641 208.342 395.09 210.636C395.652 213.551 394.669 217.087 392.618 219.706C391.411 221.217 388.77 222.945 386.72 223.566C385.006 224.078 384.107 224.105 372.001 224.105H359.136L359.052 220.434L358.968 216.737L350.682 223.026C346.131 226.481 342.227 229.45 342.03 229.612C341.749 229.882 343.35 231.231 350.26 236.468C354.979 240.058 358.884 243 358.968 243C359.052 243 359.108 241.38 359.108 239.383V235.739L372.956 235.658C386.158 235.55 386.888 235.523 389.023 234.956C397.281 232.77 403.517 227.075 406.101 219.382C406.944 216.844 407 216.44 407 212.634C407 207.991 406.466 205.67 404.641 202.188C403.545 200.109 386.439 171.524 386.046 171.093C385.905 170.931 385.765 170.985 385.68 171.228Z" fill="white"/>
<path d="M296.131 174.775C290.346 176.825 285.604 178.547 285.604 178.629C285.604 178.711 287.185 179.641 289.123 180.679L292.612 182.592L286.409 192.432C278.388 205.196 278 206.098 278 212.521C278 216.703 278.298 218.289 279.759 221.596C280.893 224.192 282.324 226.16 284.71 228.456C288.198 231.845 292.135 234.005 297.085 235.262C299.411 235.836 300.007 235.863 317.75 235.973C327.77 236.027 336 236 336 235.891C336 235.781 334.658 234.387 333.018 232.802L330.036 229.878L333.018 227.336C334.658 225.914 336 224.657 336 224.548C336 224.411 328.128 224.247 318.048 224.22L300.067 224.138L298.099 223.263C292.194 220.612 289.272 215.118 290.823 209.652C291.151 208.504 293.149 205.087 297.443 198.254L303.586 188.469L304.51 188.988C308.744 191.366 310.504 192.268 310.593 192.049C310.653 191.913 309.997 187.266 309.162 181.718C308.357 176.169 307.671 171.495 307.671 171.304C307.671 171.113 307.432 170.976 307.164 171.003C306.866 171.031 301.886 172.698 296.131 174.775Z" fill="white"/>
</g>
<defs>
<clipPath id="clip0_607_6619">
<rect width="500" height="500" fill="white"/>
</clipPath>
</defs>
</svg>
