<svg width="500" height="500" viewBox="0 0 500 500" fill="none" xmlns="http://www.w3.org/2000/svg">
<path d="M130.4 14C129.3 14.4 127 16.4 125.2 18.4C122.4 21.7 122 22.7 122 28.1C122 33.7 122.3 34.4 125.9 38.3L129.9 42.5L162.9 42.8L196 43.1V65V87H119.8C45.4 87 43.4 87.1 40.2 89C38.4 90.1 36.1 92.3999 35 94.1999C33.1 97.3999 33 99.3999 33 146.6V195.7L35.3 199.1C40.2 206.5 30.9 206 161.6 206C277.5 206 278.8 206 281.3 208L283.9 210L284.2 237.8C284.5 263.9 284.7 265.8 286.8 271.2C289.6 278.3 297.1 286.7 303.7 290.2C312 294.7 317.1 295.2 347.5 294.8L375.6 294.5L382.2 291.2C390.4 287.2 397.9 279.3 401.2 271.2L403.5 265.5V215C403.5 175.9 403.2 163.1 402.1 158.5C393.7 121.5 365.9 94.5 329.6 88.1C326 87.4 304.5 87 274.8 87H226V65V43H257.9C289.3 43 289.7 43 293.1 40.7C302.1 34.7 302.1 21.3 293.1 15.3L289.7 13L211.1 13.1C167.9 13.1 131.6 13.5 130.4 14ZM330 119.4C346.9 125.1 359.7 135.9 366.9 150.5C372.7 162.2 373 165.1 373 214.7C373 258.7 372.9 260.1 371 262C369.1 263.9 367.7 264 344.2 264C324.4 264 319 263.7 317.4 262.6C315.6 261.3 315.5 259.4 315 232.8C314.5 206.5 314.3 204.1 312.2 198.8C309.2 191.3 302.6 184.2 294.8 179.9L288.5 176.5L175.8 176.2L63 176V146.5V116.9L193.8 117.2C318 117.5 324.8 117.6 330 119.4Z" fill="#4465DC"/>
<path d="M336.1 325.8C329.2 329.5 326.7 340.3 331.3 347.1C339.5 359.5 359 353.8 359 339.1C359 330 353 324 344 324C341.5 324 337.9 324.8 336.1 325.8Z" fill="white"/>
<path d="M307.2 370C299.7 373.4 296.8 384.4 301.5 391.6C305.6 397.9 316.1 400.1 322.8 396C332.5 390 331.4 373.8 321 369.6C315.7 367.5 312.5 367.6 307.2 370Z" fill="white"/>
<path d="M366.5 369.9C361.5 372.2 358.6 377 358.6 383C358.7 392.2 364.4 398 373.5 398C385.4 398 392 387.6 387.2 376.6C383.8 368.9 374.9 366 366.5 369.9Z" fill="white"/>
<path d="M276.3 415C267 420.6 268 436.2 278 441.2C282.7 443.6 286.7 443.5 292 440.7C297.1 438.1 300 433.4 300 427.7C300 422.9 296.8 416.9 293 414.7C289 412.3 280.4 412.5 276.3 415Z" fill="white"/>
<path d="M335.4 414.9C329.7 418.4 327.4 427.2 330.4 434.4C334.5 444.3 349.8 445.7 356.3 436.8C359.1 433 359.7 425.2 357.4 420.5C355 415.4 350.8 413 344 413C340.4 413 337.4 413.6 335.4 414.9Z" fill="white"/>
<path d="M394.8 414.7C388.6 418.6 386.3 428.2 389.8 435C391.9 439 398.7 443 403.5 443C411.4 443 418 436.1 418 427.8C418 418.2 412.7 413 403 413C399.7 413 396.5 413.7 394.8 414.7Z" fill="white"/>
<path d="M248.1 458.8C243.3 461.2 240.8 465 240.3 470.7C239.2 483 251.5 490.9 262.8 485.1C267.7 482.6 270 478.4 270 472C270 465.6 267.7 461.4 262.8 458.9C258.2 456.5 252.5 456.5 248.1 458.8Z" fill="white"/>
<path d="M307.1 458.8C302.3 461.2 299.8 465 299.3 470.7C298.2 482.9 310.9 491 322 485.2C325.8 483.2 330 476.3 330 472C330 467.7 325.8 460.8 322 458.8C317.6 456.5 311.5 456.5 307.1 458.8Z" fill="white"/>
<path d="M366 458.8C356.1 463.7 356.1 479.9 366 485.1C372.8 488.8 381.8 486.9 386.1 480.9C391.3 473.6 388.3 461.7 380.4 458.4C375.9 456.5 370.2 456.6 366 458.8Z" fill="white"/>
<path d="M425.2 458.8C420.3 461.5 418 465.6 418 471.8C418 481.1 422.7 486.1 432 486.8C436.5 487.1 438.1 486.8 441 484.8C445.9 481.5 448.2 476.7 447.7 470.7C447.5 468 446.4 464.6 445.3 463.2C441 457.3 431.8 455.3 425.2 458.8Z" fill="white"/>
</svg>
