<svg xmlns:xlink="http://www.w3.org/1999/xlink" xmlns="http://www.w3.org/2000/svg" viewBox="0 0 35 39" width="35"  height="39" >
                            <path d="M34.926,38.904 C34.866,38.966 34.782,39.002 34.693,39.002 L0.319,39.002 C0.230,39.002 0.145,38.966 0.086,38.903 C0.025,38.841 -0.005,38.758 0.002,38.673 L2.230,10.646 C2.242,10.489 2.380,10.366 2.546,10.366 L8.324,10.366 C8.324,9.915 8.324,9.424 8.324,8.842 C8.324,3.972 12.466,0.008 17.555,0.008 C22.643,0.008 26.786,3.972 26.786,8.842 C26.786,9.425 26.786,9.915 26.786,10.366 L32.466,10.366 C32.631,10.366 32.770,10.490 32.783,10.648 L35.010,38.674 C35.017,38.758 34.987,38.841 34.926,38.904 ZM24.239,8.842 C24.239,5.315 21.240,2.445 17.555,2.445 C13.869,2.445 10.872,5.315 10.872,8.842 C10.872,9.463 10.871,9.952 10.871,10.366 L24.239,10.366 C24.239,9.920 24.239,9.418 24.239,8.842 ZM31.063,12.122 L26.785,12.122 C26.785,14.980 26.785,12.844 26.785,15.849 C26.785,16.522 26.213,17.068 25.511,17.068 C24.811,17.068 24.239,16.522 24.239,15.849 C24.239,14.247 24.239,13.680 24.239,12.122 L10.871,12.122 C10.871,12.934 10.870,13.552 10.870,15.849 C10.870,16.522 10.299,17.068 9.597,17.068 C8.896,17.068 8.324,16.522 8.324,15.849 C8.325,12.754 8.325,15.055 8.324,12.122 L3.949,12.122 L1.953,37.246 L33.059,37.246 L31.063,12.122 ZM8.708,25.627 C8.999,25.423 9.409,25.483 9.622,25.762 C9.640,25.785 15.798,34.113 24.600,25.689 C24.854,25.445 25.271,25.445 25.526,25.689 C25.781,25.933 25.781,26.331 25.526,26.575 C15.628,36.049 8.588,26.529 8.568,26.502 C8.354,26.224 8.417,25.832 8.708,25.627 Z" fill="#1695CE"></path>
                        </svg>