<svg xmlns:xlink="http://www.w3.org/1999/xlink" xmlns="http://www.w3.org/2000/svg" viewBox="0 0 60 60" width="60"  height="60" >
                            <path class="fil0" d="M25.83 33.09l-10.31 0c-0.76,0 -1.39,0.55 -1.39,1.23 0,0.67 0.63,1.23 1.39,1.23l10.31 0c0.76,0 1.39,-0.56 1.39,-1.23 0,-0.68 -0.63,-1.23 -1.39,-1.23z" fill="#AB012E"></path>
                            <path class="fil1" d="M48.54 31.25c-0.78,-0.33 -1.6,-0.58 -2.45,-0.75 -0.83,-0.16 -1.69,-0.25 -2.57,-0.25 -0.88,0 -1.74,0.09 -2.57,0.25 -0.86,0.17 -1.68,0.43 -2.46,0.75 -0.8,0.33 -1.57,0.74 -2.28,1.22 -0.71,0.48 -1.39,1.03 -2,1.64 -0.61,0.61 -1.16,1.29 -1.64,2 -0.48,0.71 -0.89,1.48 -1.22,2.27 -0.32,0.79 -0.58,1.61 -0.74,2.47 -0.17,0.83 -0.25,1.69 -0.25,2.56 0,0.88 0.08,1.74 0.25,2.57 0.17,0.86 0.42,1.68 0.74,2.46 0.33,0.8 0.75,1.57 1.22,2.28 0.48,0.72 1.04,1.39 1.65,2 0.6,0.61 1.28,1.16 2,1.64 0.71,0.48 1.47,0.89 2.27,1.22 0.78,0.32 1.6,0.58 2.46,0.74 0.83,0.17 1.69,0.26 2.57,0.26 0.88,0 1.74,-0.09 2.57,-0.26 0.85,-0.16 1.67,-0.42 2.45,-0.74 0.8,-0.33 1.57,-0.74 2.28,-1.22 0.72,-0.48 1.39,-1.03 2,-1.64 0.62,-0.62 1.17,-1.29 1.65,-2.01 0.47,-0.71 0.88,-1.47 1.21,-2.27 0.33,-0.78 0.58,-1.6 0.75,-2.46 0.16,-0.83 0.25,-1.69 0.25,-2.57 0,-0.87 -0.09,-1.73 -0.25,-2.57 -0.17,-0.85 -0.42,-1.67 -0.75,-2.45 -0.33,-0.8 -0.74,-1.57 -1.22,-2.28 -0.48,-0.72 -1.03,-1.39 -1.64,-2 -0.61,-0.61 -1.29,-1.17 -2,-1.65 -0.71,-0.47 -1.48,-0.88 -2.28,-1.21zm-0.96 2.35c0.64,0.27 1.26,0.6 1.84,0.98 0.57,0.39 1.12,0.83 1.61,1.32 0.49,0.49 0.93,1.04 1.32,1.61 0.38,0.58 0.71,1.2 0.98,1.84 0.26,0.64 0.47,1.31 0.6,1.99 0.14,0.67 0.21,1.37 0.21,2.07 0,0.71 -0.07,1.41 -0.21,2.07 -0.13,0.69 -0.34,1.36 -0.6,1.99 -0.27,0.65 -0.6,1.27 -0.98,1.84 -0.39,0.58 -0.83,1.13 -1.32,1.62 -0.49,0.48 -1.03,0.93 -1.61,1.32 -0.58,0.38 -1.19,0.71 -1.84,0.98 -0.64,0.26 -1.31,0.47 -1.99,0.6 -0.67,0.13 -1.36,0.2 -2.07,0.2 -0.71,0 -1.4,-0.07 -2.07,-0.2 -0.69,-0.13 -1.36,-0.34 -1.99,-0.6 -0.65,-0.27 -1.27,-0.6 -1.84,-0.98 -0.58,-0.39 -1.12,-0.83 -1.61,-1.32 -0.5,-0.49 -0.94,-1.04 -1.33,-1.62 -0.38,-0.57 -0.71,-1.19 -0.98,-1.84 -0.26,-0.63 -0.46,-1.3 -0.6,-1.99 -0.13,-0.66 -0.2,-1.36 -0.2,-2.07 0,-0.7 0.07,-1.4 0.2,-2.07 0.14,-0.68 0.34,-1.35 0.6,-1.99 0.27,-0.64 0.6,-1.26 0.98,-1.84 0.39,-0.57 0.83,-1.12 1.32,-1.61 0.5,-0.49 1.04,-0.93 1.62,-1.32 0.57,-0.38 1.19,-0.71 1.84,-0.98 0.63,-0.26 1.3,-0.47 1.99,-0.6 0.67,-0.14 1.36,-0.21 2.07,-0.21 0.71,0 1.4,0.07 2.07,0.21 0.68,0.13 1.35,0.34 1.99,0.6z" fill="#AB012E"></path>
                            <path class="fil2" d="M42.47 47.87c-0.1,0.11 -0.25,0.17 -0.4,0.17 -0.15,0 -0.3,-0.06 -0.4,-0.17l-3.22 -3.22c-0.34,-0.33 -0.34,-0.88 0,-1.21l0.4 -0.4c0.33,-0.34 0.88,-0.34 1.21,0l2.01 2.01 5.43 -5.43c0.34,-0.34 0.88,-0.34 1.21,0l0.4 0.4c0.34,0.33 0.34,0.87 0,1.21l-6.64 6.64z" fill="#AB012E"></path>
                            <path class="fil0" d="M38.31 2.59c-0.26,-0.19 -0.63,-0.29 -1.01,-0.3 -0.37,-0.01 -0.76,0.07 -1.05,0.24 -1.25,0.83 -2.54,1.82 -3.77,2.7l-3.68 -2.64c-0.27,-0.19 -0.64,-0.29 -1.01,-0.3 -0.38,-0.01 -0.77,0.07 -1.05,0.24 -1.24,0.81 -2.57,1.82 -3.78,2.7l-3.68 -2.64c-0.27,-0.19 -0.64,-0.29 -1.01,-0.3 -0.38,-0.01 -0.76,0.07 -1.05,0.24 -1.25,0.82 -2.55,1.82 -3.77,2.7l-3.7 -2.64c-0.24,-0.17 -0.59,-0.26 -0.94,-0.26 -0.68,-0.04 -0.78,0.35 -0.77,0.87l0 50.11c-0.01,0.22 0.11,0.71 0.61,0.78 0.4,0.01 0.83,-0.12 1.11,-0.32l3.69 -2.65 3.68 2.64c0.26,0.19 0.63,0.3 1,0.3 0.38,0.01 0.76,-0.07 1.06,-0.24 1.27,-0.85 2.53,-1.81 3.78,-2.7l3.68 2.64c0.26,0.19 0.63,0.3 1.01,0.3 0.37,0.01 0.76,-0.07 1.05,-0.24 1.4,-0.9 2.83,-1.97 4.2,-2.93 1.11,0.8 2.26,1.58 3.35,2.4 0.32,0.24 0.7,0.54 1.05,0.64l-1.1 -2.27 -0.41 0.29 -2.26 -2.68c-0.26,-0.18 -0.62,-0.28 -0.99,-0.29 -0.37,-0.01 -0.76,0.07 -1.05,0.24 -1.25,0.83 -2.54,1.82 -3.77,2.7l-3.68 -2.64c-0.27,-0.19 -0.64,-0.29 -1.01,-0.3 -0.38,-0.01 -0.77,0.07 -1.06,0.24 -1.26,0.83 -2.55,1.82 -3.78,2.7l-3.69 -2.65c-0.14,-0.1 -0.3,-0.18 -0.48,-0.23 -0.18,-0.05 -0.39,-0.08 -0.6,-0.08 -0.21,0 -0.41,0.03 -0.59,0.08 -0.17,0.05 -0.33,0.13 -0.46,0.23l-2.24 1.65 0 -45.48 2.24 1.63c0.13,0.1 0.29,0.18 0.46,0.23 0.18,0.05 0.38,0.08 0.59,0.08 0.21,0 0.42,-0.03 0.6,-0.08 0.18,-0.05 0.35,-0.13 0.48,-0.23l3.69 -2.65 3.68 2.64c0.26,0.19 0.63,0.29 1.01,0.3 0.37,0.01 0.76,-0.07 1.05,-0.24 1.27,-0.86 2.52,-1.81 3.78,-2.7l3.68 2.64c0.26,0.19 0.63,0.29 1,0.3 0.38,0.01 0.76,-0.07 1.05,-0.24 1.27,-0.86 2.53,-1.8 3.78,-2.7l3.72 2.65c0.13,0.1 0.3,0.18 0.48,0.23 0.18,0.05 0.39,0.08 0.6,0.08 0.21,0 0.41,-0.03 0.59,-0.08 0.17,-0.05 0.33,-0.13 0.45,-0.22l2.27 -1.65 0 17.22 0 3.07 0 0.03 0 0.23c0,0.58 0.46,1.05 1.04,1.05l0 0c0.24,0 0.47,-0.09 0.64,-0.23 0.32,-0.18 0.42,-0.54 0.42,-1.04l0 -22.64c-0.01,-0.1 0.08,-0.85 -0.81,-0.8 -0.35,0.01 -0.69,0.11 -0.92,0.27l-3.68 2.65 -3.72 -2.65z" fill="#AB012E"></path>
                            <path class="fil0" d="M23.25 39.57l-7.73 0c-0.76,0 -1.39,0.55 -1.39,1.23 0,0.68 0.63,1.23 1.39,1.23l7.73 0c0.77,0 1.39,-0.55 1.39,-1.23 0,-0.68 -0.63,-1.23 -1.39,-1.23z" fill="#AB012E"></path>
                            <path class="fil3" d="M20.38 19.62l1.78 0.55c-0.27,1 -0.73,1.75 -1.36,2.23 -0.64,0.49 -1.45,0.73 -2.42,0.73 -1.21,0 -2.21,-0.41 -2.99,-1.24 -0.78,-0.82 -1.17,-1.95 -1.17,-3.39 0,-1.51 0.4,-2.69 1.18,-3.53 0.78,-0.84 1.81,-1.26 3.09,-1.26 1.11,0 2.02,0.33 2.71,0.99 0.42,0.39 0.73,0.95 0.93,1.68l-1.81 0.43c-0.11,-0.47 -0.34,-0.84 -0.68,-1.11 -0.34,-0.28 -0.76,-0.41 -1.24,-0.41 -0.68,0 -1.23,0.24 -1.65,0.72 -0.42,0.49 -0.63,1.27 -0.63,2.36 0,1.14 0.21,1.96 0.62,2.45 0.42,0.49 0.95,0.74 1.62,0.74 0.49,0 0.91,-0.16 1.26,-0.47 0.35,-0.31 0.61,-0.8 0.76,-1.47zm3.33 3.36l0 -9.11 2.77 0 1.63 6.22 1.61 -6.22 2.77 0 0 9.11 -1.7 0 -0.01 -7.17 -1.8 7.17 -1.77 0 -1.78 -7.17 -0.01 7.17 -1.71 0zm10.14 -2.95l1.79 -0.18c0.11,0.6 0.33,1.04 0.66,1.32 0.33,0.28 0.77,0.42 1.33,0.42 0.58,0 1.03,-0.12 1.33,-0.37 0.3,-0.25 0.45,-0.54 0.45,-0.88 0,-0.21 -0.07,-0.4 -0.19,-0.55 -0.13,-0.15 -0.35,-0.28 -0.66,-0.39 -0.21,-0.08 -0.7,-0.21 -1.46,-0.4 -0.99,-0.25 -1.67,-0.55 -2.07,-0.9 -0.56,-0.51 -0.84,-1.12 -0.84,-1.84 0,-0.47 0.14,-0.9 0.4,-1.31 0.26,-0.4 0.64,-0.71 1.13,-0.92 0.49,-0.21 1.09,-0.32 1.79,-0.32 1.13,0 1.99,0.25 2.57,0.76 0.57,0.5 0.88,1.18 0.9,2.02l-1.84 0.07c-0.08,-0.47 -0.24,-0.81 -0.5,-1.01 -0.26,-0.21 -0.64,-0.31 -1.16,-0.31 -0.53,0 -0.94,0.11 -1.24,0.33 -0.19,0.14 -0.29,0.33 -0.29,0.56 0,0.22 0.09,0.4 0.27,0.56 0.23,0.19 0.79,0.4 1.69,0.61 0.89,0.21 1.55,0.43 1.98,0.65 0.42,0.23 0.76,0.54 1,0.93 0.24,0.39 0.36,0.88 0.36,1.45 0,0.52 -0.14,1.01 -0.43,1.47 -0.29,0.45 -0.7,0.79 -1.23,1.01 -0.53,0.23 -1.19,0.34 -1.98,0.34 -1.16,0 -2.04,-0.27 -2.66,-0.8 -0.61,-0.53 -0.98,-1.3 -1.1,-2.32z" fill="#AB012E"></path>
                        </svg>