<svg xmlns:xlink="http://www.w3.org/1999/xlink" xmlns="http://www.w3.org/2000/svg" viewBox="0 0 51 24" width="51"  height="24" >
                            <path d="M46.353,8.693 L18.427,21.286 C16.603,22.109 13.687,22.772 10.998,22.977 C10.417,23.021 9.874,23.044 9.372,23.044 C6.922,23.045 5.428,22.516 4.923,21.468 C4.535,20.666 4.962,19.903 5.432,19.360 L0.981,14.015 L5.907,11.793 L13.264,14.499 L20.335,11.252 L9.239,0.375 L17.242,0.043 L30.677,6.578 L38.490,3.055 C41.110,1.873 44.942,0.864 48.315,2.765 C49.785,3.593 50.057,4.548 50.026,5.201 C49.967,6.463 48.765,7.606 46.353,8.693 ZM47.504,4.382 C45.381,3.186 42.678,3.313 39.470,4.758 L30.687,8.719 L16.713,1.922 L13.753,2.046 L23.744,11.841 L13.228,16.671 L5.790,13.934 L3.958,14.762 L8.005,19.621 L7.273,20.245 C6.961,20.511 6.791,20.700 6.701,20.820 C7.141,21.048 8.462,21.318 10.931,21.104 C13.348,20.893 15.923,20.302 17.490,19.593 L45.687,6.879 C48.159,5.764 48.221,5.057 48.221,5.049 C48.226,4.947 48.039,4.683 47.504,4.382 ZM42.178,6.067 C41.998,6.152 41.780,6.079 41.692,5.904 L41.377,5.275 C41.289,5.100 41.365,4.889 41.545,4.804 L42.196,4.499 C42.377,4.414 42.594,4.487 42.682,4.662 L42.998,5.291 C43.086,5.466 43.010,5.677 42.829,5.762 L42.178,6.067 ZM39.774,7.251 C39.594,7.336 39.376,7.263 39.289,7.088 L38.973,6.458 C38.885,6.284 38.961,6.073 39.141,5.988 L39.792,5.683 C39.973,5.598 40.190,5.671 40.278,5.846 L40.594,6.475 C40.682,6.650 40.606,6.861 40.425,6.945 L39.774,7.251 ZM37.371,8.435 C37.190,8.519 36.972,8.446 36.885,8.272 L36.569,7.642 C36.481,7.467 36.557,7.257 36.738,7.172 L37.388,6.867 C37.569,6.782 37.787,6.855 37.874,7.030 L38.190,7.659 C38.278,7.834 38.202,8.044 38.022,8.129 L37.371,8.435 ZM34.967,9.618 C34.786,9.703 34.569,9.630 34.481,9.455 L34.165,8.826 C34.077,8.651 34.153,8.441 34.334,8.356 L34.985,8.051 C35.165,7.966 35.383,8.039 35.471,8.214 L35.786,8.843 C35.874,9.018 35.799,9.228 35.618,9.313 L34.967,9.618 Z" fill="#7E3896"></path>
                        </svg>