<?xml version="1.0" encoding="UTF-8"?>
<svg width="103.56" height="99.154" fill-rule="evenodd" image-rendering="optimizeQuality" shape-rendering="geometricPrecision" text-rendering="geometricPrecision" viewBox="0 0 6.75839 6.47084" xmlns="http://www.w3.org/2000/svg">
 <path d="m1.1646 2.2543h0.55101l0.0847 2.9654-0.70985 2.3124e-5 0.07413-2.9654zm-0.51931 3.072h5.4678v0.38154h0.32762l-2.3124e-5 0.38154h0.31772v0.38149l-6.7584-2.3124e-5v-0.38147h0.31772v-0.38154h0.32759v-0.38154zm5.7529-3.9-3.0191-1.4263-3.0192 1.4263 2.3124e-5 0.23318 6.0382 2.3124e-5v-0.2332zm-5.4562 0.33987h4.8743v0.38147h-4.8743v-0.38147zm4.0901 0.4881h0.55101l0.08473 2.9654-0.70985-2.3124e-5 0.07411-2.9654zm-1.2892 0 0.55101 2.3124e-5 0.08473 2.9654-0.70987 2.3124e-5 0.07413-2.9654zm-1.2892 0 0.55099-2.3124e-5 0.08477 2.9654h-0.7099l0.07413-2.9654z" fill="#ef7900"/>
</svg>
