<svg xmlns:xlink="http://www.w3.org/1999/xlink" xmlns="http://www.w3.org/2000/svg" x="0px" y="0px" viewBox="0 0 60 60" width="60"  height="60" >
                                                            <path fill="#00A0E3" d="M11.1,49.6h41.1c2,0,3.7-1.7,3.7-3.7l0,0H7.3l0,0C7.3,47.9,9,49.6,11.1,49.6z M49,28.4c1,0,1.7,0.8,1.7,1.7c0,1-0.8,1.7-1.7,1.7c-1,0-1.7-0.8-1.7-1.7C47.3,29.2,48.1,28.4,49,28.4z M28.9,36.8v-1.5c0-0.2,0.1-0.3,0.3-0.3h0.3c0.9-0.2,1.2-0.7,1.7-1.3c0.3-0.4,0.7-0.5,0.9-0.1V35H33 c0.2,0,0.3,0.1,0.3,0.3v1.5c0,0.2-0.1,0.3-0.3,0.3h-0.8v6.1c0,0.2-0.1,0.3-0.3,0.3h-1.5c-0.2,0-0.3-0.1-0.3-0.3v-6.1h-0.9 C29.1,37.1,28.9,37,28.9,36.8z M39.5,43.1c0,0.2-0.2,0.4-0.4,0.4h-1.4c-0.2,0-0.4-0.2-0.4-0.4v-5.6c0-0.6-1.2-0.7-1.2,0v5.6 c0,0.2-0.2,0.4-0.4,0.4h-1.4c-0.2,0-0.4-0.2-0.4-0.4v-7.8c0-0.2,0.2-0.4,0.4-0.4h1.4c0.2,0,0.4,0.2,0.4,0.4v0.1 c0.8-0.8,2.2-0.7,3,0.2c1.4-1.6,3.8-0.2,3.7,1.6c0,2,0,3.9,0,5.9c0,0.2-0.2,0.4-0.4,0.4h-1.4c-0.2,0-0.4-0.2-0.4-0.4 c0-1.9,0-3.7,0-5.6c-0.1-0.8-1.3-0.6-1.3,0C39.5,39.4,39.5,41.2,39.5,43.1z"></path>
                                                            <path fill="#303983" d="M14.2,35h-3.3c-0.2,0-0.3,0.1-0.3,0.3l0,7.8c0,0.2,0.1,0.3,0.3,0.3c0.5,0,1,0,1.5,0c0.2,0,0.3-0.1,0.3-0.2 c0-0.7,0-1.5,0-2.2H14c0.9-0.1,1.6-0.5,1.8-1.4c0.1-0.3,0.1-0.5,0.1-0.8V37C15.9,35.6,15.2,35.1,14.2,35z M13.9,38.5 c0,0.2-0.2,0.4-0.4,0.4h-0.9v-1.8h0.9c0.2,0,0.4,0.2,0.4,0.4V38.5z M55.4,13.1c-0.8-0.9-2-1.5-3.3-1.5H20.3h0h0h0h-2.2h0h0h0h-6.8c-1.3,0-2.4,0.6-3.3,1.5 c-0.8,0.9-1.4,2.2-1.4,3.5v6.4v0v0v2.4v20c0,1.4,0.5,2.6,1.4,3.5c0.8,0.9,2,1.5,3.3,1.5h40.9c1.3,0,2.4-0.6,3.3-1.5 c0.8-0.9,1.4-2.1,1.4-3.5V16.7C56.8,15.3,56.2,14.1,55.4,13.1z M55,33.7h-7.4c-0.8,0-1.5-0.3-2-0.8c-0.5-0.5-0.8-1.2-0.8-2v-1.2 c0-0.8,0.3-1.5,0.8-2s1.2-0.8,2-0.8H55V33.7z M55,24.9h-7.4c-1.3,0-2.5,0.5-3.3,1.4c-0.9,0.9-1.4,2-1.4,3.3v1.2 c0,1.3,0.5,2.5,1.4,3.3c0.9,0.9,2,1.4,3.3,1.4H55v9.9c0,0.8-0.3,1.6-0.8,2.2c-0.5,0.6-1.2,0.9-2,0.9H11.3c-0.8,0-1.5-0.3-2-0.9 c-0.5-0.6-0.8-1.3-0.8-2.2v-20c0,0,0,0,0,0v-8.8c0-0.8,0.3-1.6,0.8-2.2c0.5-0.6,1.2-0.9,2-0.9H18h0h0h0h2.2h0h0h0h31.8 c0.8,0,1.5,0.4,2,0.9c0.5,0.6,0.8,1.3,0.8,2.2V24.9z M19.9,35h-2.3c-0.2,0-0.3,0-0.3,0.2c0,0.5,0,1,0,1.4c0,0.2,0.2,0.3,0.4,0.3h1.9c0.3,0,0.4,0.8,0,0.8h-1.2 c-1.2,0-1.9,1.1-1.9,2.1c0,0.7-0.1,1.5,0,2.2c0.1,0.7,0.8,1.4,1.7,1.4h3c0.4,0,0.8-0.3,0.8-0.7v-5.4C22,35.8,21.2,35.1,19.9,35z M19.9,41.3c0,0.2-0.1,0.3-0.3,0.3h-0.7c-0.2,0-0.3-0.1-0.3-0.3V40c0-0.2,0.1-0.3,0.3-0.3h0.7c0.2,0,0.3,0.1,0.3,0.3V41.3z M22.7,35.4v3.4c0.1,1.1,1.1,1.9,2.1,1.9h1c0.4,0,0.4,0.7,0,0.7h-2.1c-0.2,0-0.3,0.1-0.3,0.3v1.5 c0,0.2,0.1,0.3,0.3,0.3h2c1.6,0,2.6-0.8,2.6-2.5v-5.7c0-0.2-0.1-0.3-0.2-0.3h-1.6c-0.2,0-0.2,0.2-0.2,0.3v3.1c0,0.1-0.1,0.2-0.2,0.2 H25c-0.2,0-0.3-0.1-0.3-0.3v-3c0-0.2-0.1-0.3-0.3-0.3c-0.5,0-1.1,0-1.6,0C22.7,35,22.7,35.2,22.7,35.4z"></path>
                                                        </svg>