<?xml version="1.0" encoding="UTF-8"?>
<svg viewBox="0 0 640 480" xmlns="http://www.w3.org/2000/svg">
 <g>
  <path d="m367 136.93c-0.33249 22.014-19.623 39.624-43.129 39.372-23.506-0.2515-42.362-18.27-42.157-40.285 0.20477-22.015 19.393-39.723 42.9-39.591 23.507 0.13187 42.467 18.054 42.39 40.07" stroke="#000" stroke-linecap="round" stroke-width="1.25"/>
  <g fill="none">
   <g fill-opacity=".75" fill-rule="evenodd" stroke="#000" stroke-width="25.589">
    <path d="m197.76 480.22h238.43"/>
    <path d="m239.96 422.91h164.58"/>
    <path d="m275.83 365.6h60.58"/>
   </g>
   <path d="m463.39-29.226c57.638 42.698 89.259 109.15 84.626 177.84-4.6331 68.689-44.932 130.88-107.85 166.45" stroke="#0000d5" stroke-linecap="round" stroke-width="15.418"/>
   <g fill-opacity=".75" fill-rule="evenodd" stroke="#000" stroke-width="31.986">
    <path d="m323.31 132.42v0.98805c0 26.144 6.4993 253.84-176.19 403.13"/>
    <path d="m322.79 131.92v0.98805c0 26.144-6.4993 253.84 176.19 403.13"/>
   </g>
   <g stroke="#0000d5" stroke-linecap="round">
    <g stroke-width="12.5">
     <path d="m509.21-58.538c63.436 52.958 97.335 130.3 91.924 209.73-5.411 79.426-49.531 152.11-119.64 197.08"/>
     <path d="m434.72 5.9651c45.315 33.57 70.177 85.815 66.534 139.82-3.6426 54.004-35.326 102.9-84.792 130.87"/>
     <path d="m406.07 43.376c32.562 24.122 50.426 61.663 47.809 100.47-2.6175 38.805-25.384 73.943-60.928 94.035"/>
     <path d="m380.4 70.286c22.793 16.885 35.298 43.164 33.466 70.328-1.8322 27.164-17.769 51.76-42.65 65.825"/>
    </g>
    <path d="m191.7-28.832c-57.638 42.698-89.259 109.15-84.626 177.84 4.6331 68.689 44.932 130.88 107.85 166.45" stroke-width="15.418"/>
    <g stroke-width="12.5">
     <path d="m145.88-58.144c-63.436 52.958-97.335 130.3-91.924 209.73 5.4111 79.426 49.531 152.11 119.64 197.08"/>
     <path d="m220.37 6.3587c-45.315 33.57-70.177 85.815-66.534 139.82 3.6426 54.004 35.326 102.9 84.792 130.87"/>
     <path d="m249.03 43.769c-32.562 24.122-50.426 61.663-47.809 100.47 2.6174 38.805 25.384 73.943 60.928 94.035"/>
     <path d="m274.7 70.679c-22.793 16.885-35.298 43.164-33.466 70.328 1.8322 27.164 17.769 51.76 42.65 65.825"/>
    </g>
   </g>
  </g>
 </g>
</svg>
