<svg xmlns="http://www.w3.org/2000/svg" xmlns:xlink="http://www.w3.org/1999/xlink" width="50" zoomAndPan="magnify" viewBox="0 0 37.5 37.499999" height="50" preserveAspectRatio="xMidYMid meet" version="1.0"><defs><clipPath id="c94cd3943a"><path d="M 3.019531 6 L 20 6 L 20 28 L 3.019531 28 Z M 3.019531 6 " clip-rule="nonzero"/></clipPath><clipPath id="cc816b1f88"><path d="M 17 0.808594 L 34 0.808594 L 34 22 L 17 22 Z M 17 0.808594 " clip-rule="nonzero"/></clipPath><clipPath id="cbf2d36120"><path d="M 7 27 L 31 27 L 31 36.335938 L 7 36.335938 Z M 7 27 " clip-rule="nonzero"/></clipPath></defs><path fill="#d1d3d4" d="M 18.40625 2.652344 C 24.566406 2.652344 29.574219 7.667969 29.574219 13.816406 C 29.574219 19.96875 24.558594 24.984375 18.40625 24.984375 C 12.257812 24.984375 7.238281 19.96875 7.238281 13.816406 C 7.238281 7.667969 12.246094 2.652344 18.40625 2.652344 Z M 18.40625 2.652344 " fill-opacity="1" fill-rule="evenodd"/><g clip-path="url(#c94cd3943a)"><path fill="#ed1c24" d="M 15.039062 9.058594 L 12.753906 6.710938 L 19.417969 6.710938 L 19.417969 13.4375 L 17.070312 11.085938 C 13.144531 14.074219 4.765625 22.191406 4.890625 24.984375 C 4.953125 25.488281 5.273438 25.746094 5.589844 25.808594 C 6.921875 26.1875 8.765625 25.042969 11.9375 23.140625 C 11.113281 23.839844 7.363281 26.691406 5.210938 27.011719 C 3.933594 27.207031 3.109375 26.320312 3.171875 24.984375 C 3.296875 23.140625 5.644531 19.78125 8.1875 16.734375 C 10.917969 13.4375 13.894531 10.261719 15.039062 9.050781 Z M 15.039062 9.058594 " fill-opacity="1" fill-rule="evenodd"/></g><g clip-path="url(#cc816b1f88)"><path fill="#0072bc" d="M 24.433594 21.304688 L 17.511719 21.304688 L 17.386719 14.199219 L 20.054688 16.546875 C 24.054688 13.570312 32.75 5.628906 32.625 2.777344 C 32.5625 2.332031 32.242188 2.011719 31.925781 2.011719 C 30.84375 1.953125 28.496094 2.519531 25.320312 4.421875 C 26.144531 3.722656 30.203125 0.808594 32.367188 0.808594 C 33.695312 0.808594 33.953125 1.4375 33.953125 2.835938 C 33.953125 4.867188 31.863281 7.851562 29.378906 10.894531 C 26.589844 14.1875 23.476562 17.742188 22.335938 19.019531 L 24.425781 21.304688 Z M 24.433594 21.304688 " fill-opacity="1" fill-rule="evenodd"/></g><g clip-path="url(#cbf2d36120)"><path fill="#0072bc" d="M 9.191406 34.996094 L 9.808594 34.996094 C 10.199219 34.996094 10.476562 34.898438 10.625 34.710938 C 10.785156 34.527344 10.863281 34.191406 10.863281 33.71875 C 10.863281 33.25 10.777344 32.894531 10.609375 32.710938 C 10.441406 32.523438 10.113281 32.433594 9.640625 32.433594 L 9.191406 32.433594 L 9.191406 35.003906 Z M 9.191406 31.34375 L 9.695312 31.34375 C 10.078125 31.34375 10.332031 31.265625 10.476562 31.097656 C 10.617188 30.929688 10.6875 30.628906 10.6875 30.195312 C 10.6875 29.804688 10.617188 29.527344 10.464844 29.386719 C 10.324219 29.246094 10.050781 29.164062 9.652344 29.164062 L 9.191406 29.164062 Z M 7.726562 36.140625 L 7.726562 28.066406 L 10.148438 28.066406 C 10.839844 28.066406 11.351562 28.226562 11.6875 28.554688 C 12.027344 28.875 12.195312 29.371094 12.195312 30.035156 C 12.195312 30.566406 12.113281 30.980469 11.945312 31.273438 C 11.777344 31.566406 11.53125 31.746094 11.203125 31.804688 C 11.582031 31.859375 11.875 32.046875 12.089844 32.375 C 12.300781 32.703125 12.40625 33.125 12.40625 33.660156 C 12.40625 34.519531 12.230469 35.148438 11.867188 35.546875 C 11.511719 35.945312 10.953125 36.148438 10.191406 36.148438 L 7.738281 36.148438 Z M 13.425781 33.304688 L 14.933594 33.304688 L 14.933594 33.828125 C 14.933594 34.324219 14.996094 34.660156 15.121094 34.835938 C 15.242188 35.015625 15.457031 35.101562 15.757812 35.101562 C 16.058594 35.101562 16.316406 35.023438 16.484375 34.863281 C 16.652344 34.703125 16.734375 34.464844 16.734375 34.15625 C 16.734375 33.914062 16.679688 33.710938 16.554688 33.535156 C 16.441406 33.367188 16.191406 33.136719 15.800781 32.871094 L 15.03125 32.320312 C 14.367188 31.859375 13.941406 31.476562 13.761719 31.175781 C 13.585938 30.875 13.496094 30.496094 13.496094 30.042969 C 13.496094 29.359375 13.703125 28.828125 14.101562 28.449219 C 14.5 28.066406 15.058594 27.871094 15.765625 27.871094 C 16.511719 27.871094 17.085938 28.074219 17.484375 28.484375 C 17.886719 28.890625 18.078125 29.476562 18.078125 30.246094 C 18.078125 30.328125 18.078125 30.378906 18.078125 30.425781 C 18.078125 30.46875 18.078125 30.503906 18.070312 30.539062 L 16.644531 30.539062 L 16.644531 30.328125 C 16.644531 29.890625 16.574219 29.574219 16.429688 29.386719 C 16.289062 29.199219 16.050781 29.101562 15.722656 29.101562 C 15.484375 29.101562 15.289062 29.175781 15.15625 29.316406 C 15.011719 29.457031 14.949219 29.652344 14.949219 29.902344 C 14.949219 30.238281 15.261719 30.617188 15.882812 31.027344 C 15.882812 31.027344 15.890625 31.027344 15.898438 31.035156 L 16.722656 31.59375 C 17.316406 31.984375 17.714844 32.355469 17.929688 32.703125 C 18.140625 33.046875 18.25 33.488281 18.25 34.03125 C 18.25 34.765625 18.035156 35.332031 17.617188 35.730469 C 17.203125 36.128906 16.601562 36.324219 15.820312 36.324219 C 15.039062 36.324219 14.402344 36.113281 14.011719 35.695312 C 13.613281 35.28125 13.417969 34.632812 13.417969 33.773438 C 13.417969 33.683594 13.417969 33.535156 13.433594 33.320312 L 13.433594 33.285156 Z M 19.460938 36.140625 L 19.460938 28.066406 L 21.003906 28.066406 L 23.105469 33.710938 L 23.0625 28.066406 L 24.480469 28.066406 L 24.480469 36.140625 L 22.945312 36.140625 L 20.828125 30.484375 L 20.871094 36.140625 L 19.453125 36.140625 Z M 25.871094 36.140625 L 25.871094 28.066406 L 27.378906 28.066406 L 27.378906 34.765625 L 30.089844 34.765625 L 30.089844 36.140625 Z M 25.871094 36.140625 " fill-opacity="1" fill-rule="nonzero"/></g></svg>