<svg xmlns="http://www.w3.org/2000/svg" xmlns:xlink="http://www.w3.org/1999/xlink" width="50" zoomAndPan="magnify" viewBox="0 0 37.5 37.499999" height="50" preserveAspectRatio="xMidYMid meet" version="1.0"><defs><clipPath id="110a569e71"><path d="M 0.445312 4 L 33 4 L 33 24 L 0.445312 24 Z M 0.445312 4 " clip-rule="nonzero"/></clipPath><clipPath id="4024c56fa9"><path d="M 25 25 L 33 25 L 33 33.304688 L 25 33.304688 Z M 25 25 " clip-rule="nonzero"/></clipPath><clipPath id="a55aa8c26b"><path d="M 33 3.699219 L 35 3.699219 L 35 6 L 33 6 Z M 33 3.699219 " clip-rule="nonzero"/></clipPath><clipPath id="0d5aa06848"><path d="M 35 3.699219 L 36.710938 3.699219 L 36.710938 6 L 35 6 Z M 35 3.699219 " clip-rule="nonzero"/></clipPath></defs><g clip-path="url(#110a569e71)"><path fill="#e5202e" d="M 16.300781 4.226562 L 11.824219 22.246094 L 7.351562 4.226562 L 0.445312 4.226562 L 5.246094 23.566406 L 18.410156 23.566406 L 23.207031 4.226562 Z M 25.464844 23.5625 L 32.375 23.5625 L 32.375 4.226562 L 25.464844 4.226562 L 25.464844 23.566406 Z M 25.464844 23.5625 " fill-opacity="1" fill-rule="evenodd"/></g><g clip-path="url(#4024c56fa9)"><path fill="#ffd400" d="M 32.683594 29.558594 C 32.683594 31.625 31 33.304688 28.921875 33.304688 C 26.84375 33.304688 25.160156 31.625 25.160156 29.558594 C 25.160156 27.488281 26.84375 25.8125 28.921875 25.8125 C 31 25.8125 32.683594 27.488281 32.683594 29.558594 " fill-opacity="1" fill-rule="evenodd"/></g><g clip-path="url(#a55aa8c26b)"><path fill="#e5202e" d="M 33.96875 5.464844 L 33.96875 3.910156 L 33.382812 3.910156 L 33.382812 3.703125 L 34.785156 3.703125 L 34.785156 3.910156 L 34.203125 3.910156 L 34.203125 5.464844 Z M 33.96875 5.464844 " fill-opacity="1" fill-rule="nonzero"/></g><g clip-path="url(#0d5aa06848)"><path fill="#e5202e" d="M 35.023438 5.464844 L 35.023438 3.703125 L 35.371094 3.703125 L 35.792969 4.949219 C 35.828125 5.066406 35.859375 5.152344 35.875 5.210938 C 35.894531 5.148438 35.925781 5.054688 35.972656 4.929688 L 36.398438 3.703125 L 36.710938 3.703125 L 36.710938 5.464844 L 36.484375 5.464844 L 36.484375 3.992188 L 35.96875 5.464844 L 35.757812 5.464844 L 35.246094 3.964844 L 35.246094 5.464844 Z M 35.023438 5.464844 " fill-opacity="1" fill-rule="nonzero"/></g></svg>